<svg
  version="1.1"
  baseProfile="full"
  width="100%" height="100%"
  xmlns="http://www.w3.org/2000/svg"
  viewBox="0 0 1400 800"
>

  <rect x="1300" y="400" rx="40" ry="40" width="300" height="300" stroke="#4954e6" fill="#4954e6">
    <animateTransform attributeType="XML" attributeName="transform" begin="0s" dur="35s" type="rotate" from="0 1450 550" to="360 1450 550" repeatCount="indefinite" />
  </rect>

  <path d="M 100 350 A 150 150 0 1 1 400 350 Q400 370 380 370 L 250 370 L 120 370 Q100 370 100 350" stroke="rgb(253, 214, 99)" fill="rgb(253, 214, 99)">
    <animateMotion path="M 800 -200 L 800 -300 L 800 -200" dur="20s" begin="0s" repeatCount="indefinite" />
    <animateTransform attributeType="XML" attributeName="transform" begin="0s" dur="30s" type="rotate" values="0 210 530 ; -30 210 530 ; 0 210 530" keyTimes="0 ; 0.5 ; 1" repeatCount="indefinite" />
  </path>

  <circle cx="200" cy="150" r="20" stroke="#4954e6" fill="#4954e6">
    <animateMotion path="M 0 0 L 40 20 Z" dur="5s" repeatCount="indefinite" />
  </circle>

  <g id="svg_68">
   <path d="m223,270c-1,0 -2,1 -4,3c-3,3 -4.901,7.90099 -10,13c-2.5495,2.54951 -5.69342,5.4588 -7,6c-0.92389,0.38269 -3.05664,1.91753 -6,4c-4.08173,2.88786 -5.82373,3.48625 -8,4c-0.97327,0.22975 -6.01208,0.91869 -13,2c-12.02246,1.86035 -21.04468,2.76137 -27,4c-4.03674,0.83958 -5.82373,2.48625 -8,3c-0.97327,0.22975 -0.29291,1.29289 -1,2c-0.70709,0.70711 -3.34619,1.70546 -5,4c-2.61493,3.62799 -3.33746,5.31001 -5,8c-0.74347,1.203 -1.25653,1.797 -2,3c-1.66254,2.68999 -0.31073,4.08025 -1,7c-0.51373,2.17625 -1,4 -1,6c0,3 0,5 0,7c0,2 1.52222,4.38074 4,7c3.4361,3.63226 8.23401,5.49295 13,8c3.19098,1.67856 3.70544,2.34619 6,4c1.81396,1.30746 5.29291,1.29291 6,2c0.70709,0.70709 0.29291,1.29291 1,2c0.70709,0.70709 2,0 3,0c1,0 2,0 3,0c1,0 2.05353,0.4595 4,0c2.17627,-0.51373 3.82373,-2.48627 6,-3c0.97327,-0.22977 1.47424,-0.14935 2,-1c1.1756,-1.9021 3.8244,-1.0979 5,-3c1.05145,-1.70129 1.61731,-2.07611 2,-3c0.5412,-1.30655 3,-2 5,-4c2,-2 3,-4 4,-4c1,0 3.41205,0.03146 7,-2c2.4613,-1.39357 3,-3 4,-3c1,0 2.4505,0.45049 5,3c2.5495,2.5495 3.70544,5.34619 6,7c1.81396,1.30746 4.71899,3.31021 8,6c2.78833,2.28589 5.133,3.56952 9,5c4.19434,1.55161 9.06458,2.1991 14,3c3.12146,0.50653 6,1 8,1c4,0 9,0 14,0c4,0 8.06598,-0.87766 10,-2c3.11847,-1.80972 4.86829,-2.28857 9,-4c2.92157,-1.21014 6.74677,-3.37134 11,-6c3.8042,-2.35114 8.31,-4.33749 11,-6c2.40601,-1.487 4.52014,-5.32367 6,-7c2.38617,-2.703 5.48627,-3.82375 6,-6c0.45953,-1.9465 1.34619,-3.70546 3,-6c1.30743,-1.814 2.05145,-4.29869 1,-6c-1.1756,-1.90211 -3.70544,-2.34619 -6,-4c-1.81396,-1.30745 -3.69342,-2.4588 -5,-3c-0.92389,-0.38269 -2.69257,-1.186 -4,-3c-0.8269,-1.14726 -2.61731,-2.07613 -3,-3c-0.5412,-1.30656 -0.8269,-1.85274 0,-3c1.30743,-1.814 1.52014,-4.32367 3,-6c2.38617,-2.703 5.22272,-4.72398 9,-8c3.20514,-2.77979 6.70251,-6.56349 12,-9c5.74591,-2.64276 13.40399,-5.41156 18,-9c4.45874,-3.48129 5.71899,-5.31021 9,-8c2.78833,-2.28587 5.62531,-4.41362 10,-8c2.78833,-2.28587 5,-5 6,-7c1,-2 4,-4 5,-7c1,-3 3,-6 3,-8c0,-3 0,-4 0,-7c0,-3 -0.67963,-5.02582 -1,-7c-0.50653,-3.12144 -3.513,-4.59399 -5,-7c-1.66254,-2.68999 -2.81146,-4.13464 -5,-7c-1.91949,-2.51308 -3.18604,-4.69255 -5,-6c-2.29456,-1.65381 -4.59399,-3.51301 -7,-5c-2.69,-1.66251 -5.18604,-2.69255 -7,-4c-1.14728,-0.8269 -3.90283,-1.22421 -6,-2c-3.867,-1.4305 -8.04132,-1.84723 -12,-3c-3.03619,-0.88413 -6,-1 -11,-1c-4,0 -9,0 -13,0c-3,0 -5,0 -8,0c-2,0 -5.04291,0.71021 -6,1c-3.45087,1.04483 -6.74286,5.34457 -12,9c-4.78741,3.32879 -9,7 -11,9c-2,2 -4,4 -5,5c-2,2 -3.25653,3.797 -4,5c-1.66254,2.68999 -2.23462,5.15224 -3,7c-0.5412,1.30656 -1.85272,2.1731 -3,3c-1.81396,1.30745 -5.02582,1.67964 -7,2c-3.12146,0.50655 -6,1 -10,1c-4,0 -8,0 -11,0c-3,0 -4.15222,-0.76537 -6,0c-1.30658,0.5412 -4,2 -6,2c-2,0 -2.07611,0.61731 -3,1c-1.30658,0.5412 -2,1 -3,2c-1,1 -2.34619,1.70546 -4,4c-1.30743,1.814 -1.4588,4.69344 -2,6c-0.38269,0.92387 -0.4588,2.69344 -1,4c-0.76538,1.84776 0,4 0,7c0,2 1.48627,2.82375 2,5c0.45953,1.9465 2,4 3,6c1,2 1.82111,4.29869 5,6c1.76337,0.94371 3.82373,1.48625 6,2c1.94647,0.4595 5.1593,1.61064 8,3c3.23889,1.58411 6,4 7,5c1,1 1,2 0,2c-1,0 -5.13373,1.14876 -10,0c-2.17627,-0.51375 -2.4588,-1.69344 -3,-3c-1.53076,-3.69551 1.55994,-9.03938 10,-12c13.51068,-4.7393 25,-5 28,-5c1,0 2.10944,2.98523 3,10c1.14044,8.98328 0.51178,15.09735 -5,17c-7.62097,2.63072 -13.41205,2.03145 -17,0c-2.4613,-1.39357 -3,-2 -3,-3c0,-3 1.48743,-6.19392 12,-10c16.42114,-5.94527 34.96881,-5.49957 47,-6c4.99567,-0.20779 9.25757,6.28775 7,15c-2.58258,9.96646 -10.6463,15.9164 -20,19c-8.75604,2.88657 -18.44806,3.57719 -21,2c-1.9021,-1.17557 -3.75641,-4.07217 -3,-8c1.01837,-5.28799 8.9187,-12.17941 22,-18c13.91614,-6.19203 31.97504,-9.49973 47,-10c8.995,-0.2995 12,0 11,0c-5,0 -10.94672,-0.49873 -18,-1c-5.98492,-0.42534 -11.37201,-2.3851 -15,-5c-3.44183,-2.48071 -4.14771,-7.94341 -6,-13c-1.08771,-2.96933 -2,-7 -2,-11c0,-3 -1.53076,-7.30449 0,-11c1.0824,-2.61313 2,-4 2,-5c0,-1 0,-3 0,-4c0,-1 -0.29291,-0.70711 -1,0c-0.70709,0.70711 -3.83868,3.17049 -7,6c-4.77112,4.27039 -9.87854,7.49345 -13,8c-0.98706,0.16019 -2,0 -2,-1c0,-1 1.78986,-5.07843 3,-8c0.85571,-2.06586 2.1731,-3.85274 3,-5c1.30743,-1.814 1,-3 1,-4c0,-1 -1.07611,-1.61731 -2,-2c-1.30658,-0.5412 -2.07611,-1.61732 -3,-2c-1.30658,-0.5412 -2,-1 -4,-1c-1,0 -3,0 -4,0c-3,0 -6,0 -9,0c-2,0 -2.82373,1.48626 -5,2c-0.97327,0.22975 -2.87854,1.49345 -6,2c-1.97418,0.32036 -4,0 -6,0c-2,0 -4,0 -6,1c-2,1 -4.82373,1.48625 -7,2c-1.94647,0.4595 -4.07611,0.61731 -5,1c-1.30658,0.5412 -2.18604,1.69255 -4,3c-1.14728,0.8269 -1.69257,2.186 -3,4c-0.8269,1.14726 -2.8244,2.09789 -4,4c-0.52576,0.85065 -1,2 -3,4c-1,1 -2.4588,2.69344 -3,4c-0.76538,1.84776 -0.85193,2.22836 -2,5c-0.5412,1.30656 -1.69257,2.186 -3,4c-0.8269,1.14726 -1.69257,1.186 -3,3c-0.8269,1.14726 -1.07611,1.61731 -2,2c-1.30658,0.5412 -1.69342,2.4588 -3,3c-0.92389,0.38269 -2.07611,-0.38269 -3,0c-1.30658,0.5412 -2.29291,0.29289 -3,1c-0.70709,0.70711 -0.69342,1.4588 -2,2c-0.92389,0.38269 -2,0 -4,1c-2,1 -3.29291,0.29289 -4,1c-0.70709,0.70711 -0.61731,1.07613 -1,2c-0.5412,1.30656 -1.4588,1.69344 -2,3c-0.76538,1.84776 -0.45953,4.0535 0,6c0.51373,2.17625 2.78986,5.07843 4,8c1.71143,4.13171 3.80902,6.32144 7,8c4.76599,2.50705 8.87854,4.49345 12,5c3.94836,0.64073 9.10211,1.00533 14,0c7.46027,-1.53127 13.94586,-6.14859 22,-9c8.94293,-3.16606 17,-6 22,-10c5,-4 8.04736,-6.93788 12,-10c5.06189,-3.92142 10.43463,-8.84901 13,-7c5.67871,4.09297 -3.80322,20.75539 -13,34c-8.9093,12.83061 -17,21 -21,25c-3,3 -5.86829,5.28859 -10,7c-2.92157,1.21014 -5,2 -8,2c-4,0 -12.02386,-0.57736 -19,0c-6.06201,0.50171 -9.07178,1.69124 -14,3c-3.05634,0.81166 -7.03876,2.51945 -10,3c-3.12146,0.50655 -4.82373,2.48625 -7,3c-1.94647,0.4595 -4,1 -6,1c-1,0 -3.15222,0.23463 -5,1c-1.30658,0.5412 -0.97327,1.77025 0,2c2.17627,0.51375 7.83551,2.99399 17,4c6.95819,0.76382 15.07129,-1.81633 23,-5c7.06732,-2.8378 13.91278,-8.13297 23,-14c7.92566,-5.11707 17.19104,-11.74281 24,-17c6.18201,-4.77312 12.73578,-11.23541 19,-18c4.80444,-5.1882 8.46448,-10.46446 12,-14c3.53552,-3.53554 7.08032,-7.37642 11,-9c0.92389,-0.38269 2,0 3,0c3,0 7,0 11,0c3,0 10.23529,-0.36955 19,-4c8.26343,-3.42282 12.3764,-6.08031 14,-10c0.38269,-0.92387 0.08856,-1.90732 -2,0c-5.76727,5.26675 -13.91626,14.09688 -22,21c-5.93933,5.07191 -11.81799,11.22688 -18,16c-6.80896,5.25719 -11.02051,11.9745 -16,16c-3.47784,2.81154 -6.02582,3.32036 -8,3c-3.12146,-0.50655 -8.89679,-6.6113 -12,-15c-4.2915,-11.601 -5.45459,-20.68716 -3,-24c3.47137,-4.68506 14.01337,-4.58908 27,-4c11.034,0.50052 15.53998,6.201 14,12c-2.06934,7.79218 -11.78296,14.55652 -24,19c-15.75342,5.72971 -30,7 -38,7c-4,0 -5.16498,-0.00682 -5,-2c0.50171,-6.06204 7.74438,-12.49706 21,-19c8.84216,-4.33778 11.92389,-4.38269 11,-4c-1.30658,0.5412 -2,1 -2,3l-1,0l-1,0l0,1" id="svg_19" stroke-width="85" stroke="rgb(241, 243, 244)" fill="none"/>
   <circle transform="rotate(1.5578 257.571 284)" stroke="rgb(253, 214, 99)" id="svg_6" fill="rgb(253, 214, 99)" r="64" cy="284" cx="257.57143"/>
   <path d="m287.42316,243.59502c0,0 -0.57141,0 -1.14285,0c-0.57141,0 -1.14285,0 -2.85712,0c-0.57141,0 -1.14285,0 -2.28571,0c-0.57141,0 -1.18634,-0.21866 -1.71426,0c-0.74661,0.30925 -0.57144,1.71428 -0.57144,2.85713c0,1.14285 0.14658,2.16969 0.57144,2.85713c0.94998,1.53711 1.54596,1.91208 2.85712,2.85712c1.03656,0.74712 2.18536,0.05594 2.85712,1.14285c0.30042,0.48608 0.39575,0.67772 1.14285,1.71428c0.47253,0.65559 1.05869,1.81317 1.71429,2.28571c1.03656,0.7471 1.14285,1.14285 1.71426,1.71426c0.57144,0.57144 0.57141,1.14285 1.14285,1.71429c0.57144,0.57144 0.61493,1.49561 1.14285,1.71426c0.74661,0.30927 0.61493,1.49564 1.14285,1.71429c0.74661,0.30923 0.57144,1.14285 1.14285,1.14285c0.57144,0 0.57144,0.57141 1.14285,0.57141c0.57144,0 1.14285,0 1.71426,0c0.57144,0 1.14285,0 1.14285,-0.57141c0,-0.57144 0.57144,-0.57144 0.57144,-1.14285c0,-0.57144 0.26218,-0.96768 0.57141,-1.71429c0.43735,-1.05588 0.35275,-1.75775 0.57144,-2.28571c0.30923,-0.74658 0.57141,-1.14285 0.57141,-1.71426c0,-0.57144 0,-1.14285 0,-1.71429c0,-0.57141 -0.16736,-0.73878 -0.57141,-1.14284c-0.80811,-0.80812 -0.83362,-0.96768 -1.14285,-1.71428c-0.21866,-0.52792 -0.16739,-1.88165 -0.57144,-2.28571c-0.40405,-0.40405 -1.14285,-0.57143 -1.14285,-1.71428c0,-0.57141 -0.83359,-0.39624 -1.14282,-1.14284c-0.43735,-1.05586 -0.35278,-1.18636 -0.57144,-1.71428c-0.30923,-0.7466 -1.18634,-0.35277 -1.71426,-0.57143c-0.74661,-0.30925 -0.39627,-1.40503 -1.14285,-1.71428c-0.52795,-0.21869 -1.18634,0.21869 -1.71429,0c-0.74658,-0.30925 -1.14285,-0.57143 -1.71426,-0.57143c-0.57144,0 -1.14285,0 -1.71429,0c-0.57141,0 -1.14285,0 -1.71426,0c-0.57144,0 -0.33475,0.33473 -1.14285,1.14285c-0.40408,0.40407 -0.7388,0.16737 -1.14285,0.57143c-0.40405,0.40405 -0.97546,0.7388 -0.57141,1.14285c0.40405,0.40405 1.19876,0.4711 2.28568,1.14285c0.48608,0.30043 0.68018,1.07515 1.71429,2.85712c0.64133,1.10513 0.57141,1.71428 0.57141,2.28571c0,0.57143 0.57144,0.57143 0.57144,0c0,-1.14285 -0.57144,-1.71428 -0.57144,-2.85713c0,-0.57143 0,-1.14284 0.57144,-1.14284c0.57141,0 1.14285,-0.00002 2.28571,1.14284c0.57141,0.57143 1.42072,2.185 1.71426,3.42856c0.52515,2.22455 0.57144,3.99997 0.57144,4.57141c0,0.57141 0.06982,-0.00427 0,-0.57144c-0.28787,-2.33839 -1.71429,-4.5714 -1.71429,-6.28568c0,-1.14285 0.26218,-1.88947 0.57144,-1.14285c0.21869,0.52792 0.85339,0.50203 1.14285,2.28571c0.36615,2.2562 1.14285,3.99997 1.14285,5.14282c0,1.14285 0.52795,2.63846 0,2.85715c-0.74661,0.30927 -0.85498,-1.66159 -1.14285,-4c-0.34909,-2.83571 -0.65604,-5.27332 0,-6.8571c0.30923,-0.74658 1.15024,-0.66293 1.71426,-0.57141c1.78369,0.28944 2.28571,2.28569 2.28571,3.99997c0,2.85713 0,4.5714 0,6.28569c0,0.57141 0,0 0,-0.57144c0,-0.57141 0,-1.14285 0,-2.28571c0,-0.57141 0.57141,-0.57141 1.14285,-0.57141c0.57141,0 1.14285,0 1.14285,0.57141c0,0.57144 0.26218,0.96768 0.57141,1.71429c0.43735,1.05588 0.16736,1.31018 0.57144,1.71426c0.40408,0.40408 0.16736,0.7388 0.57141,1.14285c0.40408,0.40408 0.16736,0.73877 0.57144,1.14285c0.40408,0.40408 0,1.14285 0,1.71429c0,0.57141 -0.16736,0.73877 -0.57144,1.14285c-0.40405,0.40405 -0.57141,0.57141 -1.14285,0.57141c-0.57141,0 -0.39575,-0.6777 -1.14285,-1.71426c-0.4725,-0.65558 -0.57141,-1.14285 -0.57141,-1.71429c0,-0.57141 0,-1.14285 0,-1.71426c0,-0.57144 0.57144,-1.71429 0,-1.71429c-0.57144,0 -0.57144,1.14285 -0.57144,1.71429c0,1.14285 -0.57141,1.71426 -0.57141,2.28571c0,1.14285 -0.04349,1.49561 -0.57141,1.71426c-0.74661,0.30927 -0.57144,1.14285 -0.57144,1.71429c0,0.57141 -0.16736,0.7388 -0.57141,1.14285c-0.40405,0.40405 0,1.14285 0,1.71426c0,0.57141 1.14285,0.57141 1.71426,0.57141c0.57141,0 1.14285,0 1.71426,0c0.57144,0 1.18634,-0.35272 1.71429,-0.57141c0.74658,-0.30923 0.73877,-0.73877 1.14285,-1.14285c0.40405,-0.40405 0.57141,-0.57141 0.57141,-1.14285c0,-0.57141 0,-1.14285 0,-1.71426c0,-0.57144 0,-1.14285 0,-1.71429c0,-0.57141 0,-1.14285 0,-1.71426c0,-0.57144 0.40408,-1.31021 0,-1.71429c-0.40405,-0.40405 -0.57141,-0.57141 -1.14285,-0.57141c-0.57141,0 -0.73877,-0.16736 -1.14285,-0.57144c-0.40405,-0.40405 -0.73877,-0.16733 -1.14285,-0.57141c-0.40408,-0.40408 -0.35275,-0.61493 -0.57141,-1.14285c-0.30927,-0.74661 -0.7388,-1.31023 -1.14285,-1.71428c-0.80811,-0.80812 -0.83359,-1.53909 -1.14285,-2.28571c-0.21869,-0.52792 -0.16736,-0.7388 -0.57141,-1.14285c-0.40405,-0.40405 -0.57144,-0.57143 -0.57144,-1.14285l-0.57141,0l0,-0.57143" id="svg_49" stroke-width="5" stroke="#e5f2ff" fill="none"/>
   <animateTransform attributeType="XML" attributeName="transform" begin="0s" dur="35s" type="rotate" from="0 210 530" to="360 210 530" repeatCount="indefinite" />
  </g>

  <!-- 三角形 -->
  <path d="M 165 580 L 270 580 Q275 578 270 570 L 223 483 Q220 480 217 483 L 165 570 Q160 578 165 580" stroke="rgb(238, 103, 92)" fill="rgb(238, 103, 92)">
    <animateTransform attributeType="XML" attributeName="transform" begin="0s" dur="35s" type="rotate" from="0 210 530" to="360 210 530" repeatCount="indefinite" />
  </path>

  <circle cx="1200" cy="600" r="30" stroke="rgb(241, 243, 244)" fill="rgb(241, 243, 244)">
    <animateMotion path="M 0 0 L -20 40 Z" dur="9s" repeatCount="indefinite" />
  </circle>

  <path d="M 100 350 A 40 40 0 1 1 180 350 L 180 430 A 40 40 0 1 1 100 430 Z" stroke="#ff9113" fill="#ff9113">
    <animateMotion path="M 140 390 L 180 360 L 140 390" dur="20s" begin="0s" repeatCount="indefinite" />
    <animateTransform attributeType="XML" attributeName="transform" begin="0s" dur="30s" type="rotate" values="0 140 390; -60 140 390; 0 140 390" keyTimes="0 ; 0.5 ; 1" repeatCount="indefinite" />
  </path>

  <rect x="400" y="600" rx="40" ry="40" width="100" height="100" stroke="rgb(129, 201, 149)" fill="rgb(129, 201, 149)">
    <animateTransform attributeType="XML" attributeName="transform" begin="0s" dur="35s" type="rotate" from="-30 550 750" to="330 550 750" repeatCount="indefinite" />
  </rect>
</svg>
