<?xml version="1.0" encoding="utf-8"?>
<!-- Generator: Adobe Illustrator 27.5.0, SVG Export Plug-In . SVG Version: 6.00 Build 0)  -->
<!DOCTYPE svg PUBLIC "-//W3C//DTD SVG 1.1//EN" "http://www.w3.org/Graphics/SVG/1.1/DTD/svg11.dtd" [
	<!ENTITY ns_extend "http://ns.adobe.com/Extensibility/1.0/">
	<!ENTITY ns_ai "http://ns.adobe.com/AdobeIllustrator/10.0/">
	<!ENTITY ns_graphs "http://ns.adobe.com/Graphs/1.0/">
	<!ENTITY ns_vars "http://ns.adobe.com/Variables/1.0/">
	<!ENTITY ns_imrep "http://ns.adobe.com/ImageReplacement/1.0/">
	<!ENTITY ns_sfw "http://ns.adobe.com/SaveForWeb/1.0/">
	<!ENTITY ns_custom "http://ns.adobe.com/GenericCustomNamespace/1.0/">
	<!ENTITY ns_adobe_xpath "http://ns.adobe.com/XPath/1.0/">
]>
<svg version="1.1" id="图层_1" xmlns:x="&ns_extend;" xmlns:i="&ns_ai;" xmlns:graph="&ns_graphs;"
	 xmlns="http://www.w3.org/2000/svg" xmlns:xlink="http://www.w3.org/1999/xlink" x="0px" y="0px" viewBox="0 0 1400 800"
	 style="enable-background:new 0 0 1400 800;" xml:space="preserve">
<style type="text/css">
	.st0{fill:#F1F3F4;}
	.st1{fill:#FDD663;}
	.st2{fill:#E5F2FF;stroke:#F9F9F9;stroke-width:10;stroke-miterlimit:10;}
	.st3{fill:#FF9113;stroke:#FF9113;stroke-width:1.3087;}
	.st4{fill:#81C995;stroke:#81C995;stroke-width:0.3002;}
	.st5{fill:#F9A448;}
	.st6{fill:#9ED66D;}
	.st7{fill:#F7F7F2;}
	.st8{fill:#E3EFBD;}
	.st9{fill:#F1FCE3;}
	.st10{fill:none;stroke:#DDE8F2;stroke-width:10;}
	.st11{fill:url(#svg_8_00000145058846636957578380000018268940187485267887_);}
	.st12{fill:#F2F1ED;}
	.st13{fill:#D5D6DB;}
	.st14{fill:#EDD7D3;}
	.st15{fill:#DDE8F2;}
	.st16{fill:#F7F7F7;}
	.st17{fill:#656768;}
	.st18{fill:#E5E5E5;}
</style>
<metadata>
	<x:xmpmeta  xmlns:x="adobe:ns:meta/">
		<rdf:RDF  xmlns:rdf="http://www.w3.org/1999/02/22-rdf-syntax-ns#">
			
				<rdf:Description  rdf:about="" xmlns:dc="http://purl.org/dc/elements/1.1/" xmlns:stDim="http://ns.adobe.com/xap/1.0/sType/Dimensions#" xmlns:xmp="http://ns.adobe.com/xap/1.0/" xmlns:xmpG="http://ns.adobe.com/xap/1.0/g/" xmlns:xmpGImg="http://ns.adobe.com/xap/1.0/g/img/" xmlns:xmpMM="http://ns.adobe.com/xap/1.0/mm/" xmlns:xmpTPg="http://ns.adobe.com/xap/1.0/t/pg/">
				<xmp:CreatorTool>Adobe Illustrator 27.5 (Windows)</xmp:CreatorTool>
				<xmp:CreateDate>2023-11-30T23:38:02+08:00</xmp:CreateDate>
				<xmp:Thumbnails>
					<rdf:Alt>
						<rdf:li  rdf:parseType="Resource">
							<xmpGImg:width>256</xmpGImg:width>
							<xmpGImg:height>108</xmpGImg:height>
							<xmpGImg:format>JPEG</xmpGImg:format>
							<xmpGImg:image>/9j/4AAQSkZJRgABAgEASABIAAD/7QAsUGhvdG9zaG9wIDMuMAA4QklNA+0AAAAAABAASAAAAAEA
AQBIAAAAAQAB/+4ADkFkb2JlAGTAAAAAAf/bAIQABgQEBAUEBgUFBgkGBQYJCwgGBggLDAoKCwoK
DBAMDAwMDAwQDA4PEA8ODBMTFBQTExwbGxscHx8fHx8fHx8fHwEHBwcNDA0YEBAYGhURFRofHx8f
Hx8fHx8fHx8fHx8fHx8fHx8fHx8fHx8fHx8fHx8fHx8fHx8fHx8fHx8fHx8f/8AAEQgAbAEAAwER
AAIRAQMRAf/EAaIAAAAHAQEBAQEAAAAAAAAAAAQFAwIGAQAHCAkKCwEAAgIDAQEBAQEAAAAAAAAA
AQACAwQFBgcICQoLEAACAQMDAgQCBgcDBAIGAnMBAgMRBAAFIRIxQVEGE2EicYEUMpGhBxWxQiPB
UtHhMxZi8CRygvElQzRTkqKyY3PCNUQnk6OzNhdUZHTD0uIIJoMJChgZhJRFRqS0VtNVKBry4/PE
1OT0ZXWFlaW1xdXl9WZ2hpamtsbW5vY3R1dnd4eXp7fH1+f3OEhYaHiImKi4yNjo+Ck5SVlpeYmZ
qbnJ2en5KjpKWmp6ipqqusra6voRAAICAQIDBQUEBQYECAMDbQEAAhEDBCESMUEFURNhIgZxgZEy
obHwFMHR4SNCFVJicvEzJDRDghaSUyWiY7LCB3PSNeJEgxdUkwgJChgZJjZFGidkdFU38qOzwygp
0+PzhJSktMTU5PRldYWVpbXF1eX1RlZmdoaWprbG1ub2R1dnd4eXp7fH1+f3OEhYaHiImKi4yNjo
+DlJWWl5iZmpucnZ6fkqOkpaanqKmqq6ytrq+v/aAAwDAQACEQMRAD8A9U4q7FXYq7FXYq7FXYq7
FXYqpm4iB+192KrGulH2RU++KLUHkdzVj9HbCq0EjpiqtFcMDRzVfHwxVFYEuxV2KuxV2KuxV2Ku
xV2KuxV2KuxV2KuxV2KuxV2KuxV2KuxV5T5i/PSLSPNU+lJphmsbOUwXM5k4yFlNHKLQiinpU7+2
dHpuwDlwifFUpCwOjjyz0ap6pHIkkayIeSOAynxBFRnOkUachdgV2KuxV2KoS4lLMVH2RhQoO6Ro
Xc0UbknIZMkYRMpGgExiZGgl0mtKGpHHUeJNPwzn8vtAAfRGx5lz46A1uVe11OGdghHBz0B3B+nM
3Rdr48x4SOGTTm0koC+YRmbZxXYqjYSTEp9sCV+KuxV2KqVzd2tqnqXEqRJ2LkCvyrkJ5IxFyNIM
gOaUy+cdDjJCyPJTuiH/AI245iS7RxDrbSdRFuHzhoUhAMrRE/zo38K4x7RxHrSRqIptBc29xGJI
JFlQ/tIQw/DMyExIWDbaCDyVMkl2KuxV2KuxV2KuxV2KuxV2KuxV2KsR1T8qvJmp66dau7RmuXYS
TRq5WKRx+06Dx777982eLtfPjx+HE7faGs4ok2y7NY2OxV2KuJpucVUHuhuEFffFCGwqletSN+7j
HQ1Y/qGc37QZT6YdObsdBDmUrzmXYomKyle0e6VhSM0K99qb/jmbi0U5YTmB+k/FplmAmIHqndvI
ZII3PVlBPzpnbaXIZ4oyPMgOmyx4ZEKmXsEdGvFAvgMCV2KuxVJNd8wNaSLZWSetqEmwXqEr0J8T
7Zg6rV8B4IbzLTly1sOaVx6Erv8AWdYma6um3MQb4R7Ej+GYf5cXxZTxS7mEcF7y3KOjjs4hSG1h
Qf6gJ+/LBOI5RiG0RA6NSQ2MwpNaROPEKAfvGJlE/VEFTCJ5hAvostvIbrRJ2hmXc27GoYDsCevy
OV/l6PFhNHuajhI3gnOg6+moo0My+lfRf3sXStNqiv4jM7SasZNjtMM8WXi2PNN8zG52KuxV2Kux
V2KuxV2KuxVgPmzWdatNYureO5kSAojQBTx4g8SSCtO9RmNkkQXVarNOMyL2TLyVqeq39zd/WZmk
toVVVVqH4ztWtK9F3yeKRLdo8k5E2dgyzLnPdirsVdiqhdOQoUd+v0YoQ2FXYqgdUtWmiV0FXjrt
4g5pu2dHLLASjvKP3OXo8wiaPIpLnHO3RsM91PAtjGAEr8TAb0rXfNrp8ubPjGngPT1Px6uLkjCE
vEPNOoo+KpGvQAKPozsseMQiIjkBTqJSs2jIoFTc7tklVcVdiqE1W/Ww0+a6bcxr8Cnux2UfflOf
L4cDLuYTlwi2O6HbPFbtqVwed7eEsrHqFJ6/Tms08eCPiH65NWGG3EeZRhJJqeuBudirsVcCQQQa
EdDiDSoDW4niMWs2nwXNuwE9O46An9Rx1ANDLH6o82jNGvUObKrO6ju7WK5j+xKoYDwr2+jNvjyC
cRIdXIjKxatk0uxV2KuxV2KuxV2KuxV435h1W51PVJ7mSX92GZII6/ZjUniABnm+u1+XLllLjIje
wv5Pb6Xs/DCABgJSrckD9PRNvIGq3VvrEVmWItboMGUk8eYUlWFe/wANM2HYOtyDNGEieCW2/u2/
U4na2ixeFKUQBIG9gBz529OzuHk3Yq7FXYqo3SEqGH7PXFCFwq7FXYqpSWttIeTxqW8ab5i5dFhy
G5RBLZHNOOwK9I44xxRQo8AKZdjxQgKiAB5MZSMuZRFqhL8uw/XljFFYEuxV2Ksb88yH6jbQA0Es
tT/sR/zdms7UPoA7y42pOwCIuFVHWJdkjUKo9gMGfaVdzfSkASaDcntlKohYACrkNQH7FCTlwh1Q
tlhKgniWJ3LdAPoyMoUqjlaW/TE1vcwHpJEw+mm2W4xYlHvCJCwQu8lTNJovEnaKV0HyNG/42y3s
yV4vcWvTn0p9mwb3Yq7FXYq7FXYq7FXYq8KArSsfX9o8s8nAvp976OT5pr5WT/nZNPKMP71dgT07
9cz+y4/4VCiPqcLtCX+DzvuewZ6S8K7FXYq7FXYqptbxsa0p8sVWG0WmzEH3xRSk0EqnpX3GFVoi
kP7J+7FV6Wzk/F8IxVFKqqtB0wJbxV2KuxV2KuxV2KuxV2KuxV2KuxV2KuxV2KuxV2KuxV2KuxV4
bJRZpIwtGViPtUGxzykmpEVv730Ucgf0Jx5IgVvNFlyIYKZGoD3WNiDt75suxMd6uF+f+5Lg9rTr
TS+H3h61nojxDsVdirsVdirsVdirsVdirsVdirsVdirsVdirsVdirsVdirsVdirsVdirsVdirsVd
irsVdirsVeMa3ara6xexgsBHPIF+EHbkafhnmOtwjHmmN9pHp5vfaTKZ4onviE3/AC8hebzH6vUQ
QuxPTrRB/wASzY+zsDPVcX82J/V+lwu25COnrvI/W9QzvXjnYq7FXYq7FXYq7FXYq7FXYq7FXYq7
FXYq7FXYq7FXYq7FXYq7FXYq7FWN/mF5qfyx5XudUiQSXVVitVYVX1JDQFvZRU5n9m6T8xmEDy5n
3MMk+EW+cLnz/wCd7id5pNdvldzUiK4kiQV8EjKqPoGd1Hs7TxFCEfkD97gnJLvUv8b+c/8Aq/6l
/wBJc/8AzXkvyGn/ANTh/pR+peOXe7/G/nP/AKv+pf8ASXP/AM14/kNP/qcP9KP1Lxy73f4385/9
X/Uv+kuf/mvH8hp/9Th/pR+peOXe7/G/nP8A6v8AqX/SXP8A814/kNP/AKnD/Sj9S8cu9PPKP5re
a9H1aGW91CfUNPZgt1b3UjTfATQlGcsysOopmHrOyMOWBEYiMuhAplDKQXqP5g6eYNcFwErHeRhg
QtfjSisO3ahzwjt/T8Oo4q2mO7qNj+h7zsbPxYeG94n7905/LbTPSs7nUGFDcMI46inwx/ap82NP
ozZezel4YSyfzjQ+H7fucDt3UcUow/m7/P8AH2suubmC2t5LidxHDEpeSRugUCpOdKSALLo4QMiI
jcl1tcwXVvHcW8glglUPHIu4KnocQQRYWcDEmMhRCphYuxV2KuxV2KuxV2KuxV2KuxV2KuxV2Kux
V2KuxV2KuxV2KuxV2KvOvz4/5QQ/8xcP6mzeez3+M/5paNR9L5yzunCdirsVdirsVdir7A17QLLW
rVbe5LJwbnHIlOSnoeoOxzxvX9nw1UOGe1HmHf6PWT08uKPVGWVnBZ2sVrbrxhhUKg+Xj7nMnDhj
igIR5Boy5ZZJGUuZed/mv5n+zoNq/hJfEfekf/Gx+jMTWZv4R8Xo+wdF/lpf5v6T+hU/KbzH6kMm
h3D/ABxVls690J+NPoPxD6cOiy/wlh2/o6Iyjrsf0F6Nme827FUJq1+NP024vCvL0Vqq+LE0Ufec
jI0La8s+CJLzG58y67cSmRr2ZCf2YnaNR8gpGYhySPV0stRkJuymflnzZqUOow295O1xbTsI2MpL
MpY0DBjv88njyG92/T6qQkATYL0bMp27sVdirsVdirsVdirsVdirsVdirsVdirsVdirsVedfnx/y
gh/5i4f1Nm89nv8AGf8ANLRqPpfOWd04TsVdirsVdirsVfaWeUu0Quq3U9pptzc28DXM8UbNFAgL
M7AbCg36+GRnIgEhtwYxOYiTwgnm8Lu9C82XdzLc3Gl3rzzMXkc28u7Man9nNNLHMmyD8nvceq08
IiInCh/SCrpek+btN1CC+ttKvVmt3Dr/AKPLQ06qfh6EbHDCGSJsA/Jhn1GmywMJThR/pB7rbytL
bxSshjaRFYxtsylhXifcZuQbDwU40SOaphYpV5qhlm8v3scSln4BuI60Vgx/AZDIPSWjUgnGaeUZ
hOiRui20tzq1pDEKs0qHbegBqT9AFclAWWzDEmYA73r+Zz0DsVdirsVdirsVdirsVdirsVdirsVd
iriQBU9MVUPrQ6hGKDq2T4GHGrI6uoZTUHIkUyBt53+fH/KCH/mLh/U2bv2e/wAZ/wA0tOo+l85Z
3ThOxV2KuxV2KuxV9pZ5S7R2KuxV2KuxV2KuxVJbvyd5fuZTK1t6bsat6bFQa/5I2+4ZWcUS40tJ
jJukXpmhaVptTZwCN2FGkJLMR82J/DJRgBybMeGMOQR+SbXYq7FXYq7FXYq7FXYq7FXYq7FXYq7F
Vsqlo2A6kbYYndB5KMdxEsQB2KihXJmBtiJCl9qpEW4pUkge2CZ3TDk8/wDz4/5QQ/8AMXD+ps3P
s9/jP+aWrUfS+cs7pwnYq7FXYq7FXYq+0s8pdo7FXYq7FXYq7FXYq7FXYq7FXYq7FXYq7FXYq7FX
Yq7FXYq7FXYq7FXYq0UQmpUV8aYbRTeBLzz890dvITlQSEuoSxHYfEKn6Tm79nz/AIT/AJpac/0v
nDO7cF2KuxV2KuxVciO7qiAs7EKqjqSdgMBNK+0M8qdo7FXYq7FXYq7FXYq7FXYq7FXYq7FXYq7F
XYq7FXYq7FXYq7FXYq7FXYq7FXYqlvmT9C/oG+/TfD9E+k31vnWnD6N616U3r0y/S+J4kfD+u9mM
qrfk+VtY/wAKfX5f0R9d+pcj6X1j0+dP9jnouDxuEcfDxeVuvlV7IL/cZ/xf/wAJl3r8kbO/3Gf8
X/8ACY+vyXZ3+4z/AIv/AOEx9fkuzv8AcZ/xf/wmPr8l2Z5+Un+Af8SW36T+sfpPmv6O9bh9W9av
w14/FzrTjXavvTNN2z+Z8I8FcH8Vc6/V3t2Hhvd//9k=
								</xmpGImg:image>
						</rdf:li>
					</rdf:Alt>
				</xmp:Thumbnails>
				<xmpTPg:MaxPageSize  rdf:parseType="Resource">
					<stDim:w>1400.000000</stDim:w>
					<stDim:h>800.000000</stDim:h>
					<stDim:unit>Points</stDim:unit>
				</xmpTPg:MaxPageSize>
				<xmpTPg:NPages>1</xmpTPg:NPages>
				<xmpTPg:HasVisibleTransparency>False</xmpTPg:HasVisibleTransparency>
				<xmpTPg:HasVisibleOverprint>False</xmpTPg:HasVisibleOverprint>
				<xmpTPg:PlateNames>
					<rdf:Seq>
						<rdf:li>Cyan</rdf:li>
						<rdf:li>Magenta</rdf:li>
						<rdf:li>Yellow</rdf:li>
					</rdf:Seq>
				</xmpTPg:PlateNames>
				<xmpTPg:SwatchGroups>
					<rdf:Seq>
						<rdf:li  rdf:parseType="Resource">
							<xmpG:groupName>默认色板组</xmpG:groupName>
							<xmpG:groupType>0</xmpG:groupType>
						</rdf:li>
					</rdf:Seq>
				</xmpTPg:SwatchGroups>
				<dc:format>image/svg+xml</dc:format>
				<xmpMM:InstanceID>xmp.iid:fd3bcca7-2c30-bb41-ad64-fb436f8b719d</xmpMM:InstanceID>
			</rdf:Description>
		</rdf:RDF>
	</x:xmpmeta>
	<sfw  xmlns="&ns_sfw;">
		<slices></slices>
		<sliceSourceBounds  bottomLeftOrigin="true" height="646.3" width="1117.6" x="71.5" y="81.8"></sliceSourceBounds>
	</sfw>
</metadata>


<g>
	<path class="st0" d="M447.8,147.3c-10.1,17-6.2,26.4-17.9,37.5c-10.8,10.2-17.2,5.3-33,15.9c-19.9,13.4-27.4,33.2-28.6,36.4
		c-2.1,5.7-9.2,25.1-1.3,46.3c9.5,25.7,34.3,36.2,39.7,38.5c24.5,10.3,33.2-1.1,65.3,9.4c18.6,6,17.1,10.3,35.4,15.2
		c20.8,5.5,38,4.1,53,2.7c20.3-1.9,34.3-3.2,50.4-11.9c21.7-11.8,33-29.2,37.2-35.9c15.6-24.7,7.3-33.5,21.9-52.3
		c15-19.4,26.3-13.3,42.6-33.5c16.1-20,18.5-42.8,18.9-51.9c0.3-6.7,1.2-32.7-15.2-55.7c-24.9-34.7-74.9-41.6-108.6-32.5
		c-26.2,7.1-23.7,18.8-55.8,27.2c-31.1,8.2-41.1-0.8-65.6,11.2C479.5,117.2,460,126.7,447.8,147.3z"/>
	<circle id="svg_6" class="st1" cx="568.7" cy="206.5" r="64"/>
	<path class="st2" d="M602.2,199.1c2-1.1,4.2-0.2,4.7,0c2.7,1.2,3.6,4.2,4.1,6c1.3,4.3,0.3,8-0.3,10.3c-0.4,1.5-1.2,4.4-3.4,7.5
		c-1.3,1.8-3.3,4.6-6.8,5.7c-1.2,0.4-3.6,1.1-5.4-0.3c-1.3-1-2-3-1.6-4.7c0.7-2.6,3.6-2.2,6.1-5.4c1.6-2.1,2.7-5.2,2.3-8.3
		c-0.5-3.1-2.3-3.8-2.1-6.6C599.9,202.9,600.1,200.3,602.2,199.1z"/>

<animateTransform attributeType="XML" attributeName="transform" begin="0s" dur="15s" type="rotate" from="0 210 530" to="360 300 200" repeatCount="indefinite" />
</g>


<g>
	<path id="svg_7" class="st3" d="M73.3,293.4c2.5-19.5,4-30.4,13.3-38.7c10.5-9.5,24.4-9.7,27.8-9.7c3.5-0.1,18.2-0.3,28.9,9.5
		c9.1,8.3,10.3,19.1,12.5,39.3c1.4,12.9,1.1,22.6-1.1,59.4c-1.2,20.3-1.8,30.4-2,32.4c-2,20.6-4.6,47.1-15.7,76.8
		c-7.1,18.9-14.5,38.8-24,38.6c-9.3-0.2-15.9-19.4-23.2-40.7c-2-5.8-10.8-32.3-14.6-75.7c-0.4-4.8-0.9-13.7-1.8-31.4
		C71.4,314.7,72,303.8,73.3,293.4z"/>
	<path class="st4" d="M103.4,227.3c-1.3-6.5-2.6-13-3.9-19.5c-6.1,1.3-12.2,2.6-18.3,3.9c1.6,6.4,3.3,12.7,4.9,19.1
		c2.3,11,7.2,19.4,11,18.6l3.5-0.7C104.4,247.9,105.7,238.3,103.4,227.3z"/>
	<g>
		<g>
			<path class="st5" d="M84.9,283.8c9-0.9,18.1-1.9,27.1-2.8c1.3-0.1,2.5-1,2.5-2.5c0-1.2-1.1-2.6-2.5-2.5c-9,0.9-18.1,1.9-27.1,2.8
				c-1.3,0.1-2.5,1-2.5,2.5C82.4,282.5,83.6,283.9,84.9,283.8L84.9,283.8z"/>
		</g>
	</g>
	<g>
		<g>
			<path class="st5" d="M131.3,291.6c5.8-1.8,11.9-2.2,17.9-1.5c1.3,0.2,2.5-1.3,2.5-2.5c0-1.5-1.2-2.3-2.5-2.5
				c-6.4-0.8-13-0.2-19.2,1.6c-1.3,0.4-2.1,1.7-1.7,3.1C128.6,291.2,130,292,131.3,291.6L131.3,291.6z"/>
		</g>
	</g>
	<g>
		<g>
			<path class="st5" d="M77.2,310.5c18.1,0.4,36.1,0.9,54.2,1.3c3.2,0.1,3.2-4.9,0-5c-18.1-0.4-36.1-0.9-54.2-1.3
				C74,305.4,74,310.4,77.2,310.5L77.2,310.5z"/>
		</g>
	</g>
	<g>
		<g>
			<path class="st5" d="M111.3,328.9c13.2-1.7,26.6-1.2,39.6,1.4c1.3,0.3,2.7-0.4,3.1-1.7c0.3-1.2-0.4-2.8-1.7-3.1
				c-13.5-2.7-27.3-3.3-40.9-1.6c-1.3,0.2-2.5,1-2.5,2.5C108.8,327.6,109.9,329.1,111.3,328.9L111.3,328.9z"/>
		</g>
	</g>
	<g>
		<g>
			<path class="st5" d="M78.8,341c12.2-0.3,24.5,0.4,36.6,2.1c1.3,0.2,2.7-0.3,3.1-1.7c0.3-1.2-0.4-2.9-1.7-3.1
				c-12.6-1.8-25.2-2.6-37.9-2.3C75.6,336,75.5,341,78.8,341L78.8,341z"/>
		</g>
	</g>
	<g>
		<g>
			<path class="st5" d="M78.8,360.5c11.9,0.2,23.7,0.4,35.6,0.6c3.2,0.1,3.2-4.9,0-5c-11.9-0.2-23.7-0.4-35.6-0.6
				C75.5,355.4,75.5,360.4,78.8,360.5L78.8,360.5z"/>
		</g>
	</g>
	<g>
		<g>
			<path class="st5" d="M149.4,370.7c-14.5,2.1-29,4.1-43.5,6.2c-1.3,0.2-2.1,1.9-1.7,3.1c0.4,1.4,1.7,1.9,3.1,1.7
				c14.5-2.1,29-4.1,43.5-6.2c1.3-0.2,2.1-1.9,1.7-3.1C152,371.1,150.7,370.6,149.4,370.7L149.4,370.7z"/>
		</g>
	</g>
	<g>
		<g>
			<path class="st5" d="M109.7,396.1c8.3,0.3,16.5,0.5,24.8,0.8c3.2,0.1,3.2-4.9,0-5c-8.3-0.3-16.5-0.5-24.8-0.8
				C106.5,391,106.5,396,109.7,396.1L109.7,396.1z"/>
		</g>
	</g>
	<g>
		<g>
			<path class="st5" d="M80.3,416.6c13.4,0.7,26.8,1.4,40.3,2.1c3.2,0.2,3.2-4.8,0-5c-13.4-0.7-26.8-1.4-40.3-2.1
				C77.1,411.5,77.1,416.5,80.3,416.6L80.3,416.6z"/>
		</g>
	</g>
	<g>
		<g>
			<path class="st5" d="M88.8,432.5c4.6,0.3,9.3,0.5,13.9,0.8c1.3,0.1,2.6-1.2,2.5-2.5c-0.1-1.4-1.1-2.4-2.5-2.5
				c-4.6-0.3-9.3-0.5-13.9-0.8c-1.3-0.1-2.6,1.2-2.5,2.5C86.4,431.4,87.4,432.4,88.8,432.5L88.8,432.5z"/>
		</g>
	</g>
	<g>
		<g>
			<path class="st5" d="M89,447.8c12.4,2.5,25.1,3.4,37.8,2.7c3.2-0.2,3.2-5.2,0-5c-12.2,0.7-24.5-0.1-36.4-2.5
				c-1.3-0.3-2.7,0.4-3.1,1.7C86.9,445.9,87.7,447.5,89,447.8L89,447.8z"/>
		</g>
	</g>
	<g>
		<g>
			<path class="st5" d="M99.8,462c11.5,3.6,23.6,4.3,35.4,2.3c1.3-0.2,2.1-1.9,1.7-3.1c-0.4-1.4-1.7-2-3.1-1.7
				c-10.9,1.9-22.2,1-32.7-2.3C98,456.2,96.7,461,99.8,462L99.8,462z"/>
		</g>
	</g>
	<g>
		<g>
			<path class="st5" d="M103.6,479.1c5.9,1.6,11.9,3.1,17.8,4.7c1.3,0.3,2.7-0.4,3.1-1.7c0.4-1.3-0.4-2.7-1.7-3.1
				c-5.9-1.6-11.9-3.1-17.8-4.7c-1.3-0.3-2.7,0.4-3.1,1.7C101.5,477.3,102.3,478.8,103.6,479.1L103.6,479.1z"/>
		</g>
	</g>
	<g>
		<g>
			<path class="st5" d="M145.3,258.1c-5.2,0-10.3,0-15.5,0c-1.3,0-2.6,1.1-2.5,2.5s1.1,2.5,2.5,2.5c5.2,0,10.3,0,15.5,0
				c1.3,0,2.6-1.1,2.5-2.5C147.8,259.2,146.7,258.1,145.3,258.1L145.3,258.1z"/>
		</g>
	</g>
	<path class="st4" d="M123.4,227.7c0.3-6.7,0.6-13.4,0.9-20.2c-6.2-0.2-12.5-0.3-18.7-0.5c0.1,6.7,0.1,13.4,0.2,20
		c-0.4,11.4,2.4,20.9,6.2,21l3.6,0.1C119.5,248.3,123,239.1,123.4,227.7z"/>
	<path class="st4" d="M143.3,232c1.8-6.5,3.7-12.9,5.5-19.4c-6-1.6-12.1-3.2-18.1-4.8c-1.5,6.5-3,13-4.5,19.5
		c-3,11-2.5,20.8,1.2,21.8l3.4,1C134.7,251.1,140.3,243,143.3,232z"/>

<animateTransform attributeType="XML" attributeName="transform" begin="0s" dur="35s" type="rotate" from="0 210 530" to="360 210 530" repeatCount="indefinite" />
</g>



<g>
	<path class="st6" d="M1189.1,296.9c0-86.5-72.4-156.7-161.8-156.7s-161.8,70.1-161.8,156.7"/>
	<path class="st7" d="M884.9,296.9c0-76.1,63.7-137.9,142.4-137.9s142.4,61.7,142.4,137.9"/>
	<path class="st8" d="M899.2,296.9c0-68.5,57.4-124.1,128.1-124.1s128.1,55.6,128.1,124.1"/>
	<g>
		<path class="st9" d="M977.7,295.3c0-0.5,13.7-0.9,61.7-0.8c2.4,0,2.6-3.5,0.3-3.8l0,0c-1.3-0.2-2.6-0.8-3.4-1.8
			c-2.6-3.3,0.9-6.9,4-8.9c6.8-4.6,13.7-9.1,20.5-13.7c0.9-0.6-13.6,9.3-24,13.6c-1.9,0.8-5.4,2.2-8.1,0.6c-2.5-1.5-3.1-4.9-3.4-6.8
			c-0.7-4.8-3.8-25.2-4-25.2c-0.1,0,0.5,12-3.3,25.2c-1.6,5.6-3,7.8-5.1,8.8c-1.2,0.6-5.2,3-15.3-4.1c-4.5-3.2-10-6.1-14.9-9.5
			c6.5,4.1,13.5,10.1,19.9,14.2c2.4,1.5,4.8,4.4,4.2,6.5s-3.9,2.8-6.1,3.2C990.4,295,977.7,295.8,977.7,295.3z"/>
		<g>
			<path class="st9" d="M980.2,295.3c-0.1,0.9-0.5,1.7-1.2,2.1c-0.6,0.3-0.7,0.3-0.4,0.2c0.1,0,0.1,0,0.2,0c0.5-0.1-0.8,0.1-0.3,0
				c0.7,0,1.3-0.1,1.9-0.2c0.1,0,0.1,0,0.2,0c2.8-0.2,5.5-0.2,8.2-0.3c13.1-0.2,26.3-0.2,39.4-0.2c13,0,26,0,39,0.1
				c1.2,0,2.3-1,2.5-2.2c0.1-1.1-0.5-2.6-1.8-2.7c-5.8-0.8-11.7-1.6-17.5-2.5c-3-0.4-6-0.8-9-1.3c-0.9-0.1-2-0.2-2.7-0.8
				c-2-1.5,0.7-3.9,2.1-4.9c1.7-1.3,3.6-2.4,5.4-3.6c1.9-1.3,3.8-2.5,5.8-3.8c2.8-1.9,5.7-3.9,8.5-5.8c0.9-0.6,1.2-1.9,0.5-2.8
				c-0.6-0.7-1.2-1.5-1.7-2.2c0.9-0.8,0.1-0.1-0.2,0.1c-0.6,0.4-1.3,0.8-1.9,1.3c-2,1.3-4.1,2.6-6.2,3.9c-5.1,3.1-10.4,6.3-16,8.3
				c-1.3,0.5-2.8,1-4.2,0.6c-1.1-0.3-1.7-1.2-2.1-2.1c-0.7-1.7-0.8-3.7-1.1-5.6c-0.7-4.5-1.4-9-2.1-13.4c-0.4-2.3-0.7-4.6-1.1-6.9
				c-0.2-1.1-0.2-3-1.1-3.8s-2.7-1.1-3.5,0c-0.9,1.2-0.7,2.4-0.8,3.8c0,2-0.1,4-0.3,6c-0.5,6.3-1.6,12.6-3.5,18.6
				c-0.4,1.1-0.7,2.1-1.3,3.1c-0.5,0.9-0.5,1-1.3,1.7c-0.5,0.4,0.4-0.2-0.1,0.1c-0.2,0.1-0.3,0.2-0.5,0.3c-0.1,0.1-0.3,0.1-0.4,0.2
				c-0.1,0.1-0.2,0.1-0.3,0.2c-0.3,0.2,0.7-0.2,0.3-0.1c-0.1,0-0.2,0.1-0.3,0.1c-0.2,0.1-0.4,0.1-0.6,0.2c-0.1,0-0.2,0-0.3,0.1
				c-0.3,0.1,0.7,0,0.2,0c-0.3,0-0.5,0-0.8,0c-0.2,0-0.4,0-0.5,0s-1-0.1-0.3,0c-2-0.3-3.8-1.1-5.6-2.1c-3.2-1.8-6.1-4-9.2-5.9
				c-2.7-1.6-5.4-3.3-8.1-5.1c-0.9-0.6-2.2-0.3-2.7,0.6c-0.2,0.3-0.4,0.7-0.6,1c-0.5,0.9-0.2,2,0.6,2.6c3.5,2.3,6.8,4.9,10.1,7.3
				c1.9,1.4,3.9,2.9,5.9,4.3c1.6,1.1,3.4,2,4.7,3.6c0.5,0.6,0.8,1.3,0.8,1.8c0-0.3,0.3-0.3-0.1-0.1c-0.3,0.2-0.4,0.3-0.8,0.5
				c-1.5,0.7-3.3,0.9-4.9,1.2c-4.2,0.8-8.5,1.3-12.8,1.7c-1.8,0.2-3.6,0.3-5.4,0.4c-0.6,0-1.2,0.1-1.9,0.1c-0.2,0-0.4,0-0.6,0h-0.2
				c-0.1-0.4,2.3,1.4,1.5,0.7c0.2,0.4,0.4,0.7,0.6,1.1c-1-3-5.8-1.7-4.8,1.3s5.9,1.9,8.3,1.7c5-0.4,10-1,15-1.8
				c3.9-0.7,11-1.4,11.1-6.7c0.1-5.5-6.3-8.5-10.1-11.2c-5.1-3.7-10-7.7-15.4-11.1c-2.7-1.8-5.2,2.5-2.5,4.3c3.1,2.1,6.2,4,9.4,5.9
				c2.9,1.8,5.6,3.9,8.5,5.6c3.6,2.1,7.8,4,12,3.2c2.8-0.5,5.2-2.4,6.5-5c1.5-2.7,2.3-5.8,3-8.8c0.9-3.5,1.5-7,1.9-10.5
				c0.4-3,0.6-5.9,0.7-8.9c0-0.9,0.1-1.9,0.1-2.8c0-0.5,0.2-1.8-0.1-0.5v0.1c-0.3,0.6-1,1-1.7,1h-1.3c-0.7,0-1.2-0.4-1.6-0.9
				c-0.1-0.1-0.1-0.1-0.1,0.1c0,0.2,0.1,0.5,0.1,0.7c0.1,0.7,0.2,1.4,0.3,2c0.4,2.1,0.7,4.3,1,6.5c0.7,4.6,1.4,9.3,2.1,13.9
				c0.3,2.2,0.6,4.3,1.6,6.4c1.7,3.7,5.4,5.2,9.3,4.6c3.1-0.5,6.2-2.1,9-3.5c2.9-1.5,5.8-3.1,8.6-4.7c2.6-1.5,5.2-3.1,7.8-4.8
				c1.2-0.8,2.5-1.6,3.7-2.5c2.2-1.8-0.6-5.4-3-3.9c-3.3,2-6.5,4.3-9.7,6.4c-3.6,2.4-7.3,4.8-10.9,7.2c-2.8,1.9-6,4.7-6.1,8.3
				c-0.2,3.5,2.8,6.4,6.1,7c6.5,1.1,13,1.8,19.5,2.7c2.1,0.3,4,0.6,6.1,0.8c1.1,0.1,2-0.6,2.2-1.6c0-0.3,0.1-0.5,0.1-0.8
				c0.2-1.2-0.7-2.2-1.9-2.2c-19.8-0.1-39.6-0.2-59.4-0.1c-8.4,0-16.8,0-25.1,0.4c-2.1,0.1-5,0-5.2,2.8c-0.1,1.3,1.2,2.5,2.5,2.5
				C979.2,297.8,980.1,296.7,980.2,295.3z"/>
		</g>
	</g>
	<g>
		<g>
			<path class="st9" d="M918.9,233.4c11.7,8.7,23.4,17.3,35.1,26c1.1,0.8,2.8,0.2,3.4-0.9c0.7-1.3,0.2-2.6-0.9-3.4
				c-11.7-8.7-23.4-17.3-35.1-26c-1.1-0.8-2.8-0.2-3.4,0.9C917.3,231.3,917.8,232.6,918.9,233.4L918.9,233.4z"/>
		</g>
	</g>
	<g>
		<g>
			<path class="st9" d="M938.8,230c6,5.4,11.7,11,17.1,16.9c0.9,1,2.6,0.9,3.5,0c1-1,0.9-2.5,0-3.5c-5.4-5.9-11.2-11.6-17.1-16.9
				c-1-0.9-2.5-1-3.5,0C937.9,227.4,937.8,229.1,938.8,230L938.8,230z"/>
		</g>
	</g>
	<g>
		<g>
			<path class="st9" d="M947.4,271c7.6,5,15.4,9.6,23.5,13.7c1.2,0.6,2.7,0.3,3.4-0.9c0.7-1.1,0.3-2.8-0.9-3.4
				c-8.1-4.1-16-8.7-23.5-13.7c-1.1-0.7-2.8-0.2-3.4,0.9C945.8,268.8,946.3,270.2,947.4,271L947.4,271z"/>
		</g>
	</g>
	<g>
		<g>
			<path class="st9" d="M979.2,191.7c3.3,14.5,7.7,28.8,13.1,42.7c0.5,1.3,1.7,2.1,3.1,1.7c1.2-0.3,2.2-1.8,1.7-3.1
				c-5.4-13.9-9.8-28.2-13.1-42.7C983.3,187.3,978.5,188.6,979.2,191.7L979.2,191.7z"/>
		</g>
	</g>
	<g>
		<g>
			<path class="st9" d="M997,249.8c1.8,5.1,3.7,10.1,5.5,15.2c0.5,1.4,2.2,2.4,3.7,1.5c0.4-0.2,0.7-0.5,1.1-0.7
				c1.1-0.7,1.7-2.2,0.9-3.4c-0.7-1.1-2.2-1.7-3.4-0.9c-0.4,0.2-0.7,0.5-1.1,0.7c1.2,0.5,2.4,1,3.7,1.5c-1.8-5.1-3.7-10.1-5.5-15.2
				c-0.4-1.2-1.7-2.2-3.1-1.7C997.5,247.1,996.5,248.5,997,249.8L997,249.8z"/>
		</g>
	</g>
	<g>
		<g>
			<path class="st9" d="M1017,176.8c0.7,16.7,1.4,33.5,2.1,50.2c0.2,4.8,0.4,9.6,0.6,14.4c0.1,3.2,5.1,3.2,5,0
				c-0.7-16.7-1.4-33.5-2.1-50.2c-0.2-4.8-0.4-9.6-0.6-14.4C1021.8,173.6,1016.8,173.6,1017,176.8L1017,176.8z"/>
		</g>
	</g>
	<g>
		<g>
			<path class="st9" d="M1008.5,207c0.6,12.8,1.1,25.5,1.7,38.3c0.1,3.2,5.1,3.2,5,0c-0.6-12.8-1.1-25.5-1.7-38.3
				C1013.4,203.8,1008.4,203.7,1008.5,207L1008.5,207z"/>
		</g>
	</g>
	<g>
		<g>
			<path class="st9" d="M896.2,280.8c31.7,4.6,63.5,9.2,95.2,13.7c8.9,1.3,17.8,2.6,26.6,3.8c1.3,0.2,2.7-0.3,3.1-1.7
				c0.3-1.2-0.4-2.9-1.7-3.1c-31.7-4.6-63.5-9.2-95.2-13.7c-8.9-1.3-17.8-2.6-26.6-3.8c-1.3-0.2-2.7,0.3-3.1,1.7
				C894.2,278.9,894.9,280.6,896.2,280.8L896.2,280.8z"/>
		</g>
	</g>
	<g>
		<g>
			<path class="st9" d="M1055.1,272.8c18.6-12.9,37.3-25.8,55.9-38.8c5.3-3.6,10.5-7.3,15.8-10.9c1.1-0.8,1.6-2.2,0.9-3.4
				c-0.6-1.1-2.3-1.7-3.4-0.9c-18.6,12.9-37.3,25.8-55.9,38.8c-5.3,3.6-10.5,7.3-15.8,10.9c-1.1,0.8-1.6,2.2-0.9,3.4
				C1052.3,273,1054,273.6,1055.1,272.8L1055.1,272.8z"/>
		</g>
	</g>
	<g>
		<g>
			<path class="st9" d="M1051.8,262.8c13.8-12.5,28.8-23.8,44.7-33.6c2.7-1.7,0.2-6-2.5-4.3c-16.2,10-31.6,21.6-45.7,34.4
				C1045.8,261.5,1049.4,265,1051.8,262.8L1051.8,262.8z"/>
		</g>
	</g>
	<g>
		<g>
			<path class="st9" d="M1063.7,170.2c-9.3,30.6-19.1,61-29.5,91.3c-2.9,8.5-5.9,17-8.9,25.6c-0.5,1.3,0.5,2.7,1.7,3.1
				c1.4,0.4,2.6-0.5,3.1-1.7c10.7-30.1,20.8-60.5,30.5-91c2.7-8.6,5.4-17.2,8-25.9C1069.4,168.5,1064.6,167.2,1063.7,170.2
				L1063.7,170.2z"/>
		</g>
	</g>
	<g>
		<g>
			<path class="st9" d="M1124.7,234.5c-7.6,2-14.9,5.1-21.5,9.3c-2.7,1.7-0.2,6,2.5,4.3c6.3-4,13.1-6.9,20.3-8.8
				C1129.2,238.5,1127.8,233.7,1124.7,234.5L1124.7,234.5z"/>
		</g>
	</g>
	<g>
		<g>
			<path class="st9" d="M1153.4,260.1c-30.9,7.1-61.9,14.2-92.8,21.3c-8.7,2-17.5,4-26.2,6c-3.1,0.7-1.8,5.5,1.3,4.8
				c30.9-7.1,61.9-14.2,92.8-21.3c8.7-2,17.5-4,26.2-6C1157.9,264.2,1156.5,259.4,1153.4,260.1L1153.4,260.1z"/>
		</g>
	</g>
	<g>
		<g>
			<path class="st9" d="M1045.4,295.7c29.2,0.9,58.3,1.8,87.5,2.7c8.2,0.2,16.4,0.5,24.7,0.7c-0.2-1.6-0.4-3.3-0.7-4.9
				c-1,0.2-2,0.4-2.9,0.6c-1.3,0.3-2.1,1.8-1.7,3.1c0.4,1.4,1.7,2,3.1,1.7c1-0.2,2-0.4,2.9-0.6c2.9-0.5,2.1-4.8-0.7-4.9
				c-29.2-0.9-58.3-1.8-87.5-2.7c-8.2-0.2-16.4-0.5-24.7-0.7C1042.2,290.6,1042.2,295.6,1045.4,295.7L1045.4,295.7z"/>
		</g>
	</g>
	<g>
		<g>
			<path class="st9" d="M899.1,298.1c31.1,0.6,62.2,0.3,93.2-0.8c8.8-0.3,17.6-0.7,26.4-1.2c3.2-0.2,3.2-5.2,0-5
				c-31,1.7-62.1,2.4-93.2,2.3c-8.8,0-17.6-0.1-26.4-0.3C895.9,293,895.9,298,899.1,298.1L899.1,298.1z"/>
		</g>
	</g>
	<g>
		<g>
			<path class="st9" d="M955.8,200.9c-0.2-0.9-0.4-1.7-0.7-2.6c-1.5,0.6-3,1.3-4.6,1.9c14.8,24.8,30.8,48.9,47.7,72.3
				c4.8,6.6,9.7,13.2,14.7,19.8c0.8,1.1,2.2,1.6,3.4,0.9c1.1-0.6,1.7-2.3,0.9-3.4c-17.6-23-34.1-46.7-49.5-71.1
				c-4.4-6.9-8.7-13.9-12.9-21c-1.5-2.4-5.3-0.8-4.6,1.9c0.2,0.9,0.4,1.7,0.7,2.6C951.8,205.3,956.6,204,955.8,200.9L955.8,200.9z"
				/>
		</g>
	</g>
	<g>
		<g>
			<path class="st9" d="M949.6,255.2c15.5,12,31.3,23.7,47.3,35.1c4.5,3.2,9,6.4,13.5,9.5c1.1,0.8,2.8,0.2,3.4-0.9
				c0.7-1.2,0.2-2.6-0.9-3.4c-16.1-11.2-32-22.8-47.6-34.6c-4.4-3.3-8.8-6.7-13.1-10c-1.1-0.8-2.8-0.2-3.4,0.9
				C947.9,253.1,948.5,254.4,949.6,255.2L949.6,255.2z"/>
		</g>
	</g>
	<g>
		<g>
			<path class="st9" d="M1069.6,184.3c-4.4,12.1-8.8,24.3-13.2,36.4c-0.5,1.3,0.5,2.7,1.7,3.1c1.4,0.4,2.6-0.5,3.1-1.7
				c4.4-12.1,8.8-24.3,13.2-36.4c0.5-1.3-0.5-2.7-1.7-3.1C1071.3,182.2,1070,183.1,1069.6,184.3L1069.6,184.3z"/>
		</g>
	</g>
	<g>
		<g>
			<path class="st9" d="M1122.4,280.8c13.2-3.3,26.6-5.6,40.2-6.8c1.3-0.1,2.5-1.1,2.5-2.5c0-1.4-1.1-2.5-2.5-2.5
				c-0.6,0-1.2,0-1.8,0c-3.2,0-3.2,5,0,5c0.6,0,1.2,0,1.8,0c0-1.7,0-3.3,0-5c-14,1.2-27.9,3.6-41.5,7
				C1117.9,276.8,1119.3,281.6,1122.4,280.8L1122.4,280.8z"/>
		</g>
	</g>
	<g>
		<g>
			<path class="st9" d="M1044,292.2c20.6-0.9,41.1-3.3,61.2-7.3c5.7-1.1,11.4-2.4,17-3.8c3.1-0.8,1.8-5.6-1.3-4.8
				c-19.6,4.8-39.6,8.1-59.8,9.8c-5.7,0.5-11.4,0.8-17.2,1.1C1040.8,287.3,1040.8,292.3,1044,292.2L1044,292.2z"/>
		</g>
	</g>
	<g>
		<g>
			<path class="st9" d="M1069.9,275.3c9.9-3,19.9-6.1,29.8-9.1c3.1-0.9,1.8-5.8-1.3-4.8c-9.9,3-19.9,6.1-29.8,9.1
				C1065.5,271.4,1066.8,276.3,1069.9,275.3L1069.9,275.3z"/>
		</g>
	</g>
	<g>
		<g>
			<path class="st9" d="M943.1,203.9c0.8-0.2,1.5-0.4,2.3-0.5c0.8-0.1-0.5,0,0.3,0c0.2,0,0.3,0,0.5,0c0.4,0,0.9-0.1,1.3-0.1
				c0.8,0,1.6,0,2.3,0.1c0.2,0,0.4,0,0.6,0.1c0.1,0,0.2,0,0.2,0c-0.2,0-0.3,0-0.1,0c0.4,0.1,0.8,0.1,1.3,0.2
				c1.1,0.2,2.3-0.1,2.8-1.1c0.5-1,0.4-2.2-0.4-3c-0.1-0.1-0.2-0.2-0.3-0.3c0.2,0.3,0.2,0.3,0,0.1c-0.1-0.2-0.2-0.3-0.3-0.5
				c-0.1-0.1-0.1-0.2-0.2-0.3c0.1,0.3,0.1,0.3,0,0.1c-0.1-0.2-0.1-0.4-0.2-0.5c0-0.1-0.1-0.2-0.1-0.4c0,0.4,0,0.4,0,0.1
				c0-0.2,0-0.4,0-0.6c0-0.1,0.1-0.8,0-0.4c-0.1,0.4,0.1-0.3,0.1-0.4c0-0.1,0.1-0.2,0.1-0.3c0,0.1-0.1,0.2-0.1,0.3
				c0-0.2,0.2-0.5,0.3-0.6c0,0,0.3-0.4,0.3-0.4c-0.2,0.3-0.2,0.3-0.1,0.1c0.1-0.1,0.2-0.2,0.2-0.3c0,0,0.4-0.3,0.4-0.4
				c-0.3,0.2-0.3,0.2-0.1,0.1c0.1-0.1,0.2-0.1,0.3-0.2c0.2-0.1,0.3-0.2,0.5-0.3c0.3-0.1,0.2-0.1-0.1,0c0.1,0,0.2-0.1,0.3-0.1
				c1.2-0.4,2.2-1.8,1.7-3.1c-0.4-1.2-1.7-2.2-3.1-1.7c-2.7,0.9-4.8,2.9-5.6,5.6c-0.8,2.8,0,5.9,2,8.1c0.8-1.4,1.6-2.8,2.4-4.2
				c-3.8-0.8-7.6-0.7-11.3,0.3c-1.3,0.3-2.2,1.8-1.7,3.1C940.4,203.4,941.7,204.2,943.1,203.9L943.1,203.9z"/>
		</g>
	</g>
	<g>
		<g>
			<path class="st9" d="M958,188.5c-3.4,2.8-5.9,6.9-6.7,11.3c-0.2,1.3,0.4,2.8,1.7,3.1c1.2,0.3,2.8-0.4,3.1-1.7
				c0.2-1,0.4-1.9,0.8-2.8c0-0.1,0.1-0.2,0.1-0.4c0.1-0.3-0.2,0.5-0.1,0.2c0.1-0.2,0.2-0.4,0.3-0.7c0.2-0.5,0.5-0.9,0.7-1.3
				c0.2-0.4,0.5-0.8,0.8-1.2c0.1-0.1,0.1-0.2,0.2-0.3c0.2-0.3-0.3,0.4,0,0.1c0.2-0.2,0.3-0.4,0.5-0.6c0.7-0.8,1.4-1.4,2.1-2.1
				c1-0.8,0.9-2.7,0-3.5C960.5,187.5,959.1,187.6,958,188.5L958,188.5z"/>
		</g>
	</g>
	<g>
		<g>
			<path class="st9" d="M1011.7,175c0.7-0.1,1.4,0,2,0c0.3,0-0.3-0.1,0.2,0c0.2,0,0.3,0.1,0.5,0.1c0.4,0.1,0.7,0.2,1,0.3
				c0.2,0.1,0.3,0.1,0.5,0.2c0.4,0.2-0.3-0.1,0.1,0c0.3,0.2,0.6,0.3,1,0.5c0.3,0.2,0.5,0.3,0.8,0.5c-0.3-0.2,0.1,0.1,0.2,0.1
				c0.2,0.1,0.3,0.3,0.4,0.4c1.3,1.2,3.8,0.8,4.2-1.1c0.1-0.3,0.2-0.7,0.3-1c-0.1,0.2-0.1,0.3,0,0c0.1-0.1,0.2-0.3,0.3-0.4
				c0.1-0.1,0.4-0.4,0-0.1c0.1-0.1,0.2-0.2,0.3-0.3c0.1-0.1,0.2-0.2,0.4-0.4c0.1-0.1,0.5-0.3,0.1-0.1c0.3-0.2,0.5-0.3,0.8-0.5
				c0.1-0.1,0.5-0.2,0.1,0c0.1,0,0.3-0.1,0.4-0.1c0.2,0,0.3-0.1,0.5-0.1c0.2,0,0.5,0,0,0c0.1,0,0.3,0,0.4,0c0.1,0,0.8,0.1,0.2,0
				c1.3,0.2,2.7-0.3,3.1-1.7c0.3-1.2-0.4-2.9-1.7-3.1c-2.2-0.3-4.4,0-6.2,1.3c-1.8,1.2-3.1,3-3.6,5.2c1.4-0.4,2.8-0.7,4.2-1.1
				c-2.7-2.6-6.4-4-10.1-3.7c-1.3,0.1-2.6,1.1-2.5,2.5C1009.3,173.8,1010.3,175.1,1011.7,175L1011.7,175z"/>
		</g>
	</g>
	<g>
		<g>
			<path class="st9" d="M1063.3,170.9c-0.4-0.4-0.8-0.8-1.2-1.2c-1.8-1.8-4.8,0.1-4.2,2.4c0.8,3.2,1.6,6.4,2.4,9.5
				c0.5,1.8,2.9,2.4,4.2,1.1c0.3-0.3,0.6-0.7,1-0.9c-0.3,0.2-0.3,0.2-0.1,0.1c0.1-0.1,0.2-0.1,0.3-0.2c0.2-0.1,0.3-0.2,0.5-0.3
				c0.2-0.1,0.4-0.2,0.7-0.3c0.5-0.2-0.4,0.1,0.1,0c0.4-0.1,0.8-0.3,1.3-0.4c0.2,0,0.4-0.1,0.6-0.1c0.1,0,0.2,0,0.4-0.1
				c-0.4,0-0.4,0.1-0.1,0c0.4,0,0.9-0.1,1.3,0c0.2,0,0.4,0,0.6,0c0.3,0,0.3,0-0.1,0c0.1,0,0.2,0,0.4,0.1c0.4,0.1,0.9,0.2,1.3,0.3
				c1.2,0.4,2.8-0.5,3.1-1.7c0.3-1.4-0.4-2.6-1.7-3.1c-4.5-1.5-9.6-0.1-12.9,3.2c1.4,0.4,2.8,0.7,4.2,1.1c-0.8-3.2-1.6-6.4-2.4-9.5
				c-1.4,0.8-2.8,1.6-4.2,2.4c0.4,0.4,0.8,0.8,1.2,1.2c0.9,0.9,2.6,1,3.5,0C1064.3,173.4,1064.3,171.9,1063.3,170.9L1063.3,170.9z"
				/>
		</g>
	</g>
	<g>
		<g>
			<path class="st9" d="M1124.2,210.5c-0.6,3.3-1.1,6.7-1.7,10c-0.3,1.7,0.7,3,2.4,3.2c0.7,0.1-0.3-0.1,0.1,0c0.2,0,0.4,0.1,0.6,0.1
				c0.4,0.1,0.8,0.2,1.1,0.3c0.4,0.1,0.8,0.2,1.1,0.3c0.2,0.1,0.4,0.1,0.5,0.2c0.4,0.1-0.5-0.2,0.2,0.1c0.7,0.3,1.3,0.7,2,1
				c0.3,0.2,0.6,0.4,1,0.7c0.2,0.1-0.2-0.2,0.1,0.1c0.2,0.2,0.4,0.3,0.5,0.5c1,0.9,2.6,1,3.5,0c0.9-0.9,1-2.6,0-3.5
				c-3.1-2.7-6.8-4.3-10.8-4.7c0.8,1.1,1.6,2.1,2.4,3.2c0.6-3.3,1.1-6.7,1.7-10c0.2-1.3-0.3-2.8-1.7-3.1
				C1126.1,208.5,1124.4,209.1,1124.2,210.5L1124.2,210.5z"/>
		</g>
	</g>
	<g>
		<g>
			<path class="st9" d="M1149,254.7c-3.2,5.7-1.1,13.3,4.4,16.7c1.1,0.7,2.8,0.3,3.4-0.9c0.6-1.2,0.3-2.7-0.9-3.4
				c-0.2-0.1-0.6-0.3-0.7-0.5c0.3,0.2,0.3,0.2,0.2,0.1c0,0-0.1-0.1-0.1-0.1c-0.1-0.1-0.2-0.2-0.3-0.3c-0.2-0.2-0.4-0.4-0.6-0.6
				c-0.1-0.1-0.3-0.3-0.3-0.4c0.1,0.1,0.3,0.4,0.1,0.1c-0.3-0.5-0.6-1-0.9-1.5c0-0.1-0.1-0.2-0.1-0.2c-0.1-0.2,0-0.1,0.1,0.2
				c-0.1-0.1-0.1-0.2-0.1-0.3c-0.1-0.3-0.2-0.6-0.3-0.9c-0.1-0.3-0.1-0.6-0.2-0.8c0-0.1,0-0.1,0-0.2c0-0.2,0-0.1,0,0.2
				c-0.1-0.1,0-0.3,0-0.4c0-0.6,0-1.2,0-1.7c0-0.1,0-0.1,0-0.2c0-0.2,0-0.1,0,0.2c0-0.1,0.1-0.4,0.1-0.4c0.1-0.3,0.1-0.6,0.2-0.8
				c0-0.1,0.1-0.3,0.1-0.4c0-0.1,0.2-0.6,0.1-0.2c-0.1,0.4,0.1-0.1,0.1-0.2c0.1-0.2,0.2-0.3,0.2-0.5c0.6-1.1,0.3-2.8-0.9-3.4
				C1151.2,253.2,1149.6,253.5,1149,254.7L1149,254.7z"/>
		</g>
	</g>
	<g>
		<g>
			<path class="st9" d="M898.3,264.8c-0.4,2.4-0.3,4.7-0.1,7c0.2,2,0.4,4.1-0.1,6.1c-0.5,2.1-1.4,4.1-2.1,6.1
				c-0.8,2.3-1.6,4.5-2.4,6.8c-0.5,1.3,0.5,2.7,1.7,3.1c1.4,0.4,2.6-0.5,3.1-1.7c0.8-2.3,1.6-4.5,2.4-6.8c0.7-2,1.6-4,2.1-6.1
				c0.5-2.1,0.5-4.3,0.4-6.5c-0.2-2.2-0.5-4.5-0.2-6.6c0.2-1.3-0.3-2.7-1.7-3.1C900.2,262.7,898.5,263.4,898.3,264.8L898.3,264.8z"
				/>
		</g>
	</g>

<animateMotion path="M 0 0 L 40 20 Z" dur="5s" repeatCount="indefinite" />
</g>



<g>
	<path class="st10" d="M418.8,547.4v108.5c0,48.9-31.5,57.3-70.3,57.3h-35.2c-38.9,0-70.3-8.4-70.3-57.3V547.4
		c0-34.1,15.3-47.7,37.7-52.8v-41.8c0-5.5,6-9.9,13.4-9.9h73.7c7.4,0,13.4,4.5,13.4,9.9v41.8C403.5,499.7,418.8,513.3,418.8,547.4z"
		/>
	
		<linearGradient id="svg_8_00000021824480686299693510000006384712107678536124_" gradientUnits="userSpaceOnUse" x1="260.4812" y1="610.225" x2="401.178" y2="610.225">
		<stop  offset="0" style="stop-color:#F5F6F7"/>
		<stop  offset="0.4995" style="stop-color:#E7EDF2"/>
		<stop  offset="1" style="stop-color:#F5F6F7"/>
	</linearGradient>
	
		<path id="svg_8_00000107586270793937027040000002923070422670672003_" style="fill:url(#svg_8_00000021824480686299693510000006384712107678536124_);" d="
		M401.2,525.2v111.3c0,50.2-25.2,58.8-56.3,58.8h-28.1c-31.1,0-56.3-8.6-56.3-58.8V525.2H401.2z"/>
	<path id="svg_1_00000044136693357418288730000000078108595650415021_" class="st12" d="M237.6,534.1h122.7
		c12.3,0,22.3,7.8,22.3,17.4v95.8c0,9.6-10,17.4-22.3,17.4H237.6V534.1z"/>
	<g>
		<g>
			<g>
				<path class="st13" d="M308.6,623.7c-0.6,1.8-1.2,3.6-1.8,5.4c-0.3,1-0.7,2-0.4,3.1c0.3,1.2,1.3,2.2,2.5,2.5
					c0.9,0.2,1.9,0.1,2.8,0c1,0,1.9-0.1,2.9-0.1c1.9-0.1,3.7-0.2,5.6-0.3c1.3-0.1,2.5-1.1,2.4-2.4c-0.1-1.2-1.1-2.5-2.4-2.4
					c-3.2,0.2-6.4,0.3-9.7,0.5c-0.2,0-0.3,0-0.5,0c-0.4,0-0.1,0,0.1,0c-0.2-0.1-0.2,0,0,0c0.3,0.1,0.5,0.3,0.7,0.6
					c0.2,0.3,0.1,0.5,0.2,0.8c0,0.4,0,0,0-0.2c0-0.2,0.1-0.4,0.2-0.5c0.1-0.4,0.2-0.7,0.4-1.1c0.5-1.6,1.1-3.2,1.6-4.7
					c0.4-1.2-0.5-2.7-1.7-3C310.3,621.7,309.1,622.4,308.6,623.7L308.6,623.7z"/>
			</g>
		</g>
		<g>
			<g>
				<path class="st13" d="M314.4,625.3c-0.5,6.4-0.3,12.9,0.6,19.3c0.2,1.3,1.8,2,3,1.7c1.4-0.4,1.9-1.7,1.7-3
					c-0.8-5.9-0.9-12-0.4-18c0.1-1.3-1.2-2.4-2.4-2.4C315.4,622.9,314.5,624,314.4,625.3L314.4,625.3z"/>
			</g>
		</g>
		<g>
			<g>
				<path class="st13" d="M309,641c5,0.2,10.1,0.3,15.1,0.5c1.3,0,2.5-1.1,2.4-2.4c-0.1-1.3-1.1-2.4-2.4-2.4
					c-5-0.2-10.1-0.3-15.1-0.5c-1.3,0-2.5,1.1-2.4,2.4C306.7,639.9,307.6,641,309,641L309,641z"/>
			</g>
		</g>
		<g>
			<g>
				<path class="st13" d="M323.3,624.8c-0.2,3.4-0.3,6.8-0.5,10.2c-0.1,1.3,1.1,2.5,2.4,2.4c1.4-0.1,2.3-1.1,2.4-2.4
					c0.2-3.4,0.3-6.8,0.5-10.2c0.1-1.3-1.1-2.5-2.4-2.4C324.3,622.5,323.3,623.5,323.3,624.8L323.3,624.8z"/>
			</g>
		</g>
		<g>
			<g>
				<path class="st13" d="M326.5,633.2c1.8-0.4,3.6-0.9,5.4-1.3c0.5-0.1,0.9-0.2,1.4-0.3c0.1,0,0.2,0,0.2,0c0.2,0,0.1,0-0.2,0
					c0-0.1,0.9,0.1,0-0.1c0,0,0.1,0,0.1,0c-0.7-0.2-1.1-0.7-1.1-1.5c0-0.1,0-0.2,0-0.2c0,0.1-0.1,0.2-0.1,0.3
					c-0.1,0.4-0.3,0.9-0.5,1.3c-0.1,0.4-0.3,0.8-0.5,1.2c-0.1,0.2-0.2,0.4-0.3,0.6c0.2-0.4-0.1,0.2-0.1,0.3
					c-0.4,0.8-0.7,1.6-1.1,2.4c-0.8,1.6-1.7,3.1-2.6,4.6c-0.7,1.1-0.3,2.7,0.9,3.3c1.2,0.6,2.6,0.3,3.3-0.9c1.1-1.8,2.2-3.6,3.1-5.6
					c0.5-1.1,1-2.2,1.4-3.3c0.4-0.9,0.8-1.9,1.1-2.9c0.4-1.6-0.1-3.2-1.5-4c-1.1-0.6-2.5-0.5-3.6-0.2c-2.2,0.5-4.4,1.1-6.6,1.6
					c-1.2,0.3-2.1,1.7-1.7,3C324,632.8,325.2,633.5,326.5,633.2L326.5,633.2z"/>
			</g>
		</g>
		<g>
			<g>
				<path class="st13" d="M326.9,637.8c3.9,2.3,7.7,4.6,11.6,6.9c1.1,0.6,2.7,0.3,3.3-0.9c0.6-1.2,0.3-2.6-0.9-3.3
					c-3.9-2.3-7.7-4.6-11.6-6.9c-1.1-0.6-2.7-0.3-3.3,0.9C325.4,635.7,325.7,637.1,326.9,637.8L326.9,637.8z"/>
			</g>
		</g>
		<g>
			<g>
				<path class="st13" d="M340.7,629.3c3.2,0.1,6.4,0.2,9.7,0.2c1.3,0,2.5-1.1,2.4-2.4c-0.1-1.3-1.1-2.4-2.4-2.4
					c-3.2-0.1-6.4-0.2-9.7-0.2c-1.3,0-2.5,1.1-2.4,2.4C338.4,628.2,339.4,629.2,340.7,629.3L340.7,629.3z"/>
			</g>
		</g>
		<g>
			<g>
				<path class="st13" d="M343,622.6c0.3,3.7,0.7,7.4,1,11.1c0.1,1.2,1,2.5,2.4,2.4c1.2-0.1,2.5-1.1,2.4-2.4
					c-0.3-3.7-0.7-7.4-1-11.1c-0.1-1.2-1-2.5-2.4-2.4C344.2,620.3,342.9,621.3,343,622.6L343,622.6z"/>
			</g>
		</g>
		<g>
			<g>
				<path class="st13" d="M341.7,638.9c3.2-0.4,6.4-0.7,9.7-1.1c0.7-0.1,1.2-0.2,1.7-0.7c0.4-0.4,0.7-1.1,0.7-1.7
					c-0.1-1.2-1.1-2.5-2.4-2.4c-3.2,0.4-6.4,0.7-9.7,1.1c-0.7,0.1-1.2,0.2-1.7,0.7c-0.4,0.4-0.7,1.1-0.7,1.7
					C339.4,637.7,340.4,639.1,341.7,638.9L341.7,638.9z"/>
			</g>
		</g>
		<g>
			<g>
				<path class="st13" d="M352.4,620.4c-0.8,3.7-1.3,7.7,1.2,10.9c1.1,1.4,2.8,2.2,4.5,2.6c1.5,0.3,3.1,0.6,4.7,0.5
					c3.4-0.1,6.8-1.8,7.6-5.3c0.7-3.5-1-7-4.1-8.8c-3.8-2.1-8.1-1.5-12.2-0.7c-1.2,0.3-2.1,1.8-1.7,3c0.4,1.3,1.6,2,3,1.7
					c0.7-0.2,1.4-0.3,2.1-0.4c0.9-0.1,1-0.2,2-0.2c0.7,0,1.3,0,2,0.1c-0.5,0,0.2,0,0.4,0.1c0.3,0.1,0.7,0.2,1,0.3
					c0.1,0,0.3,0.1,0.4,0.1c0.6,0.2-0.3-0.2,0.1,0c0.2,0.1,0.5,0.2,0.7,0.4c0.1,0.1,0.3,0.2,0.4,0.3c0.1,0.1,0.3,0.3,0,0
					c0.2,0.2,0.5,0.5,0.7,0.7c0.1,0.1,0.2,0.4,0,0c0.1,0.1,0.1,0.2,0.2,0.3c0.1,0.2,0.3,0.8,0.2,0.3c0.1,0.2,0.2,0.5,0.2,0.7
					c0,0,0.1,0.6,0.1,0.2c0-0.4,0,0.2,0,0.2c0,0.1,0,0.3,0,0.4c0,0.6,0.1-0.3,0,0c-0.1,0.2-0.1,0.5-0.2,0.7c-0.1,0.3,0.3-0.4,0,0
					c-0.1,0.1-0.1,0.2-0.2,0.3c0.1-0.1,0.3-0.3,0,0c-0.1,0.1-0.3,0.2-0.4,0.4c0.4-0.3-0.1,0-0.2,0.1c-0.1,0-0.2,0.2-0.3,0.2
					c0.4,0,0.3-0.1,0.1,0c-0.3,0.1-0.5,0.2-0.8,0.2c-0.1,0-0.2,0-0.4,0.1c-0.3,0.1,0.5,0,0,0c-0.6,0-1.1,0-1.7,0
					c-0.3,0-0.5,0-0.8-0.1c-0.2,0-0.3,0.1,0.1,0c-0.1,0-0.4-0.1-0.6-0.1c-0.6-0.1-1.2-0.2-1.7-0.4c-0.1,0-0.3-0.1-0.4-0.1
					c0.4,0.2,0,0-0.1-0.1c-0.1-0.1-0.2-0.2-0.4-0.2c-0.2-0.1,0.2,0.2-0.1-0.1c-0.1-0.1-0.2-0.2-0.3-0.3c-0.2-0.2-0.2-0.3,0,0
					c-0.2-0.3-0.3-0.6-0.5-0.9c0.2,0.4,0.1,0.1,0,0c-0.1-0.2-0.1-0.4-0.2-0.6c0-0.1-0.1-0.3-0.1-0.4c0-0.1,0-0.7,0-0.1
					c0-0.4,0-0.8,0-1.2c0-0.2,0-0.3,0-0.5c0-0.1,0.1-0.8,0-0.4c0.1-0.8,0.3-1.7,0.5-2.5c0.3-1.2-0.4-2.7-1.7-3
					C354.2,618.4,352.7,619.1,352.4,620.4L352.4,620.4z"/>
			</g>
		</g>
		<g>
			<g>
				<path class="st13" d="M357.6,628.2c2.5,0.3,5,0.6,7.4,1c0.6,0.1,1.3-0.3,1.7-0.7c0.4-0.4,0.7-1.1,0.7-1.7c0-0.6-0.2-1.3-0.7-1.7
					c-0.2-0.1-0.3-0.3-0.5-0.4c-0.4-0.2-0.8-0.3-1.2-0.3c-2.5-0.3-5-0.6-7.4-1c-0.6-0.1-1.3,0.3-1.7,0.7c-0.4,0.4-0.7,1.1-0.7,1.7
					c0,0.6,0.2,1.3,0.7,1.7c0.2,0.1,0.3,0.3,0.5,0.4C356.7,628.1,357.1,628.2,357.6,628.2L357.6,628.2z"/>
			</g>
		</g>
		<g>
			<g>
				<path class="st13" d="M353.8,628.3c-0.4,1.2-0.8,2.3-1.2,3.5c-0.1,0.3-0.1,0.6,0,1c0,0.3,0.1,0.6,0.3,0.9c0.3,0.5,0.9,1,1.4,1.1
					c0.6,0.1,1.3,0.1,1.8-0.2c0.2-0.1,0.3-0.3,0.5-0.4c0.3-0.3,0.5-0.7,0.6-1.1c0.4-1.2,0.8-2.3,1.2-3.5c0.1-0.3,0.1-0.6,0-1
					c0-0.3-0.1-0.6-0.3-0.9c-0.3-0.5-0.9-1-1.4-1.1c-0.6-0.1-1.3-0.1-1.8,0.2c-0.2,0.1-0.3,0.3-0.5,0.4
					C354.1,627.5,353.9,627.8,353.8,628.3L353.8,628.3z"/>
			</g>
		</g>
		<g>
			<g>
				<path class="st13" d="M354.9,635.6c3.1,0.2,6.1,0.8,9.2,1.8c-0.2-1.5-0.4-2.9-0.6-4.4c-0.8,0.6-1.9,1.2-2.6,1.5
					c-0.9,0.4-2.2,0.7-2.8,0.8c-1.3,0.1-2.4,1-2.4,2.4c0,1.2,1.1,2.5,2.4,2.4c2.9-0.2,5.9-0.1,8.8,0.3c0.5,0.1,1.2,0.2,1.8,0.3
					c0.3,0.1,0.5,0.1,0.8,0.2c0.3,0.1,0.3,0.1,0.1,0c0.3,0.1,0.3,0.2,0.1,0.1c0,0-0.4-0.7-0.2-0.2c0-0.3,0-0.4,0-0.1
					c0.1-0.3,0.1-0.3,0-0.1c-0.1,0.4,0.2-0.3-0.1,0.1c0.2-0.3,0.5-0.4,0-0.2c-1.2,0.5-1.5,2.3-0.9,3.3c0.7,1.2,2.1,1.4,3.3,0.9
					c1.6-0.7,2.6-2.7,2.4-4.4c-0.2-2.3-1.9-3.7-4-4.2c-3.9-0.9-8.1-1.1-12.1-0.8c0,1.6,0,3.2,0,4.8c2.8-0.3,5.5-1.2,7.8-2.9
					c1.7-1.2,1.5-3.7-0.6-4.4c-3.4-1.1-6.9-1.7-10.4-1.9c-1.3-0.1-2.4,1.2-2.4,2.4C352.5,634.5,353.6,635.5,354.9,635.6L354.9,635.6
					z"/>
			</g>
		</g>
		<g>
			<g>
				<path class="st13" d="M357.1,636.9c-1.2,1-2.5,2-3.7,3c-0.2,0.2-0.4,0.5-0.5,0.8c-0.2,0.3-0.2,0.6-0.2,0.9
					c0,0.6,0.3,1.3,0.7,1.7c0.5,0.4,1.1,0.7,1.7,0.7c0.2,0,0.4-0.1,0.6-0.1c0.4-0.1,0.8-0.3,1.1-0.6c1.2-1,2.5-2,3.7-3
					c0.2-0.2,0.4-0.5,0.5-0.8c0.2-0.3,0.2-0.6,0.2-0.9c0-0.6-0.3-1.3-0.7-1.7c-0.5-0.4-1.1-0.7-1.7-0.7c-0.2,0-0.4,0.1-0.6,0.1
					C357.8,636.4,357.4,636.6,357.1,636.9L357.1,636.9z"/>
			</g>
		</g>
		<g>
			<g>
				<path class="st13" d="M366.1,635.8c-3,1.6-5.5,3.9-7.4,6.7c-0.3,0.5-0.4,1.3-0.2,1.8c0.2,0.6,0.6,1.2,1.1,1.4
					c1.2,0.6,2.5,0.3,3.3-0.9c0.2-0.3,0.4-0.6,0.7-1c-0.1,0.2-0.3,0.3-0.4,0.5c0.9-1.2,2-2.3,3.2-3.2c-0.2,0.1-0.3,0.3-0.5,0.4
					c0.8-0.6,1.7-1.2,2.6-1.7c1.1-0.6,1.5-2.2,0.9-3.3C368.6,635.5,367.3,635.2,366.1,635.8L366.1,635.8z"/>
			</g>
		</g>
		<g>
			<g>
				<path class="st13" d="M256.8,622.5c-0.4,3-0.2,6.1,0.5,9.1c0.3,1.2,1.8,2.1,3,1.7c1.3-0.4,2-1.6,1.7-3c-0.2-0.7-0.3-1.5-0.4-2.2
					c0,0.2,0.1,0.4,0.1,0.6c-0.3-2.1-0.3-4.2,0-6.3c0.1-0.6-0.3-1.3-0.7-1.7c-0.4-0.4-1.1-0.7-1.7-0.7c-0.6,0-1.3,0.2-1.7,0.7
					C257.1,621.3,256.9,621.8,256.8,622.5L256.8,622.5z"/>
			</g>
		</g>
		<g>
			<g>
				<path class="st13" d="M265.3,622.2c-1.5,1.8-3.2,3.5-5,4.9c-0.7,0.5-0.8,1.6-0.6,2.3c0.2,0.9,0.9,1.4,1.7,1.7
					c2.2,0.8,4.6,1.2,6.9,1.1c0.6,0,1.3-0.3,1.7-0.7c0.4-0.4,0.7-1.1,0.7-1.7c-0.1-1.3-1.1-2.4-2.4-2.4c-0.9,0-1.8,0-2.7-0.1
					c0.2,0,0.4,0.1,0.6,0.1c-1.2-0.2-2.4-0.5-3.6-0.9c0.4,1.3,0.7,2.7,1.1,4c1.9-1.5,3.5-3.1,5-4.9c0.4-0.5,0.7-1,0.7-1.7
					c0-0.6-0.3-1.3-0.7-1.7c-0.5-0.4-1.1-0.7-1.7-0.7C266.4,621.5,265.7,621.7,265.3,622.2L265.3,622.2z"/>
			</g>
		</g>
		<g>
			<g>
				<path class="st13" d="M269,621c-0.1,3.1,0.3,6.3,1.1,9.4c0.3,1.2,1.7,2.1,3,1.7c1.2-0.4,2-1.7,1.7-3c-0.2-0.7-0.4-1.4-0.5-2.1
					c-0.1-0.4-0.1-0.7-0.2-1.1c0-0.1,0-0.2,0-0.2c0-0.3,0-0.2,0,0.1c-0.1-0.1,0-0.3-0.1-0.5c-0.2-1.4-0.2-2.9-0.2-4.3
					c0-1.3-1.1-2.5-2.4-2.4C270,618.6,269,619.6,269,621L269,621z"/>
			</g>
		</g>
		<g>
			<g>
				<path class="st13" d="M276.1,622C276.1,622,276.1,622,276.1,622c0.1-0.1,0.2-0.2,0.3-0.4C276.3,621.7,276.2,621.8,276.1,622
					c0.1-0.1,0.2-0.3,0.4-0.4c-0.9,0.7-2,1-2.9,1.9c-1.2,1.3-1.8,3.3-0.8,4.9c0.6,0.8,1.4,1.4,2.4,1.6c0.6,0.1,1.1,0.2,1.7,0.3
					c1.3,0.2,2.6,0.4,3.9,0.5c0.7,0.1,1.2,0.1,1.8-0.2c0.5-0.3,1-0.9,1.1-1.4c0.1-0.6,0.1-1.3-0.2-1.8c-0.3-0.5-0.8-1-1.4-1.1
					c-1-0.1-2.1-0.3-3.1-0.4c-0.5-0.1-1-0.1-1.5-0.2c-0.4-0.1-0.8-0.1-1.2-0.3c0.2,0.1,0.4,0.2,0.6,0.2c-0.1-0.1-0.3-0.1-0.4-0.2
					c0.2,0.1,0.3,0.3,0.5,0.4c-0.1-0.1-0.1-0.1-0.2-0.2c0.1,0.2,0.3,0.3,0.4,0.5c-0.1-0.1-0.1-0.1-0.1-0.2c0.1,0.2,0.2,0.4,0.2,0.6
					c0-0.1-0.1-0.2-0.1-0.3c0,0.2,0.1,0.4,0.1,0.6c0-0.1,0-0.2,0-0.3c0,0.2-0.1,0.4-0.1,0.6c0-0.1,0.1-0.3,0.1-0.4
					c-0.1,0.2-0.2,0.4-0.2,0.6c0.1-0.2,0.2-0.3,0.3-0.5c-0.1,0.2-0.3,0.3-0.4,0.5c0.1-0.2,0.3-0.3,0.5-0.5c-0.2,0.1-0.3,0.3-0.5,0.4
					c0.4-0.3,1-0.6,1.4-0.8c0.2-0.1,0.5-0.3,0.7-0.4c0.6-0.4,0.9-0.8,1.3-1.3c0.4-0.5,0.4-1.3,0.2-1.8c-0.2-0.6-0.6-1.2-1.1-1.4
					c-0.6-0.3-1.2-0.4-1.8-0.2c-0.2,0.1-0.4,0.2-0.6,0.2C276.6,621.3,276.3,621.6,276.1,622L276.1,622z"/>
			</g>
		</g>
		<g>
			<g>
				<path class="st13" d="M263.9,636.9c4.5-0.5,9.1-0.6,13.6-0.4c1.3,0.1,2.5-1.2,2.4-2.4c-0.1-1.4-1.1-2.3-2.4-2.4
					c-4.6-0.3-9.1-0.1-13.6,0.4c-1.2,0.1-2.5,1-2.4,2.4C261.5,635.7,262.5,637,263.9,636.9L263.9,636.9z"/>
			</g>
		</g>
		<g>
			<g>
				<path class="st13" d="M268.4,629.6c0.1,6.2,0.9,12.3,2.6,18.2c0.4,1.2,1.7,2,3,1.7c1.2-0.3,2-1.7,1.7-3
					c-1.6-5.5-2.4-11.2-2.4-16.9C273.1,626.5,268.3,626.5,268.4,629.6L268.4,629.6z"/>
			</g>
		</g>
		<g>
			<g>
				<path class="st13" d="M268.2,632.9c-2.2,3.7-4.4,7.3-6.6,11c-0.6,1.1-0.3,2.7,0.9,3.3c1.2,0.6,2.6,0.3,3.3-0.9
					c2.2-3.7,4.4-7.3,6.6-11c0.6-1.1,0.3-2.7-0.9-3.3C270.4,631.4,268.9,631.7,268.2,632.9L268.2,632.9z"/>
			</g>
		</g>
		<g>
			<g>
				<path class="st13" d="M270.9,639.4c2.8,0.7,5.6,1.3,8.5,2c1.2,0.3,2.7-0.4,3-1.7c0.3-1.2-0.4-2.6-1.7-3c-2.8-0.7-5.6-1.3-8.5-2
					c-1.2-0.3-2.7,0.4-3,1.7C268.9,637.7,269.6,639.1,270.9,639.4L270.9,639.4z"/>
			</g>
		</g>
		<g>
			<g>
				<path class="st13" d="M268.1,646.5c3.7,0.1,7.4,0.1,11.1,0.2c1.3,0,2.5-1.1,2.4-2.4c-0.1-1.3-1.1-2.4-2.4-2.4
					c-3.7-0.1-7.4-0.1-11.1-0.2c-1.3,0-2.5,1.1-2.4,2.4C265.7,645.4,266.7,646.5,268.1,646.5L268.1,646.5z"/>
			</g>
		</g>
		<g>
			<g>
				<path class="st13" d="M286.1,625.6c5.5-1.3,11.2-1.6,16.9-1.2c-0.8-0.8-1.6-1.6-2.4-2.4c0.2,1.6,0,3-0.5,4.5
					c-0.4,1.2,0.5,2.6,1.7,3c1.3,0.4,2.6-0.4,3-1.7c0.6-1.9,0.8-3.8,0.6-5.8c-0.1-1.4-1-2.3-2.4-2.4c-6.1-0.5-12.2,0-18.1,1.3
					c-1.3,0.3-2,1.7-1.7,3C283.5,625.2,284.8,625.9,286.1,625.6L286.1,625.6z"/>
			</g>
		</g>
		<g>
			<g>
				<path class="st13" d="M291.8,622.2c-0.2,3.1-0.5,6.1-0.7,9.2c-0.1,1.3,1.2,2.5,2.4,2.4c1.4-0.1,2.3-1.1,2.4-2.4
					c0.2-3.1,0.5-6.1,0.7-9.2c0.1-1.3-1.2-2.5-2.4-2.4C292.8,619.9,291.9,620.9,291.8,622.2L291.8,622.2z"/>
			</g>
		</g>
		<g>
			<g>
				<path class="st13" d="M294.2,630.5c1.1,0.2,2.2,0.3,3.2,0.3c1.1,0,2.2-0.1,3.2-0.3c0.6-0.1,1.2-0.6,1.4-1.1
					c0.3-0.5,0.4-1.3,0.2-1.8c-0.2-0.6-0.5-1.1-1.1-1.4c-0.6-0.3-1.2-0.4-1.8-0.2c-0.3,0-0.5,0.1-0.8,0.1c0.2,0,0.4-0.1,0.6-0.1
					c-1.2,0.2-2.4,0.2-3.6,0c0.2,0,0.4,0.1,0.6,0.1c-0.3,0-0.5-0.1-0.8-0.1c-0.6-0.1-1.3-0.1-1.8,0.2c-0.5,0.3-1,0.9-1.1,1.4
					c-0.1,0.6-0.1,1.3,0.2,1.8C293.1,629.9,293.6,630.3,294.2,630.5L294.2,630.5z"/>
			</g>
		</g>
		<g>
			<g>
				<path class="st13" d="M287.3,624.8c-0.2,0.8-0.4,1.5-0.6,2.3c-0.1,0.3-0.2,0.7-0.3,1c-0.1,0.2-0.1,0.4-0.2,0.5
					c-0.1,0.2-0.1,0.2,0.1-0.2c0,0.1-0.1,0.2-0.1,0.3c-0.6,1.4-1.4,2.7-2.3,3.9c-0.3,0.5-0.4,1.3-0.2,1.8c0.2,0.6,0.6,1.2,1.1,1.4
					c1.2,0.7,2.5,0.2,3.3-0.9c1.9-2.7,3.3-5.8,4-9c0.3-1.2-0.4-2.7-1.7-3C289.1,622.8,287.6,623.5,287.3,624.8L287.3,624.8z"/>
			</g>
		</g>
		<g>
			<g>
				<path class="st13" d="M289.1,632.9c4.6,0.5,9.1,0.9,13.7,1.4c1.3,0.1,2.5-1.2,2.4-2.4c-0.1-1.4-1.1-2.3-2.4-2.4
					c-4.6-0.5-9.1-0.9-13.7-1.4c-1.3-0.1-2.5,1.2-2.4,2.4C286.8,631.9,287.8,632.8,289.1,632.9L289.1,632.9z"/>
			</g>
		</g>
		<g>
			<g>
				<path class="st13" d="M288.6,633c-1.1,0.7-2.2,1.6-2.8,2.8c-0.7,1.4-0.7,3,0.2,4.3c1.6,2.2,4.2,2.2,6.6,2.2
					c1.4,0,2.8-0.1,4.1-0.1c1.4,0,2.9-0.1,4.1-0.9c1.3-0.8,2.3-2.2,2.3-3.8c0-1.6-0.9-3-2.2-3.9c-1.5-1-3.2-1-4.9-0.7
					c-0.6,0.1-1.3,0.2-1.9,0.3c-0.4,0.1,0.3,0-0.1,0c-0.2,0-0.4,0-0.6,0c-0.1,0-0.3,0-0.5,0c0.4,0-0.1-0.1-0.3-0.1
					c-1.2-0.4-2.7,0.4-3,1.7c-0.3,1.3,0.4,2.6,1.7,3c1.4,0.4,2.8,0.3,4.2,0c0.3-0.1,0.6-0.1,0.9-0.2c0.2,0,0.3-0.1,0.5-0.1
					c-0.3,0-0.2,0,0,0c0.3,0,0.6,0,0.9,0c-0.5,0,0.1,0,0.3,0.1c0.3,0.1,0.2,0.1-0.1,0c0.1,0.1,0.2,0.1,0.3,0.2
					c-0.2-0.2-0.3-0.2-0.1,0c-0.2-0.3-0.2-0.3,0-0.1c0.1,0.2,0.1,0.2,0-0.1c0.1,0.3,0.1,0.2,0-0.1c0.1-0.3,0.1-0.4,0-0.1
					c0-0.1,0.1-0.2,0.1-0.3c-0.1,0.2-0.1,0.2,0.1-0.1c-0.2,0.2-0.2,0.2,0.1,0c-0.1,0.1-0.2,0.1-0.3,0.2c0.3-0.1,0.3-0.1,0,0
					c-0.1,0-0.3,0.1-0.4,0.1c0.3,0,0.2,0,0,0c-0.3,0-0.5,0-0.8,0c-1.3,0-2.6,0.1-3.9,0.1c-0.6,0-1.2,0-1.8,0c-0.2,0-0.4,0-0.7,0
					c-0.1,0-0.2,0-0.3,0c0.3,0,0.4,0.1,0.2,0c-0.2-0.1-0.4-0.1-0.6-0.1c-0.1,0-0.2-0.1-0.3-0.1c0.3,0.1,0.4,0.2,0.2,0
					c-0.2-0.1-0.2-0.1,0.1,0.1c-0.2-0.2-0.1-0.1,0.1,0.2c-0.1-0.2-0.1-0.2,0,0.2c0-0.2-0.1-0.2,0,0c0,0.2,0,0.2,0,0
					c-0.1,0.3,0,0.4,0,0.1c-0.1,0.3-0.1,0.3,0,0.1c0.2-0.2,0.1-0.2,0,0c0.2-0.2,0.4-0.4,0.6-0.6c0.2-0.2,0.2-0.2,0,0
					c0.1-0.1,0.2-0.2,0.3-0.2c1-0.7,1.6-2.1,0.9-3.3C291.2,632.9,289.7,632.3,288.6,633L288.6,633z"/>
			</g>
		</g>
		<g>
			<g>
				<path class="st13" d="M292.8,632.9c-0.3,4-0.5,8.1-0.8,12.1c-0.1,1.3,1.2,2.5,2.4,2.4c1.4-0.1,2.3-1.1,2.4-2.4
					c0.3-4,0.5-8.1,0.8-12.1c0.1-1.3-1.2-2.5-2.4-2.4C293.8,630.5,292.9,631.5,292.8,632.9L292.8,632.9z"/>
			</g>
		</g>
		<g>
			<g>
				<path class="st13" d="M286.7,647.6c5.1,0.9,10.3,0.8,15.4-0.3c1.2-0.3,2.1-1.8,1.7-3c-0.4-1.3-1.6-2-3-1.7
					c-0.6,0.1-1.1,0.2-1.7,0.3c-0.3,0.1-0.6,0.1-0.9,0.1c0.4,0-0.4,0-0.4,0c-1.1,0.1-2.2,0.2-3.3,0.2c-2.3,0-4.5-0.1-6.4-0.5
					c-1.2-0.2-2.6,0.3-3,1.7C284.8,645.8,285.4,647.3,286.7,647.6L286.7,647.6z"/>
			</g>
		</g>
		<g>
			<g>
				<path class="st13" d="M298.7,642.4c0.7,2,1.3,4.1,2,6.1c0.4,1.1,1.4,1.9,2.6,1.7c1.2-0.2,2.1-1.2,2.1-2.4c0-0.2,0-0.4,0-0.7
					c0-1.3-1.1-2.5-2.4-2.4c-1.3,0.1-2.4,1.1-2.4,2.4c0,0.2,0,0.4,0,0.7c1.6-0.2,3.1-0.4,4.7-0.6c-0.7-2-1.3-4.1-2-6.1
					c-0.2-0.6-0.6-1.1-1.1-1.4c-0.5-0.3-1.3-0.4-1.8-0.2C299.2,639.8,298.3,641.1,298.7,642.4L298.7,642.4z"/>
			</g>
		</g>
		<g>
			<g>
				<path class="st13" d="M310.8,556.6c-3.2-1.8-6.7-3.6-10.5-3.6c-3.3,0-6.5,1.8-8.2,4.7c-1.7,3-1.1,6.7,1.6,8.9
					c3.2,2.6,7.3,2.2,11.2,1.6c-1-1-2-2-3-3c-1.4,6.2-5.4,11.5-6.2,18c-0.7,5.9,1.5,11.8,7.2,14.1c3,1.2,6.3,1.3,9.5,1.5
					c3.4,0.2,6.9,0.2,10.3-0.6c3.1-0.8,6.1-2.3,8.2-4.7c2-2.3,3.1-5.1,3.5-8.2c0.9-7.5-3.4-14.1-7.5-20c-0.5,1.2-1,2.4-1.4,3.5
					c3.3-1.3,6.9-2.9,8.2-6.4c1.2-3.1,0-7.1-3.2-8.3c-3.9-1.5-6.7,2-10.1,3.1c-3.1,1-6.5,0.7-9.4-1c-2.7-1.6-5.1,2.6-2.4,4.1
					c2.7,1.6,5.8,2.4,8.8,2.2c3.2-0.2,6-1.3,8.7-2.9c0.7-0.5,2-1.4,2.8-1c0.1,0,0.3,0.2,0.3,0.4c0.2,0.4,0.2,0.8,0.1,1.3
					c-0.3,2.1-3.3,3.2-5.1,3.9c-1.3,0.5-2.4,2.1-1.4,3.5c3,4.3,6.5,9.1,6.9,14.5c0.2,2.4-0.2,4.8-1.4,6.8c-1.2,2-3.3,3.4-5.5,4.1
					c-2.7,0.9-5.6,1-8.5,0.9c-2.7-0.1-5.5-0.1-8.1-0.7c-2.2-0.5-4-1.5-5.1-3.6c-0.9-1.9-1-4.2-0.8-6.2c0.8-6,4.8-11.1,6.1-17
					c0.4-1.9-1.1-3.3-3-3c-2.1,0.4-4.9,0.9-6.7-0.5c-1.2-1-1.1-2.3-0.2-3.5c3.1-3.7,8.5-0.6,11.7,1.2
					C311.1,562.3,313.5,558.1,310.8,556.6L310.8,556.6z"/>
			</g>
		</g>
		<g>
			<g>
				<path class="st13" d="M317.6,560.7c-1.7,0.5-2.9,1.8-3.6,3.4c-0.7,1.6-0.6,3.2-0.8,4.8c-0.1,0.4-0.2,1.1-0.5,1.5
					c0.2-0.2-0.3,0.3-0.4,0.4c-0.3,0.3-0.5,0.5-0.8,0.8c-1.4,1.6-1.7,3.7-0.6,5.6c2,3.5,7,3.4,10.4,2.5c3.3-0.9,6.9-3.2,7.2-6.9
					c0.1-1.9-0.7-3.8-2.3-4.8c-0.9-0.6-2-0.8-3.1-0.8c-0.1,0-1.4,0-1.4,0.1c0-0.1,0.9,0.4,0.3,0c0.6,0.4,1,0.9,0,2.1
					c-1.3-0.4-2.7-0.7-4-1.1c0.1,0.2,0.1,0.4,0.2,0.6c0.1,0.3-0.1-0.3,0,0.2c0,0.1,0,0.2,0,0.2c0-0.2,0-0.2,0-0.1
					c0,0.2-0.1,0.4-0.2,0.6c0.1-0.2,0,0-0.1,0.1c-0.3,0.6,0.1-0.1-0.1,0.2c-0.1,0.1-0.4,0.4-0.1,0.2c-0.2,0.1-0.4,0.2-0.6,0.3
					c1.1,1.1,2.2,2.2,3.3,3.3c-0.1,0.2,0-0.1,0.1-0.1c0.1-0.1,0.3-0.3,0.3-0.3c0.1,0.1-0.7,0.1-0.5,0.1c-0.5,0-1.4-0.6-1.3-1.2
					c0.1-0.4,0.2-0.8,0.3-1.2c-0.3,0.7,0.4-0.4,0.4-0.2c0,0.1-0.8,0.2-0.8,0.2c-0.4,0.1-0.8,0.1-1.2,0c-0.2,1.6-0.4,3.1-0.6,4.7
					c1.7-0.2,3.5-0.4,5.2-0.6c-0.2-1.6-0.4-3.1-0.6-4.7c-1.8,0.8-3.6,1.1-5.6,1c-2.7-0.1-3.3,4.2-0.6,4.7c2.5,0.5,5.1-0.1,6.9-2
					c1.8-1.9,2.4-4.8,1.6-7.2c-0.4-1-1.2-2.1-1.5-3c-0.2-0.5,0.1-0.1-0.1,0c-0.1,0.1-0.3,0.3-0.3,0.3c-0.2,0.1-0.2,0.1-0.1,0
					c0.2,0,0.1,0-0.1,0c0.1,0,0.8,0,0.3,0c1.1,0.1,2,0.5,3.1,0.6c1.4,0.1,2.7-0.3,3.7-1.3c0.9-0.9,0.9-2.5,0-3.4
					c-1.4-1.5-3.8-1.8-5.6-0.7c-1,0.6-1.5,1.9-1,3c0.5,1,1.7,1.8,2.8,1.4c1-0.3,2-0.7,3.1-1c1.3-0.4,2.4-2.2,1.4-3.5
					c-0.2-0.3-0.5-0.7-0.7-1c-0.8-1.1-2.1-1.6-3.3-0.9c-1,0.6-1.6,2.2-0.9,3.3c0.2,0.3,0.5,0.7,0.7,1c0.5-1.2,1-2.4,1.4-3.5
					c-1,0.3-2,0.7-3.1,1c0.6,1.5,1.2,2.9,1.8,4.4c0.2-0.1,0.3-0.2,0,0c-0.3,0-0.2,0,0,0c-0.2-0.1-0.6-0.3-0.3,0c0-1.1,0-2.3,0-3.4
					c0.2-0.2,0.4,0,0-0.1c0.3,0-0.1,0-0.2,0c-0.4,0,0.4,0.1-0.3,0c-0.2-0.1-0.4-0.1-0.6-0.2c-0.9-0.3-1.9-0.5-2.9-0.4
					c-2.8,0.2-4.6,2.7-4,5.4c0.2,1.1,0.9,2,1.4,3c0.4,0.7,0.4,1.3,0.3,1.8c-0.1,0.4-0.2,0.6-0.5,1c-0.1,0.1-0.3,0.3-0.5,0.4
					c-0.5,0.3-0.4,0.2-0.9,0.3c-0.5,0.1,0.1,0.1-0.4,0c-0.1,0-0.8-0.1-0.4,0c-0.2,1.6-0.4,3.1-0.6,4.7c2.3,0.1,4.7-0.3,6.9-1.2
					c1.1-0.5,1.9-1.4,1.7-2.6c-0.2-1.1-1.2-2.2-2.4-2.1c-1.7,0.2-3.5,0.4-5.2,0.6c-1.2,0.1-2.2,0.8-2.4,2.1
					c-0.1,1.1,0.5,2.5,1.7,2.6c1.6,0.2,3.3,0.2,4.8-0.3c1.7-0.6,3.1-2.2,2.5-4.1c-0.5-1.8-2.4-2.8-4.2-2.4c-1.5,0.3-2.4,1.4-3.3,2.5
					c-0.6,0.8-0.3,2.2,0.4,2.9c0.8,0.8,1.9,0.8,2.9,0.4c2.7-1.3,4.2-4.9,3-7.7c-0.3-0.8-0.8-1.4-1.7-1.7c-0.8-0.2-1.8,0-2.3,0.6
					c-1.2,1.5-1.2,3.3,0.1,4.7c1.2,1.3,2.8,1.4,4.4,1.3c0.2,0,0.3,0,0.5,0c0,0-0.1,0-0.1-0.1c-0.1,0.1,0-0.1,0.1,0.1
					c-0.3-0.4,0,0,0,0c0,0-0.2-0.3-0.1-0.1c0.1,0.1,0.1,0.2,0.2,0.3c-0.2-0.4,0,0.6,0,0.1c0,0.2-0.1,0.6,0,0.3c0,0-0.1,0.4,0,0.1
					c-0.1,0.1-0.1,0.2-0.2,0.3c-0.2,0.3-0.6,0.7-0.8,0.8c-1.9,1.4-4.9,2-7,1.4c-0.3-0.1-0.6-0.4-0.7-0.4c-0.2,0,0-0.1,0,0.1
					c-0.1,0.4,0.2-0.3,0.1-0.2c0.1-0.2,0.7-0.7,1-1c0.6-0.7,1-1.4,1.3-2.2c0.6-1.5,0.5-3.1,0.7-4.6c-0.1,0.4,0,0,0-0.1
					c0-0.2,0.1-0.3,0.1-0.5c0-0.1,0.1-0.2,0.1-0.3c0.1-0.2,0.1-0.2,0,0c0-0.1,0.1-0.1,0.1-0.2c0.1-0.1,0.1-0.2,0.2-0.3
					c0.2-0.3-0.2,0.2,0-0.1c0,0,0.4-0.3,0.2-0.2c-0.1,0.1-0.5,0.2,0,0c1.2-0.4,2-1.7,1.7-3C320.2,561.1,318.9,560.3,317.6,560.7
					L317.6,560.7z"/>
			</g>
		</g>
		<g>
			<g>
				<path class="st14" d="M310.9,579.8c-2.2-2.1-5.6-2.7-8.3-1.3c-2.7,1.4-4.1,4.6-3.6,7.6c1.1,6.3,9.6,8.3,14.9,7.7
					c1.8-0.2,3.4-0.5,4.8-1.7c1.3-1.1,2.1-2.8,1.9-4.5c-0.4-3.4-4-5-6.9-6.1c-1.5-0.6-3-1-4.6-1.2c-1.6-0.2-3.2-0.2-4.4,0.8
					c-1.5,1.2-1.8,3.2-0.9,4.9c0.7,1.3,1.9,2.3,3.2,3.1c2.4,1.5,9,4.1,10.2-0.1c0.7-2.2-1.3-3.8-3.1-4.5c-1.7-0.7-3.6-1.1-5.5-0.9
					c-2.3,0.2-3.4,3.2-1.2,4.5c2.4,1.4,5.5,2.5,8.3,2.3c2-0.1,3.5-1.9,2.7-3.9c-0.5-1.3-2-2.4-3.1-3.3c-2.1-1.8-4.5-3.3-7.3-3.7
					c-2.8-0.4-5.7,0.2-7.7,2.2c-1.9,1.9-2.8,4.8-1.7,7.4c1,2.6,3.5,4.4,6.2,5.1c2.7,0.7,5.6,0.5,8.3,0.4c2.5,0,5.3,0,7.3-1.9
					c2.2-2.2,1.6-5.7,0.1-8.1c-1.4-2.2-3.4-3.9-5.8-4.9c-4.2-1.8-13.4-3.3-13.8,3.5c-0.2,2.6,1.6,5,3.5,6.7c2,1.8,4.3,3.1,6.8,3.8
					c2.6,0.7,5.6,1,8.1-0.2c2.5-1.2,3.7-4.1,3.2-6.7c-0.6-3.1-3.9-5-6.9-4.4c-2.9,0.5-5,3.5-4.7,6.3c0.2,1.7,1.1,3.3,2.7,4.1
					c1.6,0.8,3.5,0.4,4.7-0.9c2.1-2.4,1.7-6.8,0.6-9.5c-0.8,1-1.5,2-2.3,3c0.3,0,0.4,0,0.2,0c-0.1-0.1,0-0.1,0.2,0.1
					c0.1,0.1,0.2,0.3,0.3,0.4c0.3,0.6,0.3,1.3,0.3,1.9c0,0.6,0.1,1.6,0.1,1.9c0,0.2-0.3,0.8-0.2,0.7c0.1-0.2-0.3,0.2-0.1,0.1
					c-0.9,0.5-3.2-0.1-4.4-0.2c-1-0.1-2-0.3-3-0.4c-0.4,0-0.8-0.1-1.1-0.2c-0.8-0.1,0.1,0,0.1,0.6c0.1-1.3-1.1-2.4-2.4-2.4
					c-1.3,0-2.3,1.1-2.4,2.4c-0.2,4.2,4.8,4.2,7.7,4.6c2.7,0.4,6,1.2,8.4-0.6c2.3-1.8,2.3-4.9,2-7.5c-0.2-1.6-0.6-3.1-1.6-4.3
					c-1-1.2-2.6-2-4.2-1.9c-1.4,0.1-2.9,1.5-2.3,3c0.5,1.4,0.9,3,0.6,4.5c0,0.2-0.1,0.3-0.1,0.5c0.1-0.3,0.1,0.2-0.1,0.1
					c0,0,0.1-0.1,0.1-0.1c0,0,0,0,0.1,0c0.2-0.2,0.5-0.2,0.7-0.1c0.3-0.1,0.4,0.3,0.2,0c0,0-0.1,0.5-0.1-0.2c0,0.3,0-0.1,0-0.1
					c0-0.6,0-0.2,0-0.1c0,0,0.1-0.4,0-0.2c0.1-0.3,0.2-0.4,0.3-0.5c0.1-0.1,0.1-0.1,0-0.1c0.1-0.1,0.3-0.2,0.5-0.3
					c-0.2,0.1-0.1,0,0.2,0c-0.3,0,0,0,0.1,0c0.5,0,0.2,0,0.1,0c0.2,0,0.3,0.1,0.5,0.1c-0.4-0.1,0.5,0.3,0.3,0.2
					c0.1,0.1,0.1,0.1,0.2,0.3c-0.1-0.3,0.1,0.7,0.1,0.3c0,0.3,0,0.7-0.3,1c0,0.1-0.2,0.2-0.4,0.3c-0.1,0.1-0.6,0.2-0.8,0.2
					c-1.2,0.2-2.6-0.1-3.8-0.4c-2.5-0.7-5.2-2.4-6.5-4.6c-0.2-0.3-0.2-0.4-0.3-0.8c0,0.1,0-0.2,0-0.2c0-0.1,0.3-0.3,0.1-0.2
					c-0.3,0.3,0.5-0.3,0.2-0.1c0.9-0.4,2.3-0.2,3.6,0c2.9,0.5,5.7,1.7,7.1,4.4c0.2,0.5,0.4,1,0.4,1.5c0,0.3-0.1,0.3-0.4,0.4
					c0.3-0.1-0.1,0-0.1,0c-0.2,0-0.3,0.1-0.5,0.1c0,0-0.4,0.1-0.2,0c0.2,0-0.3,0-0.3,0c-0.8,0.1-1.6,0-2.4,0.1c-1.8,0-3.5,0.1-5.3,0
					c-1.3-0.1-2.7-0.4-3.6-1.1c-0.5-0.4-0.9-0.9-1.1-1.3c-0.1-0.4-0.2-0.4-0.1-0.9c0,0-0.1,0.3,0,0c0-0.2,0.1-0.5,0.2-0.7
					c0.4-0.8,1.5-1.6,2.6-1.7c1.6-0.2,3.1,0.4,4.4,1.2c0.7,0.4,1.4,0.9,2.1,1.5c0.6,0.5,1.7,1.2,2,1.8c-0.1-0.4-0.2-0.8-0.3-1.2
					c0,0.1,0,0.2,0,0.3c0.2-0.6,0.5-1.1,0.7-1.7c1.1-0.3,1.4-0.5,0.8-0.5c-0.1,0-0.2,0-0.3,0c-0.2,0-0.4,0-0.6-0.1
					c-0.6-0.1-1.1-0.2-1.7-0.4c-1-0.3-2-0.7-2.9-1.2c-0.4,1.5-0.8,3-1.2,4.5c0.9-0.1,1.7-0.1,2.5,0.2c0.4,0.1,0.8,0.2,1.1,0.4
					c0.2,0.1,0.3,0.2,0.5,0.2c0.5,0.1-0.6,0-0.2-1.3c0.2-0.4,0.4-0.7,0.6-1.1c0.8-0.9,1.1-0.2,0.5-0.3c0,0-0.3,0-0.3,0
					c-0.4-0.1-0.7-0.1-1.1-0.2c-0.7-0.2-1.4-0.4-2.1-0.8c-0.6-0.3-1.2-0.7-1.7-1.1c-0.2-0.1-0.3-0.4-0.3-0.3c0,0-0.1,0.5-0.1,0.4
					c-0.1,0.3-0.4,0.5-0.6,0.7c0.1-0.1,0.4,0,0.1,0c0.2,0,0.3,0,0.5,0c0.3,0,0.4,0.1,0.7,0.1c0.9,0.2,1.8,0.4,2.7,0.7
					c1.4,0.4,3,1.1,4,2c0,0,0.3,0.3,0.2,0.1c0,0,0.3,0.3,0.1,0.1c0.2,0.2,0,0.3,0.1,0.1c-0.1,0.3-0.5,0.5-1,0.7
					c-1.5,0.4-3.2,0.4-4.7,0.2c-1.6-0.2-3.1-0.7-4.5-1.4c-1.1-0.6-1.9-1.4-2.1-2.5c0,0.1,0,0.3,0-0.2c0-0.2,0-0.4,0-0.5
					c0,0.3,0-0.1,0.1-0.1c0-0.1,0.2-0.6,0.2-0.5c0.2-0.4,0.5-0.8,0.9-1c0.2-0.1,0.4-0.2,0.6-0.2c-0.2,0,0.3,0,0.3,0
					c0.1,0,0.6,0,0.3,0c0.7,0.1,1.1,0.3,1.5,0.7C309.8,585.3,313.2,581.9,310.9,579.8L310.9,579.8z"/>
			</g>
		</g>
		<g>
			<g>
				<path class="st13" d="M305.8,589.5c3.1,0,3.1-4.8,0-4.8C302.7,584.7,302.7,589.5,305.8,589.5L305.8,589.5z"/>
			</g>
		</g>
		<g>
			<g>
				<path class="st13" d="M316.7,587.5c-0.1-0.2-0.1-0.5-0.2-0.7c-0.2-0.8-0.9-1.5-1.7-1.7c-0.4-0.1-0.9-0.1-1.3,0
					c-0.4,0.1-0.8,0.3-1.1,0.6c-0.2,0.2-0.5,0.4-0.7,0.7c-0.2,0.2-0.4,0.5-0.5,0.8c-0.2,0.3-0.2,0.6-0.2,0.9c0,0.3,0.1,0.6,0.2,0.9
					c0.1,0.3,0.3,0.6,0.5,0.8c0.2,0.1,0.3,0.3,0.5,0.4c0.4,0.2,0.8,0.3,1.2,0.3c0.2,0,0.4-0.1,0.6-0.1c0.4-0.1,0.8-0.3,1.1-0.6
					c0.2-0.2,0.5-0.4,0.7-0.7c-1.3-0.4-2.7-0.7-4-1.1c0.1,0.2,0.1,0.5,0.2,0.7c0.1,0.3,0.2,0.6,0.4,0.8c0.2,0.3,0.4,0.5,0.7,0.6
					c0.3,0.2,0.6,0.3,0.9,0.3c0.3,0.1,0.6,0.1,1,0c0.2-0.1,0.4-0.2,0.6-0.2c0.4-0.2,0.6-0.5,0.9-0.9c0.1-0.2,0.2-0.4,0.2-0.6
					C316.8,588.3,316.8,587.9,316.7,587.5L316.7,587.5z"/>
			</g>
		</g>
		<g>
			<g>
				<path class="st13" d="M297.2,590.8c-5.7,0.3-11.9,1.4-15.7,6c-3.6,4.3-4,10.2-0.2,14.5c3.6,4.2,9.4,5.4,14.7,4.8
					c3.1-0.3,6.3-0.9,9.2-1.9c2.7-0.9,5.4-3,5.2-6.2c-0.1-3.4-3.5-5.2-6.3-6.3c-3.1-1.3-6.6-1.8-10-1.6c-3.1,0.2-3.1,5,0,4.8
					c2.1-0.1,4.2,0.1,6.2,0.6c1,0.3,2,0.6,2.9,1c0.7,0.3,1.8,0.7,2.2,1.4c0.7,1.1-1.9,1.7-2.6,1.9c-2.3,0.6-4.6,1.2-6.9,1.4
					c-3.7,0.4-7.8,0.1-10.6-2.6c-2.5-2.4-2.6-5.7-0.6-8.4c2.9-3.7,8-4.4,12.4-4.7C300.3,595.5,300.3,590.7,297.2,590.8L297.2,590.8z
					"/>
			</g>
		</g>
		<g>
			<g>
				<path class="st13" d="M329,596.2c3.4,0.7,6.5,2.5,8.5,5.3c1.3,1.7,3.7,6.1,1.3,8c-1.3,1-3.4,0.9-4.9,1c-2.4,0.2-4.8,0.3-7.2,0.2
					c-2-0.1-4.1-0.5-5.9-1.2c-0.8-0.3-1.6-0.8-2.4-1.3c-0.4-0.2-0.7-0.5-1-0.8c0,0-0.9-1.1-0.9-1.1c0.1,0-0.2,0.3-0.1,0.4
					c0.1,0.1-0.7-0.3,0.1-0.1c0.2,0,0.7-0.2,0.9-0.3c1.1-0.2,2.3-0.2,3.5-0.3c2.8-0.2,5.6-0.4,8.4-0.6c1.3-0.1,2.4-1,2.4-2.4
					c0-1.2-1.1-2.5-2.4-2.4c-3.2,0.2-6.4,0.5-9.6,0.7c-2.5,0.2-5.7,0.2-7.2,2.6c-1.7,2.7,0,5.6,2.2,7.3c2.2,1.7,4.8,2.9,7.5,3.5
					c3,0.7,6.1,0.8,9.2,0.6c2.7-0.1,5.6-0.1,8.2-1c5.6-2,6-8.1,3.7-12.8c-2.4-5.1-7.4-9-12.9-10.1c-1.3-0.3-2.6,0.4-3,1.7
					C327,594.5,327.8,596,329,596.2L329,596.2z"/>
			</g>
		</g>
		<g>
			<g>
				<path class="st13" d="M302.2,605.1c-1.3,2.3-2.3,4.8-2.7,7.4c1.6,0.2,3.1,0.4,4.7,0.6c-0.1-1.3-0.1-2.6,0.1-3.9
					c0,0.2-0.1,0.4-0.1,0.6c0-0.3,0.1-0.6,0.1-0.9c-1.6-0.2-3.1-0.4-4.7-0.6c0,1.4,0,2.7,0,4.1c0,1.2,0.9,2.2,2.1,2.4
					c1.2,0.2,2.2-0.6,2.6-1.7c0.6-1.6,1.1-3.2,1.7-4.8c-1.6-0.2-3.1-0.4-4.7-0.6c0,0.8,0,1.6,0.1,2.5c1.5-0.4,3-0.8,4.5-1.2
					c-0.1-0.1-0.1-0.2-0.2-0.3c0.1,0.2,0.2,0.4,0.2,0.6c0-0.1-0.1-0.2-0.1-0.4c0,0.2,0.1,0.4,0.1,0.6c0-0.1,0-0.2,0-0.4
					c0,0.2-0.1,0.4-0.1,0.6c0-0.1,0.1-0.2,0.1-0.4c-0.1,0.2-0.2,0.4-0.2,0.6c0-0.1,0.1-0.2,0.1-0.2c-0.1,0.2-0.3,0.3-0.4,0.5
					c0,0,0,0,0.1-0.1c-1.3-0.2-2.5-0.3-3.8-0.5c0.5,1.1,1,2.2,1.4,3.2c0.1,0.2,0.3,0.3,0.4,0.5c0.2,0.2,0.5,0.4,0.8,0.5
					c0.5,0.2,1.1,0.3,1.6,0.1c0.4-0.1,0.8-0.3,1.1-0.6c0.4-0.4,0.8-1.1,0.7-1.7c-0.1-0.6-0.1-1.2-0.2-1.8c-0.1-0.6-0.2-1.2-0.7-1.7
					c-0.4-0.4-1.1-0.7-1.7-0.7c-0.6,0-1.3,0.2-1.7,0.7c-0.4,0.4-0.8,1.1-0.7,1.7c0.1,0.6,0.1,1.2,0.2,1.8c1.5-0.4,3-0.8,4.5-1.2
					c-0.5-1.1-1-2.2-1.4-3.2c-0.3-0.7-1.1-1.1-1.8-1.1c-0.7-0.1-1.5,0.1-2,0.7c-0.6,0.8-1,1.5-1,2.5c0,0.7,0.2,1.6,0.6,2.1
					c0.3,0.4,0.6,0.8,1.1,1c0.5,0.2,1.1,0.3,1.6,0.1c1-0.3,1.8-1.2,1.8-2.3c0-0.8,0-1.6-0.1-2.5c0-1.2-0.9-2.2-2.1-2.4
					c-1.2-0.2-2.2,0.6-2.6,1.7c-0.6,1.6-1.1,3.2-1.7,4.8c1.6,0.2,3.1,0.4,4.7,0.6c0-1.4,0-2.7,0-4.1c0-1.2-0.9-2.2-2.1-2.4
					c-1.1-0.1-2.4,0.5-2.6,1.7c-0.3,1.8-0.5,3.6-0.3,5.5c0.1,1.2,0.8,2.2,2.1,2.4c0.5,0.1,1.1,0,1.5-0.3c0.5-0.3,1-0.8,1.1-1.4
					c0.3-1.6,0.7-3.1,1.3-4.6c-0.1,0.2-0.2,0.4-0.2,0.6c0.3-0.8,0.7-1.6,1.2-2.3c0.6-1.1,0.3-2.7-0.9-3.3
					C304.3,603.7,302.8,604,302.2,605.1L302.2,605.1z"/>
			</g>
		</g>
		<g>
			<g>
				<path class="st13" d="M316.9,603c-1.2,0.7-2.3,1.4-3.5,2.1c-1.2,0.7-2.7,1.4-3.4,2.7c-1,1.8-0.2,3.7,1.2,5
					c0.9,0.9,1.9,1.8,2.9,2.6c1.4,1.1,2.9,2.1,4.8,1.7c1-0.2,1.8-0.9,2.3-1.7c0.4-0.6,0.6-1.3,0.9-2c0.5-1.2,1.1-2.4,1.4-3.6
					c0.5-1.8-0.1-3.8-1.7-4.8c-1.4-0.9-3.4-0.8-4.8,0c-1.4,0.8-2.2,2.1-2.9,3.5c1.5,0.4,3,0.8,4.5,1.2c0-0.4-0.1-0.7-0.1-1.1
					c-0.1-0.7-0.2-1.2-0.7-1.7c-0.4-0.4-1.1-0.7-1.7-0.7c-0.6,0-1.3,0.2-1.7,0.7c-0.4,0.4-0.8,1.1-0.7,1.7c0,0.4,0.1,0.7,0.1,1.1
					c0.1,0.6,0.2,1,0.5,1.5c0.3,0.4,0.7,0.7,1.2,0.9c1,0.2,2.2-0.1,2.7-1.1c0.2-0.4,0.4-0.7,0.6-1c0.1-0.1,0.1-0.2,0.2-0.3
					c0-0.1,0.3-0.4,0.1-0.1c-0.3,0.3,0,0,0,0c0.1-0.1,0.2-0.2,0.3-0.3c0.2-0.3-0.1,0.1-0.2,0.1c0.1,0,0.2-0.1,0.2-0.2
					c0.1,0,0.2-0.1,0.2-0.1c-0.4,0.3-0.4,0.2-0.2,0.1c0.6-0.1-0.4,0-0.1,0c0.1,0,0.2,0,0.2,0c0.4,0-0.6-0.2-0.2,0
					c0.6,0.2-0.4-0.2-0.1,0c0.3,0.2-0.2-0.2-0.2-0.2c0.3,0.2-0.1-0.2-0.2-0.2c0.2,0.3-0.1-0.2-0.1-0.2c0.1,0.4,0-0.1,0-0.2
					c0,0,0,0.3,0,0.3c0.1-0.3,0.1-0.4,0-0.2c0,0.1,0,0.2-0.1,0.2c-0.3,1-0.7,1.9-1.1,2.8c-0.2,0.4-0.4,0.9-0.6,1.3
					c0.2-0.7,0-0.1-0.1,0.1c-0.1,0.3,0.1-0.1,0.1-0.1c-0.1,0.1-0.1,0.1,0,0c0.1-0.1,0.3-0.2,0.4-0.2c-0.2,0.1-0.4,0,0.2,0
					c-0.3,0,0.1-0.2,0.2,0c0,0-0.3-0.1-0.3-0.1c0.1,0,0.5,0.3,0.2,0c-0.2-0.1-0.4-0.2-0.5-0.3c-0.3-0.2,0.1,0,0.1,0.1
					c0-0.1-0.3-0.3-0.4-0.3c-0.8-0.6-1.5-1.3-2.2-1.9c-0.2-0.2-0.4-0.3-0.6-0.5c-0.1-0.1-0.1-0.1-0.2-0.2c-0.2-0.2,0.1,0,0.1,0.1
					c0,0-0.2-0.3-0.2-0.2c0,0,0.2,0.6,0.1,0.2c0.1,0.2,0.1,0.5,0,0.7c0,0.1-0.1,0.2-0.1,0.3c0.1-0.2,0.1-0.2,0,0c-0.2,0.3,0,0.1,0,0
					c0.2-0.2-0.4,0.3-0.1,0.1c0.2-0.1,0.5-0.3,0.7-0.4c0.5-0.3,1-0.6,1.5-0.9c1-0.6,2.1-1.2,3.1-1.8c1.1-0.6,1.6-2.2,0.9-3.3
					C319.4,602.8,318,602.3,316.9,603L316.9,603z"/>
			</g>
		</g>
		<g>
			<g>
				<path class="st13" d="M300.9,605.5c-0.4,1.2-0.8,2.3-1.3,3.5c-0.4,1.2-1,2.5-1.1,3.8c0,1.5,0.8,2.9,2.2,3.7
					c1.1,0.6,2.3,0.7,3.5,0.9c2.6,0.3,5.6-0.2,6.9-2.8c0.8-1.4,0.7-3.1,0.1-4.5c-0.5-1.1-1-2.2-1.6-3.2c-0.8-1.2-1.8-2.3-3.2-2.9
					c-1.5-0.7-3.2-1-4.7-0.5c-1.2,0.4-2.1,1.7-1.7,3c0.4,1.2,1.7,2.1,3,1.7c0.2-0.1,0.4-0.1,0.5-0.1c-0.3,0.2-0.5,0-0.2,0
					c0.1,0,0.2,0,0.3,0c0.1,0,0.2,0,0.3,0c-0.4,0.1-0.5-0.1-0.2,0c0.1,0,0.2,0,0.3,0.1c0.1,0,0.1,0,0.2,0.1c0.2,0.1,0.1,0-0.2-0.1
					c0.1,0.1,0.4,0.2,0.5,0.3c0.1,0,0.2,0.1,0.2,0.2c0.3,0.2-0.1,0.1-0.1-0.1c0,0.1,0.4,0.3,0.4,0.4c0.2,0.2,0.3,0.3,0.5,0.5
					c0.2,0.2-0.3-0.4-0.1-0.1c0.1,0.1,0.1,0.2,0.2,0.3c0.1,0.2,0.2,0.3,0.3,0.5c0.2,0.4,0.5,0.8,0.7,1.2c0.1,0.2,0.2,0.4,0.3,0.6
					c0.1,0.3-0.2-0.4,0-0.1c0,0.1,0.1,0.2,0.1,0.3c0,0.1,0.1,0.2,0.1,0.3c0,0,0,0.1,0,0.1c0,0.2,0,0.2,0,0c0-0.1,0-0.1,0-0.2
					c0,0.1,0,0.2,0,0.2c0,0.5-0.1,0,0-0.1c0,0-0.1,0.2-0.1,0.2c0-0.3,0.2-0.4,0.1-0.2c0,0-0.1,0.2-0.1,0.2c0.1-0.4,0.3-0.4,0.1-0.2
					c0,0-0.2,0.1-0.2,0.2c0.1-0.3,0.4-0.3,0.2-0.1c-0.1,0-0.1,0.1-0.2,0.1c-0.1,0-0.1,0.1-0.2,0.1c-0.2,0.1-0.1,0,0.3-0.1
					c-0.2,0-0.4,0.1-0.5,0.2c-0.4,0.1,0.2,0,0.2,0c0,0-0.3,0-0.3,0c-0.5,0-0.9,0-1.4,0c-0.2,0-0.4,0-0.7-0.1c-0.6-0.1,0.6,0.1,0,0
					c-0.3-0.1-0.7-0.1-1-0.3c-0.4-0.1,0.3,0.1,0.3,0.1c0,0-0.2-0.1-0.2-0.1c-0.1,0-0.1-0.1-0.2-0.1c0.4,0.2,0.4,0.3,0.2,0.2
					c-0.3-0.3,0.2,0.2,0.2,0.2c0,0-0.2-0.5,0,0c0,0.1,0.1,0.1,0.1,0.2c0-0.2-0.1-0.2,0,0c0,0.2,0,0.2,0,0c0,0.1,0,0.2,0,0.3
					c0.1-0.2,0.2-0.6,0.2-0.8c0.1-0.2,0.2-0.5,0.3-0.7c0.2-0.5,0.4-1.1,0.6-1.6c0.4-1.1,0.8-2.1,1.2-3.2c0.4-1.2-0.5-2.7-1.7-3
					C302.5,603.5,301.4,604.2,300.9,605.5L300.9,605.5z"/>
			</g>
		</g>
		<g>
			<g>
				<path class="st13" d="M312.2,604.2c-0.7,0.7-1.4,1.3-2.1,2c-0.2,0.2-0.4,0.5-0.5,0.8c-0.2,0.3-0.2,0.6-0.2,0.9
					c0,0.2,0.1,0.4,0.1,0.6c0.1,0.3,0.2,0.6,0.4,0.8c0.1,0.2,0.3,0.3,0.4,0.4c0.2,0.2,0.5,0.4,0.8,0.4c0.2,0,0.4,0.1,0.6,0.1
					c0.4,0,0.8-0.1,1.2-0.3c0.8-0.4,1.6-0.8,2.3-1.2c0.3-0.2,0.5-0.4,0.7-0.6c0.2-0.2,0.4-0.5,0.4-0.8c0.1-0.3,0.1-0.6,0-1
					c0-0.3-0.1-0.6-0.3-0.9c-0.1-0.2-0.3-0.3-0.4-0.5c-0.3-0.3-0.7-0.5-1.1-0.6c-0.2,0-0.4-0.1-0.6-0.1c-0.4,0-0.8,0.1-1.2,0.3
					c-0.8,0.4-1.6,0.8-2.3,1.2c1,1.3,1.9,2.5,2.9,3.8c0.7-0.7,1.4-1.3,2.1-2c0.2-0.2,0.4-0.5,0.5-0.8c0.2-0.3,0.2-0.6,0.2-0.9
					c0-0.3-0.1-0.6-0.2-0.9c-0.1-0.3-0.3-0.6-0.5-0.8c-0.2-0.1-0.3-0.3-0.5-0.4c-0.4-0.2-0.8-0.3-1.2-0.3c-0.2,0-0.4,0.1-0.6,0.1
					C312.9,603.7,312.5,603.9,312.2,604.2L312.2,604.2z"/>
			</g>
		</g>
		<g>
			<g>
				<path class="st13" d="M304.7,572.5c-0.1,0.4-0.2,0.9-0.2,1.3c-0.1,0.3-0.1,0.6,0,1c0,0.3,0.1,0.6,0.3,0.9
					c0.2,0.3,0.4,0.5,0.6,0.7c0.2,0.2,0.5,0.4,0.8,0.4c0.2,0,0.4,0.1,0.6,0.1c0.4,0,0.8-0.1,1.2-0.3c0.2-0.1,0.3-0.3,0.5-0.4
					c0.3-0.3,0.5-0.7,0.6-1.1c0.1-0.4,0.3-0.7,0.4-1.1c0.1-0.3,0.1-0.6,0-1c0-0.3-0.1-0.6-0.3-0.9c-0.2-0.3-0.4-0.5-0.6-0.7
					c-0.2-0.2-0.5-0.4-0.8-0.4c-0.2,0-0.4-0.1-0.6-0.1c-0.4,0-0.8,0.1-1.2,0.3c-0.2,0.1-0.3,0.3-0.5,0.4c-0.3,0.3-0.5,0.7-0.6,1.1
					c-0.1,0.4-0.3,0.7-0.4,1.1c1.5,0.4,3.1,0.9,4.6,1.3c0.1-0.4,0.2-0.9,0.2-1.3c0.1-0.3,0.1-0.6,0-1c0-0.3-0.1-0.6-0.3-0.9
					c-0.2-0.3-0.4-0.5-0.6-0.7c-0.2-0.2-0.5-0.4-0.8-0.4c-0.2,0-0.4-0.1-0.6-0.1c-0.4,0-0.8,0.1-1.2,0.3c-0.2,0.1-0.3,0.3-0.5,0.4
					C305,571.8,304.8,572.1,304.7,572.5L304.7,572.5z"/>
			</g>
		</g>
		<g>
			<g>
				<path class="st13" d="M319.4,594.3c-2.8,1.8-5.9,2.8-9.2,3c-1.6,0.1-3.3,0-4.9-0.3c-0.8-0.2-1.6-0.4-2.3-0.6
					c-0.2-0.1-0.9-0.5-1.1-0.4c-0.2,0,0-0.5-0.1,0.4c0.2-1.3-0.3-2.6-1.7-3c-1.2-0.3-2.7,0.4-3,1.7c-1.1,5.9,7.1,7,11.3,7.1
					c4.7,0.1,9.4-1.2,13.3-3.7C324.5,596.8,322.1,592.6,319.4,594.3L319.4,594.3z"/>
			</g>
		</g>
		<g>
			<g>
				<path class="st13" d="M286.9,598.6c1.7,2,4.8,2.8,7.2,2c2.7-0.9,4.6-3.4,4.8-6.3c0.1-0.7-0.4-1.5-0.9-1.9
					c-0.6-0.5-1.3-0.6-2.1-0.4c-1.4,0.2-2.7,0.5-4.1,0.7c-0.6,0.1-1.2,0.6-1.4,1.1c-0.3,0.5-0.4,1.3-0.2,1.8
					c0.2,0.6,0.5,1.1,1.1,1.4c0.6,0.3,1.2,0.4,1.8,0.2c1.4-0.2,2.7-0.5,4.1-0.7c-1-0.8-2-1.5-3-2.3c0,0.1,0,0.2,0,0.3
					c0-0.2,0.1-0.4,0.1-0.6c-0.1,0.4-0.2,0.7-0.3,1.1c0.1-0.2,0.2-0.4,0.2-0.6c-0.1,0.2-0.2,0.5-0.4,0.7c0,0.1-0.1,0.1-0.1,0.2
					c-0.1,0.2-0.1,0.1,0.2-0.2c-0.1,0.1-0.2,0.2-0.3,0.3c-0.1,0.1-0.2,0.2-0.3,0.3c-0.3,0.3,0.5-0.4,0.1-0.1
					c-0.2,0.2-0.5,0.3-0.7,0.4c0.2-0.1,0.4-0.2,0.6-0.2c-0.4,0.1-0.7,0.2-1.1,0.3c0.2,0,0.4-0.1,0.6-0.1c-0.4,0-0.8,0-1.1,0
					c0.2,0,0.4,0.1,0.6,0.1c-0.5-0.1-0.9-0.2-1.3-0.4c0.2,0.1,0.4,0.2,0.6,0.2c-0.3-0.1-0.6-0.3-0.8-0.5c-0.2-0.1,0.4,0.4,0.2,0.2
					c-0.1-0.1-0.1-0.1-0.2-0.2c-0.1-0.1-0.2-0.2-0.3-0.4c-0.8-1-2.6-0.9-3.4,0C286,596.3,286,597.6,286.9,598.6L286.9,598.6z"/>
			</g>
		</g>
		<g>
			<g>
				<path class="st13" d="M325.3,596.1c0.3,1.4,1.1,2.7,2.1,3.6c1.3,1.1,2.7,1.7,4.4,1.9c1.7,0.2,3.3-0.3,4.6-1.4
					c1.8-1.5,1.9-4.4,0-5.8c-0.8-0.6-1.8-0.9-2.8-1c-0.8-0.1-1.6,0.1-2.4,0.2c0.2,0,0.4-0.1,0.6-0.1c-0.5,0.1-0.9,0.1-1.4,0
					c0.2,0,0.4,0.1,0.6,0.1c-0.2,0-0.4-0.1-0.7-0.2c0.2,0.1,0.4,0.2,0.6,0.2c-0.1-0.1-0.2-0.1-0.3-0.2c0.2,0.1,0.3,0.3,0.5,0.4
					c-0.1-0.1-0.2-0.2-0.3-0.3c0.1,0.2,0.3,0.3,0.4,0.5c0-0.1-0.1-0.1-0.1-0.2c-0.7-1.1-2.2-1.6-3.3-0.9c-1.1,0.7-1.6,2.1-0.9,3.3
					c0.8,1.3,2,1.8,3.4,2c0.9,0.1,1.8-0.1,2.7-0.2c-0.2,0-0.4,0.1-0.6,0.1c0.4-0.1,0.8-0.1,1.3,0c-0.2,0-0.4-0.1-0.6-0.1
					c0.2,0,0.5,0.1,0.7,0.2c-0.2-0.1-0.4-0.2-0.6-0.2c0.1,0.1,0.3,0.1,0.4,0.2c-0.2-0.1-0.3-0.3-0.5-0.4c0.1,0.1,0.2,0.1,0.2,0.2
					c-0.1-0.2-0.3-0.3-0.4-0.5c0,0.1,0.1,0.1,0.1,0.2c-0.1-0.2-0.2-0.4-0.2-0.6c0.1,0.1,0.1,0.2,0.1,0.4c0-0.2-0.1-0.4-0.1-0.6
					c0,0.1,0,0.2,0,0.3c0-0.2,0.1-0.4,0.1-0.6c0,0.1,0,0.2-0.1,0.3c0.1-0.2,0.2-0.4,0.2-0.6c-0.1,0.1-0.1,0.3-0.2,0.4
					c0.1-0.2,0.3-0.3,0.4-0.5c-0.1,0.2-0.3,0.3-0.5,0.5c0.2-0.1,0.3-0.3,0.5-0.4c-0.2,0.1-0.4,0.3-0.6,0.4c0.2-0.1,0.4-0.2,0.6-0.2
					c-0.3,0.1-0.7,0.2-1,0.3c0.2,0,0.4-0.1,0.6-0.1c-0.4,0-0.8,0-1.2,0c0.2,0,0.4,0.1,0.6,0.1c-0.4-0.1-0.8-0.2-1.3-0.4
					c0.2,0.1,0.4,0.2,0.6,0.2c-0.4-0.2-0.8-0.4-1.1-0.7c0.2,0.1,0.3,0.3,0.5,0.4c-0.3-0.3-0.7-0.6-0.9-0.9c0.1,0.2,0.3,0.3,0.4,0.5
					c-0.2-0.3-0.4-0.7-0.6-1c0.1,0.2,0.2,0.4,0.2,0.6c-0.1-0.3-0.2-0.6-0.3-0.9c-0.1-0.6-0.6-1.2-1.1-1.4c-0.5-0.3-1.3-0.4-1.8-0.2
					C325.6,593.6,325,594.8,325.3,596.1L325.3,596.1z"/>
			</g>
		</g>
		<g>
			<g>
				<path class="st13" d="M298.3,564.4c-4.5-2.8-8.9-5.6-13.4-8.4c-1.6-1-3.6,0.3-3.6,2.1c0,7.9,2.8,15.4,7.8,21.5
					c0.6-1.4,1.1-2.7,1.7-4.1c-8.2,0.1-16.5,0.2-24.7,0.3c-2,0-3.2,2.6-1.7,4.1c5.4,5.1,10.8,10.2,16.2,15.2c0.4-1.3,0.7-2.7,1.1-4
					c-6.1,1.5-11.4,5.2-15,10.3c-0.8,1.1-0.2,2.7,0.9,3.3c3.3,2,7.1,2.9,10.9,2.8c3.1-0.1,3.1-4.9,0-4.8c-3,0.1-5.9-0.6-8.5-2.1
					c0.3,1.1,0.6,2.2,0.9,3.3c2.9-4.1,7.3-6.9,12.1-8.1c1.7-0.4,2.4-2.8,1.1-4c-5.4-5.1-10.8-10.2-16.2-15.2
					c-0.6,1.4-1.1,2.7-1.7,4.1c8.2-0.1,16.5-0.2,24.7-0.3c2.2,0,3-2.5,1.7-4.1c-4.2-5.1-6.4-11.5-6.4-18.1c-1.2,0.7-2.4,1.4-3.6,2.1
					c4.5,2.8,8.9,5.6,13.4,8.4C298.5,570.2,300.9,566.1,298.3,564.4L298.3,564.4z"/>
			</g>
		</g>
		<g>
			<g>
				<path class="st13" d="M310.7,558.2c0.9-2,2-4,3.2-5.9c1.3-1.9,2.2-3.1,3.9-4.9c-1.3-0.4-2.7-0.7-4-1.1c1.4,4.4,2.7,8.8,4.1,13.2
					c0.4,1.2,1.7,2.1,3,1.7c1.2-0.4,2.1-1.7,1.7-3c-1.4-4.4-2.7-8.8-4.1-13.2c-0.5-1.7-2.7-2.4-4-1.1c-3.3,3.5-6,7.4-7.9,11.8
					c-0.5,1.1-0.4,2.6,0.9,3.3C308.5,559.7,310.1,559.5,310.7,558.2L310.7,558.2z"/>
			</g>
		</g>
		<g>
			<g>
				<path class="st13" d="M329.5,570.6c6.6-1.8,13.4-2.9,20.3-3.1c-0.7-1.2-1.4-2.4-2.1-3.6c-2.5,5.8-5.5,11.3-9.1,16.5
					c-0.8,1.2,0,3.2,1.4,3.5c7.1,1.6,14.2,3.1,21.3,4.7c-0.2-1.5-0.4-2.9-0.6-4.4c-4.9,3.7-9.8,7.4-14.8,11.1c-1.4,1-1.7,3.2,0,4.1
					c5.6,3.1,11.6,5.6,17.7,7.5c0.2-1.6,0.4-3.1,0.6-4.7c-7.2,0.3-14.4,0.5-21.6,0.8c-3.1,0.1-3.1,4.9,0,4.8
					c7.2-0.3,14.4-0.5,21.6-0.8c2.7-0.1,3.2-3.9,0.6-4.7c-5.7-1.8-11.3-4.2-16.6-7.1c0,1.4,0,2.8,0,4.1c4.9-3.7,9.8-7.4,14.8-11.1
					c1.5-1.1,1.6-3.9-0.6-4.4c-7.1-1.6-14.2-3.1-21.3-4.7c0.5,1.2,1,2.4,1.4,3.5c3.5-5.2,6.6-10.7,9.1-16.5c0.7-1.6-0.1-3.7-2.1-3.6
					c-7.3,0.2-14.5,1.3-21.5,3.2C325.3,566.8,326.5,571.4,329.5,570.6L329.5,570.6z"/>
			</g>
		</g>
	</g>
	<g>
		<g>
			<path class="st13" d="M240.4,553.2c2.8-0.5,5.7-0.5,8.5,0.1c-0.6-0.8-1.2-1.6-1.8-2.4c0.5,24.1,0.4,48.2-0.2,72.2
				c-0.2,6.8-0.4,13.6-0.6,20.4c0.8-0.8,1.7-1.7,2.5-2.5c-3.1-0.1-6.3-0.1-9.4-0.2c-3.2-0.1-3.2,4.9,0,5c3.1,0.1,6.3,0.1,9.4,0.2
				c1.4,0,2.4-1.2,2.5-2.5c0.9-24.1,1.3-48.1,1.1-72.2c0-6.8-0.1-13.6-0.3-20.4c0-1-0.8-2.2-1.8-2.4c-3.7-0.8-7.4-0.8-11.2-0.1
				c-1.3,0.2-2.1,1.9-1.7,3.1C237.7,552.8,239.1,553.4,240.4,553.2L240.4,553.2z"/>
		</g>
	</g>
	<g>
		<g>
			<path class="st13" d="M246.8,559.8c-0.1-0.5-0.3-1-0.4-1.4c-0.3-1.1-1.3-1.8-2.4-1.8c-1,0-2.3,0.8-2.4,1.8
				c-1.1,7.9-1.8,15.8-1.9,23.7c0,3.2,5,3.2,5,0c0.1-7.5,0.6-15,1.7-22.4c-1.6,0-3.2,0-4.8,0c0.1,0.5,0.3,1,0.4,1.4
				C242.9,564.2,247.7,562.9,246.8,559.8L246.8,559.8z"/>
		</g>
	</g>
	<g>
		<g>
			<path class="st13" d="M239.3,592.9c2.6,0,5.2,0,7.7,0c1.3,0,2.6-1.1,2.5-2.5c-0.1-1.4-1.1-2.5-2.5-2.5c-2.6,0-5.2,0-7.7,0
				c-1.3,0-2.6,1.1-2.5,2.5C236.9,591.7,237.9,592.9,239.3,592.9L239.3,592.9z"/>
		</g>
	</g>
	<g>
		<g>
			<path class="st13" d="M239.8,600c3.3,0.2,6.5,0.4,9.8,0.5c1.3,0.1,2.6-1.2,2.5-2.5c-0.1-1.4-1.1-2.4-2.5-2.5
				c-3.3-0.2-6.5-0.4-9.8-0.5c-1.3-0.1-2.6,1.2-2.5,2.5C237.4,598.9,238.4,599.9,239.8,600L239.8,600z"/>
		</g>
	</g>
	<g>
		<g>
			<path class="st15" d="M284,474.1c25,0,50.1,0,75.1,0c7.1,0,14.3,0,21.4,0c2.6,0,5.1-2.3,5-5c-0.1-2.7-2.2-5-5-5
				c-3.2,0-6.4,0-9.6,0c-7.7,0-15.4,0-23.1,0c-9.3,0-18.6,0-27.8,0c-8.1,0-16.1,0-24.2,0c-3.9,0-7.8-0.1-11.7,0c-0.1,0-0.1,0-0.2,0
				c-2.6,0-5.1,2.3-5,5C279.1,471.8,281.2,474.1,284,474.1c3.2,0,6.4,0,9.6,0c7.7,0,15.4,0,23.1,0c9.3,0,18.6,0,27.8,0
				c8.1,0,16.1,0,24.2,0c3.9,0,7.8,0.1,11.7,0c0.1,0,0.1,0,0.2,0c2.6,0,5.1-2.3,5-5c-0.1-2.7-2.2-5-5-5c-25,0-50.1,0-75.1,0
				c-7.1,0-14.3,0-21.4,0c-2.6,0-5.1,2.3-5,5C279.1,471.8,281.2,474.1,284,474.1z"/>
		</g>
	</g>
	<g>
		<g>
			<path class="st14" d="M238.7,604.8c-0.1,2.5-0.3,5.1-0.4,7.6c1.7,0,3.3,0,5,0c-0.2-2.5-0.5-5.1-0.7-7.6c-0.1-0.7-0.2-1.3-0.7-1.8
				c-0.4-0.4-1.1-0.8-1.8-0.7c-1.2,0.1-2.6,1.1-2.5,2.5c0.2,2.5,0.5,5.1,0.7,7.6c0.1,0.7,0.2,1.3,0.7,1.8c0.4,0.4,1.1,0.8,1.8,0.7
				c1.4-0.1,2.4-1.1,2.5-2.5c0.1-2.5,0.3-5.1,0.4-7.6c0.1-1.3-1.2-2.6-2.5-2.5C239.8,602.4,238.8,603.4,238.7,604.8L238.7,604.8z"/>
		</g>
	</g>
	<g>
		<g>
			<path class="st14" d="M241.1,618.6C241.1,618.6,241.1,618.6,241.1,618.6c0.1,0.1,0.3,0.2,0.4,0.3c0,0,0,0-0.1-0.1
				c0.1,0.2,0.3,0.3,0.4,0.5c0,0,0-0.1,0-0.1c0.1,0.2,0.2,0.4,0.3,0.6c0,0,0-0.1,0-0.1c0,0.2,0.1,0.4,0.1,0.7c0-0.1,0-0.1,0-0.2
				c0,0.2-0.1,0.4-0.1,0.7c0-0.1,0-0.1,0.1-0.2c-0.1,0.2-0.2,0.4-0.3,0.6c0-0.1,0.1-0.1,0.1-0.2c-0.1,0.2-0.3,0.3-0.4,0.5
				c0,0,0.1-0.1,0.1-0.1c-0.2,0.1-0.3,0.3-0.5,0.4c0,0,0.1,0,0.1-0.1c-0.2,0.1-0.4,0.2-0.6,0.3c0,0,0.1,0,0.1,0
				c-0.2,0-0.4,0.1-0.7,0.1c0,0,0.1,0,0.1,0c-0.2,0-0.4-0.1-0.7-0.1c0,0,0.1,0,0.1,0c-0.2-0.1-0.4-0.2-0.6-0.3c0,0,0,0,0,0
				c0.3,0.2,0.6,0.3,0.9,0.3c0.3,0.1,0.7,0.1,1,0c0.3-0.1,0.6-0.2,0.9-0.4c0.3-0.2,0.5-0.4,0.6-0.7c0.1-0.2,0.2-0.4,0.3-0.6
				c0.1-0.4,0.1-0.9,0-1.3c-0.1-0.2-0.2-0.4-0.3-0.6c-0.2-0.4-0.5-0.7-0.9-0.9c-0.6-0.3-0.8-0.3-1.4-0.4c0,0-0.1,0-0.1,0
				c-0.1,0-0.5,0-0.7,0.1c0,0,0,0,0,0c-0.1,0.1-0.5,0.2-0.6,0.3c0,0,0,0,0,0c0,0,0,0-0.1,0c0,0,0,0,0,0c-0.1,0.1-0.4,0.3-0.5,0.4
				c0,0,0,0,0,0c0,0,0,0-0.1,0.1c-0.2,0.2-0.3,0.4-0.4,0.6c0,0,0,0.1,0,0.1c-0.1,0.2-0.2,0.5-0.3,0.8c0,0,0,0.1,0,0.1c0,0,0,0,0,0
				c0,0.2-0.1,0.5-0.1,0.7c0,0,0,0,0,0c0,0,0,0.1,0,0.1c0,0.2,0,0.5,0.1,0.7c0,0,0,0,0,0c0,0,0,0,0,0c0.1,0.2,0.2,0.4,0.3,0.6
				c0,0,0,0,0,0c0.1,0.1,0.2,0.2,0.2,0.3c0.1,0.1,0.2,0.2,0.3,0.3c0.1,0.1,0.4,0.3,0.6,0.4c0.3,0.2,0.6,0.3,0.9,0.3
				c0.3,0.1,0.7,0.1,1,0c0.3-0.1,0.6-0.2,0.9-0.4c0.3-0.2,0.5-0.4,0.6-0.7c0.1-0.2,0.2-0.4,0.3-0.6c0.1-0.4,0.1-0.9,0-1.3
				c-0.1-0.2-0.2-0.4-0.3-0.6C241.8,619.2,241.5,618.9,241.1,618.6L241.1,618.6z"/>
		</g>
	</g>
	<g>
		<g>
			<path class="st14" d="M262.1,542c27.3-0.1,54.6-0.1,81.9-0.2c7.7,0,15.3,0,23-0.1c2.9,0,2.9-4.6,0-4.5
				c-27.3,0.1-54.6,0.1-81.9,0.2c-7.7,0-15.3,0-23,0.1C259.1,537.5,259.1,542,262.1,542L262.1,542z"/>
		</g>
	</g>
	<g>
		<g>
			<path class="st14" d="M261.5,656.9c27.4,0.1,54.8,0.2,82.2,0.3c7.7,0,15.5,0.1,23.2,0.1c2.9,0,2.9-4.5,0-4.5
				c-27.4-0.1-54.8-0.2-82.2-0.3c-7.7,0-15.5-0.1-23.2-0.1C258.6,652.4,258.6,656.9,261.5,656.9L261.5,656.9z"/>
		</g>
	</g>

<animateTransform attributeType="XML" attributeName="transform" begin="0s" dur="32s" type="rotate" from="0 700 700" to="360 0 0" repeatCount="indefinite" />
</g>



<g>
	<g>
		<path class="st16" d="M778.8,481.7c-26.3,4.8-52.5,9.6-78.8,14.4c22.1,15.4,44.3,30.7,66.4,46.1c-4.4,29.5-8.8,59.1-13.1,88.6
			c22.7-21.8,45.4-43.6,68.1-65.4c32.5,14.2,65,28.5,97.5,42.7c-18.3-29.1-36.5-58.1-54.8-87.2c21.5-19,42.9-38,64.4-57
			c-30.4,3-60.8,5.9-91.2,8.9c-15.2-26.3-30.4-52.5-45.6-78.8C787.4,423.2,783.1,452.4,778.8,481.7z"/>
		<g>
			<path class="st16" d="M776.7,474c-20.5,3.7-40.9,7.5-61.4,11.2c-5.8,1.1-11.6,2.1-17.4,3.2c-1.2,0.2-2.7,1.2-3.5,2.1
				c-1.3,1.3-2,2.9-2.2,4.6c-0.4,3.3,1.1,6.1,3.8,8c17.2,11.9,34.4,23.9,51.6,35.8c4.9,3.4,9.8,6.8,14.8,10.2c-1.2-3-2.5-6-3.7-9
				c-3.4,23-6.8,46-10.2,68.9c-1,6.6-1.9,13.1-2.9,19.7c-0.3,1.9-0.3,3.4,0.4,5.2c0.6,1.5,1.8,3,3.3,3.8c3.2,1.7,7,1.3,9.7-1.3
				c17.6-17,35.3-33.9,52.9-50.9c5-4.8,10.1-9.7,15.1-14.5c-3.2,0.4-6.5,0.8-9.7,1.3c25.3,11.1,50.7,22.2,76,33.3
				c7.2,3.1,14.3,6.3,21.5,9.4c1.7,0.7,3.2,1.2,5.1,0.9c1.7-0.2,3.4-0.9,4.6-2.2c2.4-2.6,3.2-6.6,1.3-9.7
				c-14.3-22.7-28.6-45.4-42.8-68.2c-4-6.3-8-12.7-12-19c-0.4,3.2-0.8,6.5-1.3,9.7c16.7-14.8,33.5-29.6,50.2-44.4
				c4.7-4.2,9.5-8.4,14.2-12.6c2.4-2.1,2.8-6,1.7-8.7c-1.1-2.7-4.2-5.2-7.3-4.9c-23.7,2.3-47.4,4.6-71.1,7c-6.7,0.7-13.4,1.3-20.1,2
				c2.3,1.3,4.6,2.6,6.9,4c-11.8-20.4-23.7-40.9-35.5-61.3c-3.4-5.8-6.7-11.6-10.1-17.4c-1.6-2.8-4.8-4.2-8-3.8
				c-1.4,0.2-2.6,0.7-3.8,1.6c-1.2,1-2.6,2.5-2.9,4.2c-3.4,22.8-6.7,45.7-10.1,68.5c-0.9,6.4-1.9,12.8-2.8,19.2
				c-0.3,2.2-0.4,4.2,0.8,6.2c1,1.7,2.9,3.2,4.8,3.7c2,0.5,4.3,0.4,6.2-0.8c1.6-1,3.4-2.8,3.7-4.8c3.4-22.8,6.7-45.7,10.1-68.5
				c0.9-6.4,1.9-12.8,2.8-19.2c-4.9,0.6-9.7,1.3-14.6,1.9c11.8,20.4,23.7,40.9,35.5,61.3c3.4,5.8,6.7,11.6,10.1,17.4
				c1.3,2.3,4.2,4.2,6.9,4c23.7-2.3,47.4-4.6,71.1-7c6.7-0.7,13.4-1.3,20.1-2c-1.9-4.6-3.8-9.1-5.7-13.7
				c-16.7,14.8-33.5,29.6-50.2,44.4c-4.7,4.2-9.5,8.4-14.2,12.6c-2.6,2.3-3,6.8-1.3,9.7c14.3,22.7,28.6,45.4,42.8,68.2
				c4,6.3,8,12.7,12,19c3.6-3.6,7.3-7.3,10.9-10.9c-25.3-11.1-50.7-22.2-76-33.3c-7.2-3.1-14.3-6.3-21.5-9.4
				c-1.7-0.7-3.2-1.2-5.1-0.9c-1.8,0.2-3.3,0.9-4.6,2.2c-17.6,17-35.3,33.9-52.9,50.9c-5,4.8-10.1,9.7-15.1,14.5
				c4.5,2.6,8.9,5.2,13.4,7.8c3.4-23,6.8-46,10.2-68.9c1-6.6,1.9-13.1,2.9-19.7c0.3-1.9,0.3-3.4-0.4-5.2c-0.7-1.7-1.8-2.8-3.3-3.8
				c-17.2-11.9-34.4-23.9-51.6-35.8c-4.9-3.4-9.8-6.8-14.8-10.2c-0.6,4.9-1.3,9.7-1.9,14.6c20.5-3.7,40.9-7.5,61.4-11.2
				c5.8-1.1,11.6-2.1,17.4-3.2c1.9-0.3,3.9-2.1,4.8-3.7c1-1.7,1.4-4.2,0.8-6.2c-0.6-1.9-1.8-3.8-3.7-4.8
				C780.8,473.7,778.9,473.5,776.7,474z"/>
		</g>
	</g>
	<g>
		<g>
			<path class="st17" d="M772.1,487.2c5.7,2.5,11.7,4,18,4.5c1.3,0.1,2.6-1.2,2.5-2.5c-0.1-1.4-1.1-2.4-2.5-2.5
				c-5.2-0.3-10.6-1.7-15.4-3.8c-1.2-0.5-2.7-0.4-3.4,0.9C770.6,484.8,770.9,486.6,772.1,487.2L772.1,487.2z"/>
		</g>
	</g>
	<g>
		<g>
			<path class="st17" d="M808.6,483.2c-0.2,0-0.4,0-0.7,0.1c0.4,1.6,0.8,3.1,1.3,4.7c6.3-2.8,12.8-5.3,19.5-7.5
				c1.3-0.4,2.1-1.7,1.7-3.1c-0.3-1.3-1.8-2.2-3.1-1.7c-7,2.3-13.9,4.9-20.7,8c-2.2,1-1.2,4.9,1.3,4.7c0.2,0,0.4,0,0.7-0.1
				c1.3-0.1,2.5-1,2.5-2.5C811.1,484.4,810,483,808.6,483.2L808.6,483.2z"/>
		</g>
	</g>
	<g>
		<g>
			<path class="st17" d="M776.9,500.3c6.3-0.5,12.7-0.6,19.1-0.3c1.4,0.1,2.5-1.2,2.5-2.5c0-0.2,0-0.4,0-0.7c0-1.4-1.2-2.5-2.5-2.5
				c-1.4,0-2.5,1.1-2.5,2.5c0,0.2,0,0.4,0,0.7c0.8-0.8,1.7-1.7,2.5-2.5c-6.4-0.3-12.7-0.2-19.1,0.3c-1.3,0.1-2.5,1.1-2.5,2.5
				C774.4,499,775.5,500.4,776.9,500.3L776.9,500.3z"/>
		</g>
	</g>
	<g>
		<g>
			<path class="st17" d="M785.2,499.7C785.2,499.7,785.2,499.7,785.2,499.7c-0.1-0.1-0.1-0.3-0.2-0.5c0.1,0.3,0.2,0.5,0.2,0.8
				c0-0.2-0.1-0.4-0.1-0.7c0,0.3,0,0.6,0,0.9c0-0.2,0.1-0.4,0.1-0.7c0,0.3-0.1,0.6-0.2,0.8C785,500.1,785.1,499.9,785.2,499.7
				c-0.1,0.2-0.2,0.4-0.3,0.6C785,500.1,785.1,499.9,785.2,499.7c0,0.2-0.2,0.4-0.3,0.5c0.2-0.1,0.3-0.3,0.5-0.4
				c-0.2,0.1-0.3,0.2-0.5,0.3c0.2-0.1,0.4-0.2,0.6-0.3c-0.2,0.1-0.4,0.1-0.6,0.2c0.2,0,0.4-0.1,0.7-0.1c-0.2,0-0.4,0-0.7,0
				c0.2,0,0.4,0.1,0.7,0.1c-0.2,0-0.4-0.1-0.6-0.2c0.2,0.1,0.4,0.2,0.6,0.3c-0.2-0.1-0.3-0.2-0.5-0.3c0.2,0.1,0.3,0.3,0.5,0.4
				c-0.1-0.1-0.2-0.2-0.3-0.3c0.1,0.2,0.3,0.3,0.4,0.5c-0.1-0.1-0.2-0.2-0.2-0.4c0.1,0.2,0.2,0.4,0.3,0.6c-0.1-0.1-0.1-0.3-0.1-0.4
				c0,0.2,0.1,0.4,0.1,0.7c0-0.1,0-0.3,0-0.4c0,0.2-0.1,0.4-0.1,0.7c0-0.2,0.1-0.3,0.1-0.4c-0.1,0.2-0.2,0.4-0.3,0.6
				c0.1-0.2,0.2-0.3,0.3-0.5c-0.1,0.2-0.3,0.3-0.4,0.5c0.1-0.1,0.2-0.3,0.4-0.4c-0.2,0.1-0.3,0.3-0.5,0.4c0.1-0.1,0.3-0.2,0.4-0.2
				c-0.2,0.1-0.4,0.2-0.6,0.3c0.1-0.1,0.3-0.1,0.4-0.1c-0.2,0-0.4,0.1-0.7,0.1c0.1,0,0.2,0,0.3,0c-0.2,0-0.4-0.1-0.7-0.1
				c0.1,0,0.2,0,0.3,0.1c0.3,0.1,0.7,0.1,1,0c0.3,0,0.6-0.1,0.9-0.3c0.5-0.3,1-0.9,1.1-1.5c0.1-0.6,0.1-1.4-0.3-1.9
				c-0.1-0.2-0.3-0.3-0.4-0.5c-0.3-0.3-0.7-0.5-1.1-0.6c-0.7-0.3-1.7-0.3-2.4,0c-0.6,0.3-1,0.4-1.5,0.9c-0.3,0.3-0.6,0.6-0.8,1
				c-0.5,0.7-0.7,1.5-0.7,2.3c0,0.4,0,0.8,0.2,1.2c0.2,0.7,0.5,1,0.9,1.6c0.5,0.6,1.2,1,2,1.3c0.6,0.2,1.2,0.3,1.8,0.3
				c0.8-0.1,1.6-0.2,2.3-0.7c0.7-0.4,1.3-1.1,1.7-1.8c0.4-0.8,0.7-1.7,0.7-2.6c0-0.5-0.1-0.9-0.1-1.4c-0.1-0.5-0.3-0.9-0.5-1.3
				c-0.2-0.3-0.4-0.5-0.6-0.7c-0.2-0.2-0.5-0.4-0.9-0.4c-0.6-0.2-1.4-0.1-1.9,0.3c-0.5,0.3-1,0.9-1.1,1.5c0,0.2-0.1,0.4-0.1,0.7
				C784.8,498.9,784.9,499.3,785.2,499.7L785.2,499.7z"/>
		</g>
	</g>
	<g>
		<g>
			<path class="st17" d="M809.8,497.4c5.8-2.1,11.8-3.4,17.9-3.7c-0.6-1.4-1.2-2.8-1.8-4.3c-0.1,0.1-0.1,0.1-0.2,0.2
				c-0.9,1-1,2.6,0,3.5c0.9,0.9,2.6,1,3.5,0c0.1-0.1,0.1-0.1,0.2-0.2c1.4-1.5,0.5-4.4-1.8-4.3c-6.6,0.3-13.1,1.6-19.2,3.9
				c-1.3,0.5-2.1,1.7-1.7,3.1C807.1,496.8,808.5,497.8,809.8,497.4L809.8,497.4z"/>
		</g>
	</g>
	<g>
		<g>
			<path class="st17" d="M817.2,492.8c-0.2,0.3-0.3,0.6-0.5,0.8c0.1-0.2,0.3-0.3,0.4-0.5c-0.3,0.4-0.6,0.7-1,1
				c0.2-0.1,0.3-0.3,0.5-0.4c-0.4,0.3-0.8,0.5-1.2,0.7c0.2-0.1,0.4-0.2,0.6-0.3c-0.3,0.1-0.7,0.2-1,0.3c0.2,0,0.4-0.1,0.7-0.1
				c-0.2,0-0.5,0-0.7,0c0.2,0,0.4,0.1,0.7,0.1c-0.2,0-0.3-0.1-0.5-0.1c0.2,0.1,0.4,0.2,0.6,0.3c-0.1-0.1-0.2-0.1-0.4-0.2
				c0.2,0.1,0.3,0.3,0.5,0.4c-0.1-0.1-0.2-0.2-0.3-0.3c0.1,0.2,0.3,0.3,0.4,0.5c-0.1-0.1-0.1-0.2-0.2-0.3c0.1,0.2,0.2,0.4,0.3,0.6
				c-0.1-0.1-0.1-0.3-0.1-0.4c0,0.2,0.1,0.4,0.1,0.7c0-0.1,0-0.2,0-0.3c0,0.2-0.1,0.4-0.1,0.7c0-0.1,0-0.2,0.1-0.3
				c-0.1,0.2-0.2,0.4-0.3,0.6c0-0.1,0.1-0.1,0.1-0.2c-0.1,0.2-0.3,0.3-0.4,0.5c0,0,0.1-0.1,0.1-0.1c0.4-0.5,0.7-1.1,0.7-1.8
				c0-0.6-0.3-1.3-0.7-1.8c-0.5-0.4-1.1-0.8-1.8-0.7c-0.6,0-1.3,0.2-1.8,0.7c-0.6,0.7-1,1.6-1,2.5c0,0.7,0.2,1.5,0.6,2.1
				c0.9,1.3,2.4,2.1,4,1.9c1.3-0.1,2.5-0.5,3.5-1.3c1-0.7,1.9-1.6,2.5-2.7c0.3-0.6,0.4-1.3,0.3-1.9c-0.2-0.6-0.6-1.2-1.1-1.5
				c-0.6-0.3-1.3-0.5-1.9-0.3C818.1,491.8,817.5,492.2,817.2,492.8L817.2,492.8z"/>
		</g>
	</g>
	<g>
		<g>
			<path class="st17" d="M790,491.3c6,6.6,3.5,16.4,1.6,24.1c-0.8,3.1,4,4.5,4.8,1.3c2.4-9.6,4.4-20.9-2.9-29
				C791.4,485.4,787.8,489,790,491.3L790,491.3z"/>
		</g>
	</g>
	<g>
		<g>
			<path class="st17" d="M791.7,515.5c-1.3,2.7-1.3,5.6,0,8.3c1.1,2.3,3.1,3.9,5.4,4.7c1.2,0.4,2.8-0.5,3.1-1.7
				c0.3-1.4-0.4-2.6-1.7-3.1c-0.1,0-0.2-0.1-0.3-0.1c0.6,0.2,0.3,0.1,0.1,0.1c-0.2-0.1-0.3-0.2-0.5-0.3c-0.2-0.1-0.4-0.2-0.5-0.3
				c-0.3-0.2,0.1,0.1,0.2,0.1c-0.1-0.1-0.2-0.2-0.3-0.2c-0.2-0.1-0.3-0.3-0.4-0.4c-0.1-0.1-0.1-0.1-0.2-0.2
				c-0.2-0.2,0.1,0.1,0.1,0.2c-0.2-0.4-0.5-0.7-0.7-1.1c0-0.1-0.1-0.2-0.1-0.3c0.1,0.1,0.2,0.5,0.1,0.2c-0.1-0.2-0.1-0.5-0.2-0.7
				c0-0.1,0-0.2-0.1-0.3c0-0.2,0-0.5,0,0.1c0-0.2,0-0.4,0-0.6c0-0.2,0-0.5,0-0.7c0-0.1,0-0.5,0-0.1c-0.1,0.4,0,0,0-0.1
				c0-0.2,0.1-0.4,0.2-0.6c0-0.1,0.1-0.2,0.1-0.4c0.1-0.3-0.3,0.6,0,0.1c0.3-0.6,0.4-1.2,0.3-1.9c-0.2-0.6-0.6-1.2-1.1-1.5
				C794,514,792.3,514.2,791.7,515.5L791.7,515.5z"/>
		</g>
	</g>
	<g>
		<g>
			<path class="st17" d="M808.3,506.8c2.9,2,6.9,2.5,10.2,1.2c0.6-0.3,1.1-0.5,1.5-1.1c0.3-0.5,0.4-1.3,0.3-1.9
				c-0.2-0.6-0.6-1.2-1.1-1.5c-0.6-0.3-1.3-0.5-1.9-0.3c-0.7,0.3-1.3,0.4-2,0.5c0.2,0,0.4-0.1,0.7-0.1c-0.8,0.1-1.6,0.1-2.4,0
				c0.2,0,0.4,0.1,0.7,0.1c-0.8-0.1-1.5-0.3-2.3-0.6c0.2,0.1,0.4,0.2,0.6,0.3c-0.6-0.2-1.1-0.5-1.6-0.9c-0.5-0.4-1.3-0.4-1.9-0.3
				c-0.6,0.2-1.2,0.6-1.5,1.1C806.7,504.7,807.1,506,808.3,506.8L808.3,506.8z"/>
		</g>
	</g>
	<g>
		<g>
			<path class="st17" d="M785.3,508.2c-0.2-0.3-0.4-0.6-0.6-0.9c-1.1,1.1-2.3,2.3-3.4,3.4c2.5,1.6,5.6,2.4,8.5,2
				c0.7-0.1,1.3-0.2,1.8-0.7c0.4-0.4,0.8-1.1,0.7-1.8c0-0.6-0.2-1.3-0.7-1.8c-0.5-0.4-1.1-0.8-1.8-0.7c-0.9,0.1-1.9,0.1-2.8,0
				c0.2,0,0.4,0.1,0.7,0.1c-0.9-0.1-1.8-0.4-2.7-0.7c0.2,0.1,0.4,0.2,0.6,0.3c-0.6-0.3-1.2-0.6-1.7-0.9c-0.9-0.6-2.3-0.4-3,0.4
				c-0.7,0.8-1,2-0.4,3c0.2,0.3,0.4,0.6,0.6,0.9c0.7,1.1,2.3,1.6,3.4,0.9C785.5,510.9,786,509.4,785.3,508.2L785.3,508.2z"/>
		</g>
	</g>
	<g>
		<g>
			<path class="st17" d="M798.6,540.5c4.5-0.5,9-0.4,13.5,0.1c1.3,0.2,2.6-1.3,2.5-2.5c-0.1-1.5-1.1-2.3-2.5-2.5
				c-4.5-0.6-9-0.6-13.5-0.1c-1.3,0.1-2.6,1-2.5,2.5C796.1,539.3,797.2,540.7,798.6,540.5L798.6,540.5z"/>
		</g>
	</g>
	<g>
		<g>
			<path class="st17" d="M799.6,549.2c3.5,0.2,7.1,0.3,10.6,0.5c1.3,0.1,2.6-1.2,2.5-2.5c-0.1-1.4-1.1-2.4-2.5-2.5
				c-3.5-0.2-7.1-0.3-10.6-0.5c-1.3-0.1-2.6,1.2-2.5,2.5C797.2,548.1,798.2,549.1,799.6,549.2L799.6,549.2z"/>
		</g>
	</g>
	<g>
		<g>
			<path class="st17" d="M790.1,518.3c-0.7,1.6-1.3,3.2-1.4,5c-0.1,1.8,0.6,3.7,1.9,4.9c1.1,1.1,2.6,1.8,4.1,2
				c2,0.3,3.8,0.1,5.7-0.3c0.6-0.1,1.2-0.7,1.5-1.1c0.3-0.5,0.4-1.3,0.3-1.9c-0.2-0.6-0.6-1.2-1.1-1.5c-0.6-0.3-1.2-0.4-1.9-0.3
				c-0.4,0.1-0.9,0.1-1.3,0.2c0.2,0,0.4-0.1,0.7-0.1c-1,0.1-2,0.2-3,0.1c0.2,0,0.4,0.1,0.7,0.1c-0.5-0.1-1.1-0.2-1.6-0.4
				c0.2,0.1,0.4,0.2,0.6,0.3c-0.2-0.1-0.4-0.2-0.7-0.3c-0.1-0.1-0.2-0.2-0.3-0.2c0.3,0.3,0.4,0.3,0.2,0.2c0,0-0.1-0.1-0.1-0.1
				c-0.1-0.1-0.2-0.2-0.3-0.3c-0.4-0.4,0.2,0.3,0.1,0.1c-0.2-0.2-0.3-0.5-0.4-0.7c0.1,0.2,0.2,0.4,0.3,0.6c-0.1-0.3-0.2-0.6-0.2-0.9
				c0,0.2,0.1,0.4,0.1,0.7c-0.1-0.5,0-0.9,0-1.4c0,0.2-0.1,0.4-0.1,0.7c0.2-1.1,0.5-2.1,0.9-3.1c-0.1,0.2-0.2,0.4-0.3,0.6
				c0-0.1,0.1-0.2,0.1-0.3c0.3-0.6,0.4-1.2,0.3-1.9c-0.2-0.6-0.6-1.2-1.1-1.5c-0.6-0.3-1.3-0.5-1.9-0.3
				C791,517.3,790.3,517.7,790.1,518.3L790.1,518.3z"/>
		</g>
	</g>
	<g>
		<g>
			<path class="st17" d="M808.3,520.6c1.4,3.5,3.7,6.4,6.9,8.3c3.5,2.1,7.7,2.6,11.6,1.8c1.3-0.3,2.1-1.8,1.7-3.1
				c-0.4-1.4-1.7-2-3.1-1.7c-0.2,0-0.3,0.1-0.5,0.1c-0.8,0.2,0.2,0-0.3,0c-0.4,0-0.7,0.1-1.1,0.1c-0.4,0-0.8,0-1.2,0
				c-0.2,0-0.4,0-0.5,0c-0.8-0.1,0.2,0-0.3,0c-0.7-0.1-1.5-0.3-2.2-0.6c-0.2-0.1-0.3-0.1-0.5-0.2c0.3,0.1-0.2-0.1-0.3-0.1
				c-0.3-0.2-0.7-0.3-1-0.5c-0.3-0.2-0.5-0.3-0.8-0.5c0,0-0.5-0.4-0.3-0.2c0.2,0.1-0.2-0.2-0.2-0.2c-0.5-0.4-1-0.9-1.5-1.4
				c-0.1-0.2-0.3-0.3-0.4-0.5c-0.3-0.3,0.2,0.3,0-0.1c-0.2-0.3-0.4-0.6-0.6-0.9c-0.2-0.3-0.3-0.6-0.5-0.8c-0.1-0.2-0.2-0.4-0.3-0.5
				c-0.2-0.4,0.2,0.5-0.1-0.2c-0.5-1.2-1.7-2.2-3.1-1.7C808.9,517.9,807.8,519.3,808.3,520.6L808.3,520.6z"/>
		</g>
	</g>
	<g>
		<g>
			<path class="st17" d="M792,524.5c-1.1-0.4-2.5-0.1-3.5,0.6c-0.8,0.6-1.4,1.3-2,2c-1.1,1.4-2.2,2.8-3.3,4.2
				c-0.4,0.5-0.7,1-0.7,1.8c0,0.6,0.3,1.3,0.7,1.8c0.5,0.4,1.1,0.8,1.8,0.7c0.6,0,1.4-0.2,1.8-0.7c0.8-1,1.6-2,2.4-3.1
				c0.4-0.5,0.8-1,1.2-1.5c0.3-0.4,0.7-0.9,1.1-1.2c-0.2,0.1-0.3,0.3-0.5,0.4c0.2-0.1,0.4-0.3,0.6-0.4c-0.2,0.1-0.4,0.2-0.6,0.3
				c0.1-0.1,0.3-0.1,0.4-0.1c-0.2,0-0.4,0.1-0.7,0.1c0.1,0,0.2,0,0.4,0c-0.2,0-0.4-0.1-0.7-0.1c0.1,0,0.2,0,0.3,0.1
				c0.6,0.2,1.4,0.1,1.9-0.3c0.5-0.3,1-0.9,1.1-1.5c0.1-0.6,0.1-1.4-0.3-1.9C793.1,525.1,792.6,524.8,792,524.5L792,524.5z"/>
		</g>
	</g>
	<g>
		<g>
			<path class="st17" d="M799.6,534.3c-0.4,0-0.7,0-1,0c0.2,0,0.4,0.1,0.7,0.1c-0.6-0.1-1.1-0.2-1.6-0.4c0.2,0.1,0.4,0.2,0.6,0.3
				c-0.3-0.1-0.6-0.3-0.9-0.5c-0.7-0.5-1.8-0.4-2.5,0c-0.4,0.2-0.7,0.5-0.9,0.9c-0.2,0.4-0.3,0.8-0.3,1.3c-0.2,1.5-0.3,3.1-0.5,4.6
				c0,0.5,0.1,0.9,0.3,1.3c0.2,0.4,0.5,0.7,0.9,0.9c0.7,0.4,1.8,0.5,2.5,0c1.4-1,2.7-2,4.1-2.9c0.3-0.2,0.5-0.4,0.7-0.6
				c0.2-0.2,0.4-0.5,0.4-0.9c0.2-0.6,0.1-1.4-0.3-1.9c-0.3-0.5-0.9-1-1.5-1.1c-0.6-0.1-1.4-0.1-1.9,0.3c-1.4,1-2.7,2-4.1,2.9
				c1.3,0.7,2.5,1.4,3.8,2.2c0.2-1.5,0.3-3.1,0.5-4.6c-1.3,0.7-2.5,1.4-3.8,2.2c1.4,0.9,3.2,1.4,4.9,1.3c0.7,0,1.3-0.3,1.8-0.7
				c0.4-0.4,0.8-1.1,0.7-1.8c0-0.6-0.2-1.3-0.7-1.8C800.9,534.6,800.3,534.3,799.6,534.3L799.6,534.3z"/>
		</g>
	</g>
	<g>
		<g>
			<path class="st18" d="M781.3,419.2c9.4,1,18.7-2,26.1-7.8c1.1-0.8,0.9-2.7,0-3.5c-1-1-2.5-0.8-3.5,0c-6.3,5-14.6,7.1-22.6,6.3
				c-1.3-0.1-2.5,1.2-2.5,2.5C778.8,418.2,780,419.1,781.3,419.2L781.3,419.2z"/>
		</g>
	</g>
	<g>
		<g>
			<path class="st18" d="M807.1,409.1c-7.6,4.3-16.1,10.2-25.2,7.3c-3.1-1-4.4,3.8-1.3,4.8c10.6,3.4,20.2-2.8,29.1-7.8
				C812.5,411.8,809.9,407.5,807.1,409.1L807.1,409.1z"/>
		</g>
	</g>
	<g>
		<g>
			<path class="st17" d="M774.9,404.5c-1.8-5.4-4.1-11.9-1.3-17.3c2.8-5.3,9.7-5.3,15-5.9c3.4-0.4,6.9-0.9,10.3-1
				c2.5,0,4.5,0.6,5.6,3c2.2,4.5,1.1,11.1,6.7,13.4c1.7,0.7,3.5,0.5,5.3,0.2c1.9-0.3,3.9-0.6,5.8-1c4.1-0.7,8.2-1.4,12.3-2
				c-0.8-1.4-1.6-2.8-2.4-4.2c-8.7,7-18.5,12.6-29,16.5c-10,3.7-21.1,6.4-31.9,6c-5.5-0.2-11.3-1.5-15.6-5c-0.4,1.4-0.7,2.8-1.1,4.2
				c6-0.8,12-1.6,18-2.5c1.3-0.2,2.1-1.9,1.7-3.1c-0.4-1.4-1.7-1.9-3.1-1.7c-6,0.8-12,1.6-18,2.5c-1.8,0.2-2.5,3.1-1.1,4.2
				c9.2,7.5,21.6,7.2,32.7,5.4c11.9-1.9,23.4-5.9,34-11.6c6-3.2,11.6-7,16.9-11.3c0.8-0.7,0.9-2.1,0.4-3c-0.6-1-1.7-1.3-2.8-1.1
				c-3.8,0.6-7.5,1.2-11.3,1.9c-1.8,0.3-3.6,0.6-5.4,0.9c-1.2,0.2-3,0.7-4-0.1c-1.6-1.2-1.8-4.2-2.1-6c-0.6-2.8-1.5-5.7-3.6-7.8
				c-2.5-2.4-5.9-2.9-9.3-2.7c-3.5,0.2-7,0.7-10.5,1.1c-6.5,0.8-13.7,1.3-17.5,7.5c-4.1,6.8-1.9,14.8,0.4,21.8
				C771.1,408.8,775.9,407.5,774.9,404.5L774.9,404.5z"/>
		</g>
	</g>
	<g>
		<g>
			<path class="st17" d="M773,409.3c16.8,2.1,31.8-7.4,47.7-10.5c-0.6-1.5-1.3-3-1.9-4.6c-13.2,7.6-28.3,11.9-43.6,12.2
				c-4.7,0.1-9.4-0.1-14.1,0.6c-1.8,0.3-2.5,3.1-1.1,4.2c7.1,5.6,16.5,4,24.7,2.3c9.2-1.9,18.1-4.8,26.7-8.5c4.8-2.1,9.5-4.5,14-7.1
				c2.8-1.6,0.3-5.9-2.5-4.3c-7.5,4.3-15.3,8-23.5,10.7c-4.1,1.4-8.3,2.6-12.5,3.6c-3.9,0.9-7.9,1.8-12,2.1
				c-3.8,0.3-8.2,0.1-11.4-2.4c-0.4,1.4-0.7,2.8-1.1,4.2c4.1-0.7,8.2-0.4,12.3-0.4c3.9-0.1,7.9-0.4,11.8-0.9
				c7.7-1.1,15.3-3.1,22.6-6c4.2-1.7,8.3-3.7,12.2-5.9c2.6-1.5,0.8-5.1-1.9-4.6c-15.5,3-30.1,12.4-46.4,10.4
				c-1.3-0.2-2.5,1.3-2.5,2.5C770.5,408.3,771.6,409.1,773,409.3L773,409.3z"/>
		</g>
	</g>
	<g>
		<g>
			<path class="st17" d="M776,394.4c-0.3-0.1-0.6-0.1-1-0.2c-0.4,1.6-0.9,3.2-1.3,4.8c1.2,0.2,2.5,0.4,3.7,0.5
				c1.3,0.2,2.7-0.3,3.1-1.7c0.3-1.2-0.4-2.9-1.7-3.1c-1.6-0.3-3.2-0.5-4.8-0.8c-0.4,1.6-0.9,3.2-1.3,4.8c6.8,1.1,13.6,0.2,20.2-1.3
				c3.1-0.7,6.4-1.4,9.3-2.6c2.9-1.2,5.4-3.5,5.8-6.8c0.3-2.9-1.6-5.6-4.1-6.9c-2.9-1.5-6.2-1.3-9.4-1c-3.5,0.3-7,0.6-10.5,0.8
				c-3,0.2-6.2,0.2-9,1.3c-6.5,2.5-7.3,9.7-5.4,15.7c1.5-0.6,3-1.3,4.6-1.9c-0.4-0.9-0.8-1.8-1.2-2.7c-1.4,0.8-2.9,1.7-4.3,2.5
				c0.2,0.3,0.2,0.2,0.1,0.4c-1,1.7,0.3,3.6,2.2,3.8c11.4,0.8,23-2.3,32.5-8.6c1.5-1,1.8-3.4,0-4.3c-2-1-4-1.9-6-2.9
				c-0.2,1.5-0.4,3-0.6,4.6c1.2-0.4,2.4-0.3,3.6,0.3c-0.2-1.3-0.3-2.6-0.5-3.9c-1,0.8-2.2,1.3-3.4,1.6c-0.6,0.2-1.1,0.3-1.7,0.3
				c-0.3,0-0.7,0-1,0c-0.1,0-0.3,0-0.4,0c-0.8-0.1-0.6,0.1,0.5,0.6c0.1,0.4,0.2,0.8,0.3,1.3c0,0,0,0,0,0c-0.2,0.4-0.4,0.7-0.6,1.1
				c0.9-1.1,3.2-1,4.5-0.8c-0.4-1.6-0.8-3.1-1.3-4.7c-1,0.7-2,1.3-3.1,1.8c-0.5,0.2-1,0.4-1.6,0.6c-0.3,0.1-0.5,0.2-0.8,0.2
				c-0.7,0.2-0.7,0,0,0.8c0.4,0.1,0.6,0.4,0.5,0.7c0,0.1,0,0.2-0.1,0.2c0.2,0.2-0.1,0.1,0,0.1c0,0,1.2-0.3,1.4-0.3
				c1.2-0.2,2.3-0.4,3.3-1.1c-0.8-1.4-1.7-2.9-2.5-4.3c-1.9,1.5-4.3,2.6-6.7,2.7c-0.1,0-0.4,0-0.5,0c0.1,0,0,0-0.1,0
				c-0.8-0.3-0.7,0.4,0.4,2.1c0.4-0.1,1-0.5,1.4-0.6c1.1-0.3,2.2-0.4,3.3-0.2c-0.4-1.4-0.7-2.8-1.1-4.2c-1,1.1-2.2,2-3.7,2.6
				c-1,0.4-2.9,1.1-3.9,0.6c0.4,0.2,0.7,0.4,1.1,0.6c0,0,0,0,0,0c0.1,0.4,0.2,0.8,0.3,1.3c-0.6,1-0.7,1.3-0.4,0.9
				c0.3-0.1,0.5-0.1,0.8-0.2c0.2,0,0.8,0,0.9,0c-0.1,0.1-0.2-1.4-0.1-1.3c0,0-1.1,0.5-1.2,0.5c-1.7,0.5-3.6,0.4-5.3-0.4
				c0,1.4,0,2.9,0,4.3c2.9-2,6.7-2.6,10-1.1c-0.2-1.3-0.3-2.6-0.5-3.9c-2.2,2.3-5.6,2.5-8.2,0.7c-0.2,1.5-0.4,3-0.6,4.6
				c2.6-1,5.3-1.3,8-0.7c-0.2-1.5-0.4-3-0.6-4.6c-2.8,1.5-6.2,0.6-9.2,0.9c-3.3,0.3-6.3,1.4-8.2,4.2c-1.5,2.1,1.4,4.7,3.4,3.4
				c3.2-2,5.5-4.9,7-8.4c-1.4,0.4-2.8,0.7-4.2,1.1c1.2,1.3,2.3,2.6,3.5,3.9c0.2,0.2,0.3,0.4,0.4,0.4c-0.1,0.1,0.2-0.8,0.2-0.7
				c0.1,0.1-1.6-0.1-1.6-0.1c-0.4,1.6-0.9,3.2-1.3,4.8c0.5,0.1,0.9,0.1,1.4,0.2c1.3,0.2,2.7-0.3,3.1-1.7c0.4-1.3-0.4-2.7-1.7-3.1
				c-1.7-0.4-3.2-1.1-4.7-2.1c-0.6,1.5-1.3,3-1.9,4.6c10.5,2,21.3,1.4,31.4-2c3-1,1.7-5.9-1.3-4.8c-9.2,3.1-19.2,3.9-28.8,2
				c-2.8-0.5-4.3,3-1.9,4.6c1.8,1.2,3.8,2.1,5.8,2.6c0.4-1.6,0.9-3.2,1.3-4.8c-0.5-0.1-0.9-0.1-1.4-0.2c-1.3-0.2-2.7,0.3-3.1,1.7
				c-0.3,1.2,0.4,2.8,1.7,3.1c1.6,0.3,3.3,0.6,4.8-0.1c1.5-0.7,2.7-2,2.8-3.7c0.1-1.7-0.8-2.9-1.9-4.1c-1.2-1.3-2.3-2.6-3.5-3.9
				c-1.4-1.5-3.5-0.5-4.2,1.1c-0.9,2.2-2.6,4.1-4.7,5.4c1.1,1.1,2.3,2.3,3.4,3.4c1.3-1.8,4.2-1.8,6.1-1.8c3.3,0,6.5,0.1,9.5-1.5
				c1.9-1,1.5-4.1-0.6-4.6c-3.5-0.8-7.2-0.7-10.6,0.7c-2.1,0.8-2.4,3.3-0.6,4.6c4.3,3,10.6,2.3,14.3-1.5c1-1.1,1-3.2-0.5-3.9
				c-4.8-2.2-10.6-2-15,1.1c-1.4,1-1.8,3.4,0,4.3c3.6,1.7,8.4,2.1,11.8-0.4c1.8-1.3,2.5-3.5,1.4-5.5c-1.2-2.1-3.7-2.5-5.9-2.2
				c-1.9,0.3-4.1,1.4-4.4,3.6c-0.3,2.5,2,3.8,4.2,3.7c3.9-0.1,7.8-1.9,10.4-4.8c1.2-1.3,0.8-3.8-1.1-4.2c-2.5-0.5-4.9-0.3-7.2,0.6
				c-2.4,1-4.8,3.7-2.7,6.3c1.6,2,4.5,1.7,6.7,1.2c2.4-0.5,4.7-1.6,6.7-3c1.1-0.8,1.6-2.2,0.9-3.4c-0.6-1.1-2.3-1.7-3.4-0.9
				c-0.7,0.5-1.6,0.5-2.4,0.7c-0.9,0.2-1.8,0.5-2.6,1c-1.8,1.2-2.6,3.7-1.5,5.6c2.4,4.2,9.2,0.3,11.9-1.6c2.1-1.5,1.2-4.4-1.3-4.7
				c-2.2-0.3-4.7,0.1-6.7,1.2c-2.4,1.3-3.1,4.6-0.5,6.1c1.8,1,4.6,0.6,6.5,0.1c2.2-0.5,4.2-1.6,6-3c1.3-1,0.8-3.2-0.5-3.9
				c-2.3-1.3-4.9-1.6-7.4-0.8c-1.9,0.6-2.6,3.6-0.6,4.6c2,1,4,1.9,6,2.9c0-1.4,0-2.9,0-4.3c-8.9,5.9-19.4,8.6-30,7.9
				c0.7,1.3,1.4,2.5,2.2,3.8c1-1.7,1-3.8-0.1-5.5c-0.7-1.1-2.2-1.6-3.4-0.9c-1.3,0.7-1.4,2.2-0.9,3.4c0.4,0.9,0.8,1.8,1.2,2.7
				c1.1,2.6,5.4,0.7,4.6-1.9c-1-3-1.7-7.7,1.8-9.4c1.9-0.9,4.2-0.9,6.3-1.1c2.8-0.2,5.6-0.4,8.5-0.7c2.6-0.2,5.4-0.6,8-0.5
				c1.4,0.1,3.7,0.7,3.9,2.4c0.2,1.8-2.3,2.8-3.5,3.3c-2.5,0.8-5.1,1.4-7.7,2C786,394,780,394.9,774,394c-1.3-0.2-2.7,0.3-3.1,1.7
				c-0.3,1.2,0.4,2.9,1.7,3.1c1.6,0.3,3.2,0.5,4.8,0.8c0.4-1.6,0.9-3.2,1.3-4.8c-1.2-0.2-2.5-0.4-3.7-0.5c-1.3-0.2-2.7,0.3-3.1,1.7
				c-0.3,1.2,0.4,2.9,1.7,3.1c0.3,0.1,0.6,0.1,1,0.2c1.3,0.2,2.7-0.3,3.1-1.7C778.1,396.3,777.4,394.6,776,394.4L776,394.4z"/>
		</g>
	</g>
	<g>
		<g>
			<path class="st18" d="M788.5,551.5c-0.2,4.8,1.7,9.6,5,13.1c3.3,3.4,7.9,5.4,12.6,5.5c1.3,0,2.6-1.2,2.5-2.5
				c-0.1-1.4-1.1-2.5-2.5-2.5c-0.5,0-1,0-1.5-0.1c0.4,0.1-0.1,0-0.2,0c-0.2,0-0.4-0.1-0.6-0.1c-0.5-0.1-1-0.3-1.5-0.4
				c-0.2-0.1-0.4-0.1-0.6-0.2c-0.1,0-0.5-0.2-0.2-0.1c-0.9-0.4-1.7-0.8-2.5-1.4c-0.6-0.4-0.5-0.3-0.9-0.7c-0.4-0.3-0.7-0.6-1-1
				c-0.1-0.2-0.3-0.3-0.4-0.5c0,0-0.5-0.6-0.3-0.3c-0.3-0.4-0.6-0.8-0.8-1.2c-0.3-0.4-0.5-0.8-0.7-1.3c-0.1-0.2-0.2-0.5-0.3-0.7
				c0.1,0.3-0.1-0.2-0.1-0.3c-0.3-0.9-0.6-1.8-0.7-2.8c0-0.1-0.1-0.6,0-0.2c0-0.3-0.1-0.5-0.1-0.8c0-0.5,0-1,0-1.6
				c0-1.3-1.2-2.6-2.5-2.5C789.6,549.1,788.5,550.1,788.5,551.5L788.5,551.5z"/>
		</g>
	</g>

<animateMotion path="M 140 390 L 180 360 L 140 390" dur="20s" begin="0s" repeatCount="indefinite" />
<animateTransform attributeType="XML" attributeName="transform" begin="0s" dur="30s" type="rotate" values="0 140 390; -60 140 390; 0 140 390" keyTimes="0 ; 0.5 ; 1" repeatCount="indefinite" />
</g>


</svg>
